M48
; DRILL file KiCad 10.0.5 date 2026-09-16T00:16:25
; FORMAT={-:-/ absolute / metric / decimal}
; #@! TF.CreationDate,2026-09-16T00:16:25+02:00
; #@! TF.GenerationSoftware,Kicad,Pcbnew,10.0.5
; #@! TF.FileFunction,NonPlated,1,4,NPTH
FMAT,2
METRIC
; #@! TA.AperFunction,NonPlated,NPTH,ComponentDrill
T1C1.700
; #@! TA.AperFunction,NonPlated,NPTH,ComponentDrill
T2C3.050
; #@! TA.AperFunction,NonPlated,NPTH,ComponentDrill
T3C3.200
; #@! TA.AperFunction,NonPlated,NPTH,ComponentDrill
T4C3.454
; #@! TA.AperFunction,NonPlated,NPTH,ComponentDrill
T5C4.000
%
G90
G05
T1
X58.5Y-84.92
X58.5Y-95.08
T2
X65.5Y-70.95
X65.5Y-78.1
X65.5Y-101.9
X65.5Y-109.05
T3
X60.0Y-55.0
X60.0Y-125.0
X76.64Y-55.0
X76.64Y-125.83
X172.56Y-55.0
X172.56Y-125.83
X190.0Y-55.0
X190.0Y-125.0
T4
X65.5Y-60.69
X65.5Y-65.77
X163.38Y-82.304
X168.46Y-82.304
X173.54Y-82.224
X178.62Y-82.224
T5
X50.26Y-70.95
X50.26Y-78.1
X50.26Y-101.9
X50.26Y-109.05
X58.5Y-90.0
M30
