%TF.GenerationSoftware,KiCad,Pcbnew,10.0.5*%
%TF.CreationDate,2026-09-16T00:16:12+02:00*%
%TF.ProjectId,DigiFur-Rev1.0,44696769-4675-4722-9d52-6576312e302e,rev?*%
%TF.SameCoordinates,Original*%
%TF.FileFunction,Paste,Top*%
%TF.FilePolarity,Positive*%
%FSLAX46Y46*%
G04 Gerber Fmt 4.6, Leading zero omitted, Abs format (unit mm)*
G04 Created by KiCad (PCBNEW 10.0.5) date 2026-09-16 00:16:12*
%MOMM*%
%LPD*%
G01*
G04 APERTURE LIST*
G04 Aperture macros list*
%AMRoundRect*
0 Rectangle with rounded corners*
0 $1 Rounding radius*
0 $2 $3 $4 $5 $6 $7 $8 $9 X,Y pos of 4 corners*
0 Add a 4 corners polygon primitive as box body*
4,1,4,$2,$3,$4,$5,$6,$7,$8,$9,$2,$3,0*
0 Add four circle primitives for the rounded corners*
1,1,$1+$1,$2,$3*
1,1,$1+$1,$4,$5*
1,1,$1+$1,$6,$7*
1,1,$1+$1,$8,$9*
0 Add four rect primitives between the rounded corners*
20,1,$1+$1,$2,$3,$4,$5,0*
20,1,$1+$1,$4,$5,$6,$7,0*
20,1,$1+$1,$6,$7,$8,$9,0*
20,1,$1+$1,$8,$9,$2,$3,0*%
G04 Aperture macros list end*
%ADD10RoundRect,0.237500X-0.237500X0.300000X-0.237500X-0.300000X0.237500X-0.300000X0.237500X0.300000X0*%
%ADD11RoundRect,0.237500X0.237500X-0.300000X0.237500X0.300000X-0.237500X0.300000X-0.237500X-0.300000X0*%
%ADD12RoundRect,0.237500X0.250000X0.237500X-0.250000X0.237500X-0.250000X-0.237500X0.250000X-0.237500X0*%
%ADD13RoundRect,0.237500X-0.250000X-0.237500X0.250000X-0.237500X0.250000X0.237500X-0.250000X0.237500X0*%
%ADD14R,3.150000X1.000000*%
%ADD15RoundRect,0.237500X0.237500X-0.250000X0.237500X0.250000X-0.237500X0.250000X-0.237500X-0.250000X0*%
%ADD16RoundRect,0.237500X0.300000X0.237500X-0.300000X0.237500X-0.300000X-0.237500X0.300000X-0.237500X0*%
%ADD17RoundRect,0.237500X-0.237500X0.250000X-0.237500X-0.250000X0.237500X-0.250000X0.237500X0.250000X0*%
%ADD18RoundRect,0.237500X-0.300000X-0.237500X0.300000X-0.237500X0.300000X0.237500X-0.300000X0.237500X0*%
%ADD19RoundRect,0.150000X-0.150000X0.825000X-0.150000X-0.825000X0.150000X-0.825000X0.150000X0.825000X0*%
%ADD20R,0.980000X3.400000*%
%ADD21RoundRect,0.150000X0.150000X-0.512500X0.150000X0.512500X-0.150000X0.512500X-0.150000X-0.512500X0*%
%ADD22RoundRect,0.125000X0.125000X0.125000X-0.125000X0.125000X-0.125000X-0.125000X0.125000X-0.125000X0*%
%ADD23RoundRect,0.062500X0.350000X0.062500X-0.350000X0.062500X-0.350000X-0.062500X0.350000X-0.062500X0*%
%ADD24RoundRect,0.062500X0.062500X0.350000X-0.062500X0.350000X-0.062500X-0.350000X0.062500X-0.350000X0*%
%ADD25RoundRect,0.150000X0.512500X0.150000X-0.512500X0.150000X-0.512500X-0.150000X0.512500X-0.150000X0*%
%ADD26R,1.000000X3.150000*%
%ADD27RoundRect,0.130000X0.305000X-0.130000X0.305000X0.130000X-0.305000X0.130000X-0.305000X-0.130000X0*%
%ADD28RoundRect,0.062500X0.062500X-0.350000X0.062500X0.350000X-0.062500X0.350000X-0.062500X-0.350000X0*%
%ADD29R,1.000000X1.800000*%
%ADD30RoundRect,0.250000X-1.275000X-0.550000X1.275000X-0.550000X1.275000X0.550000X-1.275000X0.550000X0*%
%ADD31RoundRect,0.150000X-0.512500X-0.150000X0.512500X-0.150000X0.512500X0.150000X-0.512500X0.150000X0*%
%ADD32RoundRect,0.150000X0.150000X-0.650000X0.150000X0.650000X-0.150000X0.650000X-0.150000X-0.650000X0*%
%ADD33RoundRect,0.150000X-0.150000X0.512500X-0.150000X-0.512500X0.150000X-0.512500X0.150000X0.512500X0*%
%ADD34RoundRect,0.250000X-0.250000X0.250000X-0.250000X-0.250000X0.250000X-0.250000X0.250000X0.250000X0*%
%ADD35R,0.700000X1.200000*%
%ADD36R,1.000000X0.800000*%
%ADD37R,1.000000X1.200000*%
%ADD38R,1.000000X2.800000*%
%ADD39R,1.300000X1.900000*%
%ADD40RoundRect,0.150000X0.875000X0.150000X-0.875000X0.150000X-0.875000X-0.150000X0.875000X-0.150000X0*%
G04 APERTURE END LIST*
D10*
%TO.C,C41*%
X90500000Y-88137500D03*
X90500000Y-89862500D03*
%TD*%
D11*
%TO.C,C44*%
X99500000Y-86362500D03*
X99500000Y-84637500D03*
%TD*%
D12*
%TO.C,R21*%
X115912500Y-111500000D03*
X114087500Y-111500000D03*
%TD*%
D13*
%TO.C,R34*%
X98087500Y-106500000D03*
X99912500Y-106500000D03*
%TD*%
D14*
%TO.C,J6*%
X73975000Y-79840000D03*
X79025000Y-79840000D03*
X73975000Y-82380000D03*
X79025000Y-82380000D03*
X73975000Y-84920000D03*
X79025000Y-84920000D03*
X73975000Y-87460000D03*
X79025000Y-87460000D03*
X73975000Y-90000000D03*
X79025000Y-90000000D03*
X73975000Y-92540000D03*
X79025000Y-92540000D03*
X73975000Y-95080000D03*
X79025000Y-95080000D03*
X73975000Y-97620000D03*
X79025000Y-97620000D03*
X73975000Y-100160000D03*
X79025000Y-100160000D03*
%TD*%
D15*
%TO.C,R4*%
X109500000Y-100432500D03*
X109500000Y-98607500D03*
%TD*%
%TO.C,R3*%
X108000000Y-100432500D03*
X108000000Y-98607500D03*
%TD*%
%TO.C,R8*%
X109500000Y-96932500D03*
X109500000Y-95107500D03*
%TD*%
D11*
%TO.C,C28*%
X99500000Y-116362500D03*
X99500000Y-114637500D03*
%TD*%
D10*
%TO.C,C30*%
X99500000Y-118137500D03*
X99500000Y-119862500D03*
%TD*%
D16*
%TO.C,C7*%
X172000000Y-113000000D03*
X170275000Y-113000000D03*
%TD*%
D12*
%TO.C,R18*%
X95662500Y-57750000D03*
X93837500Y-57750000D03*
%TD*%
D16*
%TO.C,C58*%
X121362500Y-111500000D03*
X119637500Y-111500000D03*
%TD*%
D11*
%TO.C,C27*%
X98000000Y-116362500D03*
X98000000Y-114637500D03*
%TD*%
%TO.C,C21*%
X173500000Y-66862500D03*
X173500000Y-65137500D03*
%TD*%
%TO.C,C43*%
X98000000Y-86362500D03*
X98000000Y-84637500D03*
%TD*%
D17*
%TO.C,R43*%
X96500000Y-76087500D03*
X96500000Y-77912500D03*
%TD*%
D10*
%TO.C,C29*%
X98000000Y-118137500D03*
X98000000Y-119862500D03*
%TD*%
D11*
%TO.C,C52*%
X99500000Y-71362500D03*
X99500000Y-69637500D03*
%TD*%
%TO.C,C40*%
X92000000Y-86362500D03*
X92000000Y-84637500D03*
%TD*%
D18*
%TO.C,C6*%
X128137500Y-80750000D03*
X129862500Y-80750000D03*
%TD*%
D16*
%TO.C,C8*%
X80112500Y-70500000D03*
X78387500Y-70500000D03*
%TD*%
D17*
%TO.C,R31*%
X96500000Y-121087500D03*
X96500000Y-122912500D03*
%TD*%
D11*
%TO.C,C47*%
X90500000Y-71362500D03*
X90500000Y-69637500D03*
%TD*%
%TO.C,C51*%
X98000000Y-71362500D03*
X98000000Y-69637500D03*
%TD*%
%TO.C,C32*%
X92000000Y-101362500D03*
X92000000Y-99637500D03*
%TD*%
D17*
%TO.C,R22*%
X108490000Y-59087500D03*
X108490000Y-60912500D03*
%TD*%
%TO.C,R29*%
X95000000Y-121087500D03*
X95000000Y-122912500D03*
%TD*%
D10*
%TO.C,C15*%
X111030000Y-59137500D03*
X111030000Y-60862500D03*
%TD*%
D18*
%TO.C,C9*%
X78750000Y-119000000D03*
X80475000Y-119000000D03*
%TD*%
D19*
%TO.C,U4*%
X172155000Y-105025000D03*
X170885000Y-105025000D03*
X169615000Y-105025000D03*
X168345000Y-105025000D03*
X168345000Y-109975000D03*
X169615000Y-109975000D03*
X170885000Y-109975000D03*
X172155000Y-109975000D03*
%TD*%
D13*
%TO.C,R2*%
X108337500Y-63750000D03*
X110162500Y-63750000D03*
%TD*%
D20*
%TO.C,L3*%
X93815000Y-84000000D03*
X96185000Y-84000000D03*
%TD*%
D21*
%TO.C,U7*%
X78550000Y-117137500D03*
X79500000Y-117137500D03*
X80450000Y-117137500D03*
X80450000Y-114862500D03*
X79500000Y-114862500D03*
X78550000Y-114862500D03*
%TD*%
D10*
%TO.C,C4*%
X123000000Y-96597500D03*
X123000000Y-98322500D03*
%TD*%
%TO.C,C53*%
X98000000Y-73137500D03*
X98000000Y-74862500D03*
%TD*%
D22*
%TO.C,U11*%
X170747500Y-70247500D03*
X170747500Y-69627500D03*
X170127500Y-70247500D03*
X170127500Y-69627500D03*
D23*
X171875000Y-70687500D03*
X171875000Y-70187500D03*
X171875000Y-69687500D03*
X171875000Y-69187500D03*
D24*
X171187500Y-68500000D03*
X170687500Y-68500000D03*
X170187500Y-68500000D03*
X169687500Y-68500000D03*
D23*
X169000000Y-69187500D03*
X169000000Y-69687500D03*
X169000000Y-70187500D03*
X169000000Y-70687500D03*
D24*
X169687500Y-71375000D03*
X170187500Y-71375000D03*
X170687500Y-71375000D03*
X171187500Y-71375000D03*
%TD*%
D20*
%TO.C,L2*%
X93815000Y-99000000D03*
X96185000Y-99000000D03*
%TD*%
D10*
%TO.C,C34*%
X92000000Y-103137500D03*
X92000000Y-104862500D03*
%TD*%
%TO.C,C37*%
X98000000Y-103137500D03*
X98000000Y-104862500D03*
%TD*%
D25*
%TO.C,U6*%
X82137500Y-68950000D03*
X82137500Y-68000000D03*
X82137500Y-67050000D03*
X79862500Y-67050000D03*
X79862500Y-68950000D03*
%TD*%
D26*
%TO.C,J5*%
X109650000Y-82525000D03*
X109650000Y-77475000D03*
X112190000Y-82525000D03*
X112190000Y-77475000D03*
X114730000Y-82525000D03*
X114730000Y-77475000D03*
X117270000Y-82525000D03*
X117270000Y-77475000D03*
X119810000Y-82525000D03*
X119810000Y-77475000D03*
X122350000Y-82525000D03*
X122350000Y-77475000D03*
%TD*%
D27*
%TO.C,U15*%
X94500000Y-73550000D03*
X95500000Y-73550000D03*
X94500000Y-72950000D03*
X95500000Y-72950000D03*
D28*
X94000000Y-74462500D03*
X94500000Y-74462500D03*
X95000000Y-74462500D03*
X95500000Y-74462500D03*
X96000000Y-74462500D03*
X96000000Y-72037500D03*
X95500000Y-72037500D03*
X95000000Y-72037500D03*
X94500000Y-72037500D03*
X94000000Y-72037500D03*
%TD*%
D29*
%TO.C,Y1*%
X170270000Y-102500000D03*
X172770000Y-102500000D03*
%TD*%
D11*
%TO.C,C36*%
X99500000Y-101362500D03*
X99500000Y-99637500D03*
%TD*%
D18*
%TO.C,C1*%
X111887500Y-63750000D03*
X113612500Y-63750000D03*
%TD*%
%TO.C,C5*%
X128137500Y-79250000D03*
X129862500Y-79250000D03*
%TD*%
D11*
%TO.C,C23*%
X90500000Y-116362500D03*
X90500000Y-114637500D03*
%TD*%
%TO.C,C20*%
X172000000Y-66862500D03*
X172000000Y-65137500D03*
%TD*%
D30*
%TO.C,U5*%
X133025000Y-79700000D03*
X133025000Y-82240000D03*
X133025000Y-84780000D03*
X133025000Y-87320000D03*
X133025000Y-89860000D03*
X133025000Y-92400000D03*
X133025000Y-94940000D03*
X133025000Y-97480000D03*
X133025000Y-100020000D03*
X133025000Y-102560000D03*
X133025000Y-105100000D03*
X133025000Y-107640000D03*
X133025000Y-110180000D03*
X133025000Y-112720000D03*
X133025000Y-115260000D03*
X133025000Y-117800000D03*
X156975000Y-117800000D03*
X156975000Y-115260000D03*
X156975000Y-112720000D03*
X156975000Y-110180000D03*
X156975000Y-107640000D03*
X156975000Y-105100000D03*
X156975000Y-102560000D03*
X156975000Y-100020000D03*
X156975000Y-97480000D03*
X156975000Y-94940000D03*
X156975000Y-92400000D03*
X156975000Y-89860000D03*
X156975000Y-87320000D03*
X156975000Y-84780000D03*
X156975000Y-82240000D03*
X156975000Y-79700000D03*
%TD*%
D11*
%TO.C,C31*%
X90500000Y-101362500D03*
X90500000Y-99637500D03*
%TD*%
D16*
%TO.C,C13*%
X76862500Y-109500000D03*
X75137500Y-109500000D03*
%TD*%
D13*
%TO.C,R32*%
X98087500Y-123000000D03*
X99912500Y-123000000D03*
%TD*%
D11*
%TO.C,C22*%
X175000000Y-66862500D03*
X175000000Y-65137500D03*
%TD*%
D10*
%TO.C,C38*%
X99500000Y-103137500D03*
X99500000Y-104862500D03*
%TD*%
D31*
%TO.C,U1*%
X109862500Y-65550000D03*
X109862500Y-66500000D03*
X109862500Y-67450000D03*
X112137500Y-67450000D03*
X112137500Y-65550000D03*
%TD*%
D13*
%TO.C,R40*%
X98087500Y-93000000D03*
X99912500Y-93000000D03*
%TD*%
%TO.C,R36*%
X98087500Y-108000000D03*
X99912500Y-108000000D03*
%TD*%
D21*
%TO.C,U16*%
X111050000Y-117637500D03*
X112000000Y-117637500D03*
X112950000Y-117637500D03*
X112950000Y-115362500D03*
X112000000Y-115362500D03*
X111050000Y-115362500D03*
%TD*%
D17*
%TO.C,R39*%
X96500000Y-91087500D03*
X96500000Y-92912500D03*
%TD*%
D32*
%TO.C,U2*%
X115550000Y-67400000D03*
X116500000Y-67400000D03*
X117450000Y-67400000D03*
X117450000Y-65100000D03*
X116500000Y-65100000D03*
X115550000Y-65100000D03*
%TD*%
D16*
%TO.C,C12*%
X76862500Y-115500000D03*
X75137500Y-115500000D03*
%TD*%
D17*
%TO.C,R10*%
X127500000Y-90217500D03*
X127500000Y-92042500D03*
%TD*%
D10*
%TO.C,C26*%
X92000000Y-118137500D03*
X92000000Y-119862500D03*
%TD*%
%TO.C,C25*%
X90500000Y-118137500D03*
X90500000Y-119862500D03*
%TD*%
D13*
%TO.C,R38*%
X98087500Y-91500000D03*
X99912500Y-91500000D03*
%TD*%
D10*
%TO.C,C46*%
X99500000Y-88137500D03*
X99500000Y-89862500D03*
%TD*%
D12*
%TO.C,R25*%
X175162500Y-68500000D03*
X173337500Y-68500000D03*
%TD*%
D31*
%TO.C,U10*%
X177612500Y-69050000D03*
X177612500Y-70000000D03*
X177612500Y-70950000D03*
X179887500Y-70950000D03*
X179887500Y-70000000D03*
X179887500Y-69050000D03*
%TD*%
D20*
%TO.C,L4*%
X93815000Y-69000000D03*
X96185000Y-69000000D03*
%TD*%
D11*
%TO.C,C24*%
X92000000Y-116362500D03*
X92000000Y-114637500D03*
%TD*%
D15*
%TO.C,R7*%
X123000000Y-110162500D03*
X123000000Y-108337500D03*
%TD*%
D10*
%TO.C,C50*%
X92000000Y-73137500D03*
X92000000Y-74862500D03*
%TD*%
D11*
%TO.C,C48*%
X92000000Y-71362500D03*
X92000000Y-69637500D03*
%TD*%
D12*
%TO.C,R15*%
X80412500Y-111250000D03*
X78587500Y-111250000D03*
%TD*%
D11*
%TO.C,C2*%
X108000000Y-67362500D03*
X108000000Y-65637500D03*
%TD*%
%TO.C,C57*%
X109500000Y-117362500D03*
X109500000Y-115637500D03*
%TD*%
D27*
%TO.C,U13*%
X94500000Y-103550000D03*
X95500000Y-103550000D03*
X94500000Y-102950000D03*
X95500000Y-102950000D03*
D28*
X94000000Y-104462500D03*
X94500000Y-104462500D03*
X95000000Y-104462500D03*
X95500000Y-104462500D03*
X96000000Y-104462500D03*
X96000000Y-102037500D03*
X95500000Y-102037500D03*
X95000000Y-102037500D03*
X94500000Y-102037500D03*
X94000000Y-102037500D03*
%TD*%
D21*
%TO.C,Q1*%
X93800000Y-55887500D03*
X95700000Y-55887500D03*
X94750000Y-53612500D03*
%TD*%
D17*
%TO.C,R5*%
X109500000Y-102107500D03*
X109500000Y-103932500D03*
%TD*%
D12*
%TO.C,R26*%
X175162500Y-71500000D03*
X173337500Y-71500000D03*
%TD*%
D17*
%TO.C,R24*%
X100870000Y-59087500D03*
X100870000Y-60912500D03*
%TD*%
D13*
%TO.C,R44*%
X98087500Y-78000000D03*
X99912500Y-78000000D03*
%TD*%
D16*
%TO.C,C16*%
X115702500Y-60250000D03*
X113977500Y-60250000D03*
%TD*%
D12*
%TO.C,R16*%
X76912500Y-108000000D03*
X75087500Y-108000000D03*
%TD*%
D10*
%TO.C,C54*%
X99500000Y-73137500D03*
X99500000Y-74862500D03*
%TD*%
D15*
%TO.C,R28*%
X160000000Y-102202500D03*
X160000000Y-100377500D03*
%TD*%
%TO.C,R9*%
X108000000Y-96932500D03*
X108000000Y-95107500D03*
%TD*%
D17*
%TO.C,R20*%
X112750000Y-122587500D03*
X112750000Y-124412500D03*
%TD*%
D16*
%TO.C,C18*%
X115702500Y-61750000D03*
X113977500Y-61750000D03*
%TD*%
%TO.C,C59*%
X121362500Y-110000000D03*
X119637500Y-110000000D03*
%TD*%
D13*
%TO.C,R14*%
X78587500Y-112950000D03*
X80412500Y-112950000D03*
%TD*%
D10*
%TO.C,C33*%
X90500000Y-103137500D03*
X90500000Y-104862500D03*
%TD*%
%TO.C,C45*%
X98000000Y-88137500D03*
X98000000Y-89862500D03*
%TD*%
D11*
%TO.C,C11*%
X77000000Y-118862500D03*
X77000000Y-117137500D03*
%TD*%
D13*
%TO.C,R42*%
X98087500Y-76500000D03*
X99912500Y-76500000D03*
%TD*%
D27*
%TO.C,U14*%
X94500000Y-88550000D03*
X95500000Y-88550000D03*
X94500000Y-87950000D03*
X95500000Y-87950000D03*
D28*
X94000000Y-89462500D03*
X94500000Y-89462500D03*
X95000000Y-89462500D03*
X95500000Y-89462500D03*
X96000000Y-89462500D03*
X96000000Y-87037500D03*
X95500000Y-87037500D03*
X95000000Y-87037500D03*
X94500000Y-87037500D03*
X94000000Y-87037500D03*
%TD*%
D11*
%TO.C,C39*%
X90500000Y-86362500D03*
X90500000Y-84637500D03*
%TD*%
D17*
%TO.C,R35*%
X96500000Y-106087500D03*
X96500000Y-107912500D03*
%TD*%
D15*
%TO.C,R12*%
X78000000Y-68912500D03*
X78000000Y-67087500D03*
%TD*%
D17*
%TO.C,R41*%
X95000000Y-76087500D03*
X95000000Y-77912500D03*
%TD*%
D33*
%TO.C,U8*%
X76950000Y-111362500D03*
X76000000Y-111362500D03*
X75050000Y-111362500D03*
X75050000Y-113637500D03*
X76950000Y-113637500D03*
%TD*%
D10*
%TO.C,C14*%
X97250000Y-55887500D03*
X97250000Y-57612500D03*
%TD*%
D17*
%TO.C,R37*%
X95000000Y-91087500D03*
X95000000Y-92912500D03*
%TD*%
D27*
%TO.C,U12*%
X94500000Y-118550000D03*
X95500000Y-118550000D03*
X94500000Y-117950000D03*
X95500000Y-117950000D03*
D28*
X94000000Y-119462500D03*
X94500000Y-119462500D03*
X95000000Y-119462500D03*
X95500000Y-119462500D03*
X96000000Y-119462500D03*
X96000000Y-117037500D03*
X95500000Y-117037500D03*
X95000000Y-117037500D03*
X94500000Y-117037500D03*
X94000000Y-117037500D03*
%TD*%
D17*
%TO.C,R11*%
X126000000Y-90217500D03*
X126000000Y-92042500D03*
%TD*%
D10*
%TO.C,C42*%
X92000000Y-88137500D03*
X92000000Y-89862500D03*
%TD*%
D17*
%TO.C,R23*%
X105950000Y-59087500D03*
X105950000Y-60912500D03*
%TD*%
D10*
%TO.C,C10*%
X84000000Y-67137500D03*
X84000000Y-68862500D03*
%TD*%
%TO.C,C49*%
X90500000Y-73137500D03*
X90500000Y-74862500D03*
%TD*%
%TO.C,C17*%
X111250000Y-122637500D03*
X111250000Y-124362500D03*
%TD*%
D18*
%TO.C,C56*%
X111137500Y-119500000D03*
X112862500Y-119500000D03*
%TD*%
%TO.C,C3*%
X115637500Y-63250000D03*
X117362500Y-63250000D03*
%TD*%
D13*
%TO.C,R27*%
X173337500Y-70000000D03*
X175162500Y-70000000D03*
%TD*%
D34*
%TO.C,D1*%
X170137500Y-114500000D03*
X170137500Y-117000000D03*
%TD*%
D17*
%TO.C,R33*%
X95000000Y-106087500D03*
X95000000Y-107912500D03*
%TD*%
D18*
%TO.C,C55*%
X111137500Y-121000000D03*
X112862500Y-121000000D03*
%TD*%
D13*
%TO.C,R30*%
X98087500Y-121500000D03*
X99912500Y-121500000D03*
%TD*%
D17*
%TO.C,R1*%
X114000000Y-65587500D03*
X114000000Y-67412500D03*
%TD*%
D34*
%TO.C,D2*%
X172137500Y-114500000D03*
X172137500Y-117000000D03*
%TD*%
D13*
%TO.C,R45*%
X111087500Y-113500000D03*
X112912500Y-113500000D03*
%TD*%
D11*
%TO.C,C35*%
X98000000Y-101362500D03*
X98000000Y-99637500D03*
%TD*%
D12*
%TO.C,R17*%
X95662500Y-59250000D03*
X93837500Y-59250000D03*
%TD*%
D35*
%TO.C,J2*%
X124775000Y-113525000D03*
X123675000Y-113525000D03*
X122575000Y-113525000D03*
X121475000Y-113525000D03*
X120375000Y-113525000D03*
X119275000Y-113525000D03*
X118175000Y-113525000D03*
X117075000Y-113525000D03*
X116125000Y-113525000D03*
D36*
X115175000Y-124025000D03*
D37*
X115175000Y-117825000D03*
D38*
X115175000Y-128175000D03*
D37*
X126325000Y-113525000D03*
D39*
X128675000Y-128625000D03*
%TD*%
D12*
%TO.C,R13*%
X83662500Y-70500000D03*
X81837500Y-70500000D03*
%TD*%
D40*
%TO.C,U3*%
X120900000Y-108255000D03*
X120900000Y-106985000D03*
X120900000Y-105715000D03*
X120900000Y-104445000D03*
X120900000Y-103175000D03*
X120900000Y-101905000D03*
X120900000Y-100635000D03*
X120900000Y-99365000D03*
X120900000Y-98095000D03*
X120900000Y-96825000D03*
X120900000Y-95555000D03*
X120900000Y-94285000D03*
X120900000Y-93015000D03*
X120900000Y-91745000D03*
X111600000Y-91745000D03*
X111600000Y-93015000D03*
X111600000Y-94285000D03*
X111600000Y-95555000D03*
X111600000Y-96825000D03*
X111600000Y-98095000D03*
X111600000Y-99365000D03*
X111600000Y-100635000D03*
X111600000Y-101905000D03*
X111600000Y-103175000D03*
X111600000Y-104445000D03*
X111600000Y-105715000D03*
X111600000Y-106985000D03*
X111600000Y-108255000D03*
%TD*%
D11*
%TO.C,C19*%
X170500000Y-66862500D03*
X170500000Y-65137500D03*
%TD*%
D15*
%TO.C,R19*%
X92250000Y-57662500D03*
X92250000Y-55837500D03*
%TD*%
D20*
%TO.C,L1*%
X93815000Y-114000000D03*
X96185000Y-114000000D03*
%TD*%
D17*
%TO.C,R6*%
X108000000Y-102107500D03*
X108000000Y-103932500D03*
%TD*%
M02*
