%TF.GenerationSoftware,KiCad,Pcbnew,10.0.5*%
%TF.CreationDate,2026-09-16T00:16:12+02:00*%
%TF.ProjectId,DigiFur-Rev1.0,44696769-4675-4722-9d52-6576312e302e,rev?*%
%TF.SameCoordinates,Original*%
%TF.FileFunction,Legend,Bot*%
%TF.FilePolarity,Positive*%
%FSLAX46Y46*%
G04 Gerber Fmt 4.6, Leading zero omitted, Abs format (unit mm)*
G04 Created by KiCad (PCBNEW 10.0.5) date 2026-09-16 00:16:12*
%MOMM*%
%LPD*%
G01*
G04 APERTURE LIST*
%ADD10C,0.300000*%
%ADD11C,0.150000*%
%ADD12C,0.508000*%
%ADD13C,0.120000*%
%ADD14C,0.152400*%
G04 APERTURE END LIST*
D10*
X54826441Y-62107733D02*
X53302632Y-62107733D01*
X54826441Y-64647733D02*
X53302632Y-64647733D01*
X54064536Y-65409638D02*
X54064536Y-63885828D01*
X89673559Y-62529694D02*
X89673559Y-60529694D01*
X89673559Y-60529694D02*
X89006892Y-61958265D01*
X89006892Y-61958265D02*
X88340226Y-60529694D01*
X88340226Y-60529694D02*
X88340226Y-62529694D01*
X86530702Y-62529694D02*
X86530702Y-61482075D01*
X86530702Y-61482075D02*
X86625940Y-61291598D01*
X86625940Y-61291598D02*
X86816416Y-61196360D01*
X86816416Y-61196360D02*
X87197369Y-61196360D01*
X87197369Y-61196360D02*
X87387845Y-61291598D01*
X86530702Y-62434456D02*
X86721178Y-62529694D01*
X86721178Y-62529694D02*
X87197369Y-62529694D01*
X87197369Y-62529694D02*
X87387845Y-62434456D01*
X87387845Y-62434456D02*
X87483083Y-62243979D01*
X87483083Y-62243979D02*
X87483083Y-62053503D01*
X87483083Y-62053503D02*
X87387845Y-61863027D01*
X87387845Y-61863027D02*
X87197369Y-61767789D01*
X87197369Y-61767789D02*
X86721178Y-61767789D01*
X86721178Y-61767789D02*
X86530702Y-61672551D01*
X85578321Y-62529694D02*
X85578321Y-61196360D01*
X85578321Y-60529694D02*
X85673559Y-60624932D01*
X85673559Y-60624932D02*
X85578321Y-60720170D01*
X85578321Y-60720170D02*
X85483083Y-60624932D01*
X85483083Y-60624932D02*
X85578321Y-60529694D01*
X85578321Y-60529694D02*
X85578321Y-60720170D01*
X84625940Y-61196360D02*
X84625940Y-62529694D01*
X84625940Y-61386836D02*
X84530702Y-61291598D01*
X84530702Y-61291598D02*
X84340226Y-61196360D01*
X84340226Y-61196360D02*
X84054511Y-61196360D01*
X84054511Y-61196360D02*
X83864035Y-61291598D01*
X83864035Y-61291598D02*
X83768797Y-61482075D01*
X83768797Y-61482075D02*
X83768797Y-62529694D01*
X80625939Y-61482075D02*
X80340225Y-61577313D01*
X80340225Y-61577313D02*
X80244987Y-61672551D01*
X80244987Y-61672551D02*
X80149749Y-61863027D01*
X80149749Y-61863027D02*
X80149749Y-62148741D01*
X80149749Y-62148741D02*
X80244987Y-62339217D01*
X80244987Y-62339217D02*
X80340225Y-62434456D01*
X80340225Y-62434456D02*
X80530701Y-62529694D01*
X80530701Y-62529694D02*
X81292606Y-62529694D01*
X81292606Y-62529694D02*
X81292606Y-60529694D01*
X81292606Y-60529694D02*
X80625939Y-60529694D01*
X80625939Y-60529694D02*
X80435463Y-60624932D01*
X80435463Y-60624932D02*
X80340225Y-60720170D01*
X80340225Y-60720170D02*
X80244987Y-60910646D01*
X80244987Y-60910646D02*
X80244987Y-61101122D01*
X80244987Y-61101122D02*
X80340225Y-61291598D01*
X80340225Y-61291598D02*
X80435463Y-61386836D01*
X80435463Y-61386836D02*
X80625939Y-61482075D01*
X80625939Y-61482075D02*
X81292606Y-61482075D01*
X78435463Y-62529694D02*
X78435463Y-61482075D01*
X78435463Y-61482075D02*
X78530701Y-61291598D01*
X78530701Y-61291598D02*
X78721177Y-61196360D01*
X78721177Y-61196360D02*
X79102130Y-61196360D01*
X79102130Y-61196360D02*
X79292606Y-61291598D01*
X78435463Y-62434456D02*
X78625939Y-62529694D01*
X78625939Y-62529694D02*
X79102130Y-62529694D01*
X79102130Y-62529694D02*
X79292606Y-62434456D01*
X79292606Y-62434456D02*
X79387844Y-62243979D01*
X79387844Y-62243979D02*
X79387844Y-62053503D01*
X79387844Y-62053503D02*
X79292606Y-61863027D01*
X79292606Y-61863027D02*
X79102130Y-61767789D01*
X79102130Y-61767789D02*
X78625939Y-61767789D01*
X78625939Y-61767789D02*
X78435463Y-61672551D01*
X77768796Y-61196360D02*
X77006892Y-61196360D01*
X77483082Y-60529694D02*
X77483082Y-62243979D01*
X77483082Y-62243979D02*
X77387844Y-62434456D01*
X77387844Y-62434456D02*
X77197368Y-62529694D01*
X77197368Y-62529694D02*
X77006892Y-62529694D01*
X76625939Y-61196360D02*
X75864035Y-61196360D01*
X76340225Y-60529694D02*
X76340225Y-62243979D01*
X76340225Y-62243979D02*
X76244987Y-62434456D01*
X76244987Y-62434456D02*
X76054511Y-62529694D01*
X76054511Y-62529694D02*
X75864035Y-62529694D01*
X74435463Y-62434456D02*
X74625939Y-62529694D01*
X74625939Y-62529694D02*
X75006892Y-62529694D01*
X75006892Y-62529694D02*
X75197368Y-62434456D01*
X75197368Y-62434456D02*
X75292606Y-62243979D01*
X75292606Y-62243979D02*
X75292606Y-61482075D01*
X75292606Y-61482075D02*
X75197368Y-61291598D01*
X75197368Y-61291598D02*
X75006892Y-61196360D01*
X75006892Y-61196360D02*
X74625939Y-61196360D01*
X74625939Y-61196360D02*
X74435463Y-61291598D01*
X74435463Y-61291598D02*
X74340225Y-61482075D01*
X74340225Y-61482075D02*
X74340225Y-61672551D01*
X74340225Y-61672551D02*
X75292606Y-61863027D01*
X73483082Y-62529694D02*
X73483082Y-61196360D01*
X73483082Y-61577313D02*
X73387844Y-61386836D01*
X73387844Y-61386836D02*
X73292606Y-61291598D01*
X73292606Y-61291598D02*
X73102130Y-61196360D01*
X73102130Y-61196360D02*
X72911653Y-61196360D01*
X72435463Y-61196360D02*
X71959273Y-62529694D01*
X71483082Y-61196360D02*
X71959273Y-62529694D01*
X71959273Y-62529694D02*
X72149749Y-63005884D01*
X72149749Y-63005884D02*
X72244987Y-63101122D01*
X72244987Y-63101122D02*
X72435463Y-63196360D01*
X77864035Y-63749582D02*
X76625940Y-63749582D01*
X76625940Y-63749582D02*
X77292607Y-64511486D01*
X77292607Y-64511486D02*
X77006892Y-64511486D01*
X77006892Y-64511486D02*
X76816416Y-64606724D01*
X76816416Y-64606724D02*
X76721178Y-64701963D01*
X76721178Y-64701963D02*
X76625940Y-64892439D01*
X76625940Y-64892439D02*
X76625940Y-65368629D01*
X76625940Y-65368629D02*
X76721178Y-65559105D01*
X76721178Y-65559105D02*
X76816416Y-65654344D01*
X76816416Y-65654344D02*
X77006892Y-65749582D01*
X77006892Y-65749582D02*
X77578321Y-65749582D01*
X77578321Y-65749582D02*
X77768797Y-65654344D01*
X77768797Y-65654344D02*
X77864035Y-65559105D01*
X75959273Y-65749582D02*
X74911654Y-64416248D01*
X75959273Y-64416248D02*
X74911654Y-65749582D01*
X74244987Y-65178153D02*
X73292606Y-65178153D01*
X74435463Y-65749582D02*
X73768797Y-63749582D01*
X73768797Y-63749582D02*
X73102130Y-65749582D01*
X72530701Y-65178153D02*
X71578320Y-65178153D01*
X72721177Y-65749582D02*
X72054511Y-63749582D01*
X72054511Y-63749582D02*
X71387844Y-65749582D01*
X191697369Y-89269750D02*
X192364036Y-88317369D01*
X192840226Y-89269750D02*
X192840226Y-87269750D01*
X192840226Y-87269750D02*
X192078321Y-87269750D01*
X192078321Y-87269750D02*
X191887845Y-87364988D01*
X191887845Y-87364988D02*
X191792607Y-87460226D01*
X191792607Y-87460226D02*
X191697369Y-87650702D01*
X191697369Y-87650702D02*
X191697369Y-87936416D01*
X191697369Y-87936416D02*
X191792607Y-88126892D01*
X191792607Y-88126892D02*
X191887845Y-88222131D01*
X191887845Y-88222131D02*
X192078321Y-88317369D01*
X192078321Y-88317369D02*
X192840226Y-88317369D01*
X191125940Y-87269750D02*
X189983083Y-87269750D01*
X190554512Y-89269750D02*
X190554512Y-87269750D01*
X188173559Y-89079273D02*
X188268797Y-89174512D01*
X188268797Y-89174512D02*
X188554511Y-89269750D01*
X188554511Y-89269750D02*
X188744987Y-89269750D01*
X188744987Y-89269750D02*
X189030702Y-89174512D01*
X189030702Y-89174512D02*
X189221178Y-88984035D01*
X189221178Y-88984035D02*
X189316416Y-88793559D01*
X189316416Y-88793559D02*
X189411654Y-88412607D01*
X189411654Y-88412607D02*
X189411654Y-88126892D01*
X189411654Y-88126892D02*
X189316416Y-87745940D01*
X189316416Y-87745940D02*
X189221178Y-87555464D01*
X189221178Y-87555464D02*
X189030702Y-87364988D01*
X189030702Y-87364988D02*
X188744987Y-87269750D01*
X188744987Y-87269750D02*
X188554511Y-87269750D01*
X188554511Y-87269750D02*
X188268797Y-87364988D01*
X188268797Y-87364988D02*
X188173559Y-87460226D01*
X185125939Y-88222131D02*
X184840225Y-88317369D01*
X184840225Y-88317369D02*
X184744987Y-88412607D01*
X184744987Y-88412607D02*
X184649749Y-88603083D01*
X184649749Y-88603083D02*
X184649749Y-88888797D01*
X184649749Y-88888797D02*
X184744987Y-89079273D01*
X184744987Y-89079273D02*
X184840225Y-89174512D01*
X184840225Y-89174512D02*
X185030701Y-89269750D01*
X185030701Y-89269750D02*
X185792606Y-89269750D01*
X185792606Y-89269750D02*
X185792606Y-87269750D01*
X185792606Y-87269750D02*
X185125939Y-87269750D01*
X185125939Y-87269750D02*
X184935463Y-87364988D01*
X184935463Y-87364988D02*
X184840225Y-87460226D01*
X184840225Y-87460226D02*
X184744987Y-87650702D01*
X184744987Y-87650702D02*
X184744987Y-87841178D01*
X184744987Y-87841178D02*
X184840225Y-88031654D01*
X184840225Y-88031654D02*
X184935463Y-88126892D01*
X184935463Y-88126892D02*
X185125939Y-88222131D01*
X185125939Y-88222131D02*
X185792606Y-88222131D01*
X182935463Y-89269750D02*
X182935463Y-88222131D01*
X182935463Y-88222131D02*
X183030701Y-88031654D01*
X183030701Y-88031654D02*
X183221177Y-87936416D01*
X183221177Y-87936416D02*
X183602130Y-87936416D01*
X183602130Y-87936416D02*
X183792606Y-88031654D01*
X182935463Y-89174512D02*
X183125939Y-89269750D01*
X183125939Y-89269750D02*
X183602130Y-89269750D01*
X183602130Y-89269750D02*
X183792606Y-89174512D01*
X183792606Y-89174512D02*
X183887844Y-88984035D01*
X183887844Y-88984035D02*
X183887844Y-88793559D01*
X183887844Y-88793559D02*
X183792606Y-88603083D01*
X183792606Y-88603083D02*
X183602130Y-88507845D01*
X183602130Y-88507845D02*
X183125939Y-88507845D01*
X183125939Y-88507845D02*
X182935463Y-88412607D01*
X182268796Y-87936416D02*
X181506892Y-87936416D01*
X181983082Y-87269750D02*
X181983082Y-88984035D01*
X181983082Y-88984035D02*
X181887844Y-89174512D01*
X181887844Y-89174512D02*
X181697368Y-89269750D01*
X181697368Y-89269750D02*
X181506892Y-89269750D01*
X181125939Y-87936416D02*
X180364035Y-87936416D01*
X180840225Y-87269750D02*
X180840225Y-88984035D01*
X180840225Y-88984035D02*
X180744987Y-89174512D01*
X180744987Y-89174512D02*
X180554511Y-89269750D01*
X180554511Y-89269750D02*
X180364035Y-89269750D01*
X178935463Y-89174512D02*
X179125939Y-89269750D01*
X179125939Y-89269750D02*
X179506892Y-89269750D01*
X179506892Y-89269750D02*
X179697368Y-89174512D01*
X179697368Y-89174512D02*
X179792606Y-88984035D01*
X179792606Y-88984035D02*
X179792606Y-88222131D01*
X179792606Y-88222131D02*
X179697368Y-88031654D01*
X179697368Y-88031654D02*
X179506892Y-87936416D01*
X179506892Y-87936416D02*
X179125939Y-87936416D01*
X179125939Y-87936416D02*
X178935463Y-88031654D01*
X178935463Y-88031654D02*
X178840225Y-88222131D01*
X178840225Y-88222131D02*
X178840225Y-88412607D01*
X178840225Y-88412607D02*
X179792606Y-88603083D01*
X177983082Y-89269750D02*
X177983082Y-87936416D01*
X177983082Y-88317369D02*
X177887844Y-88126892D01*
X177887844Y-88126892D02*
X177792606Y-88031654D01*
X177792606Y-88031654D02*
X177602130Y-87936416D01*
X177602130Y-87936416D02*
X177411653Y-87936416D01*
X176935463Y-87936416D02*
X176459273Y-89269750D01*
X175983082Y-87936416D02*
X176459273Y-89269750D01*
X176459273Y-89269750D02*
X176649749Y-89745940D01*
X176649749Y-89745940D02*
X176744987Y-89841178D01*
X176744987Y-89841178D02*
X176935463Y-89936416D01*
X189316416Y-92489638D02*
X190459273Y-92489638D01*
X189887845Y-92489638D02*
X189887845Y-90489638D01*
X189887845Y-90489638D02*
X190078321Y-90775352D01*
X190078321Y-90775352D02*
X190268797Y-90965828D01*
X190268797Y-90965828D02*
X190459273Y-91061066D01*
X188649749Y-92489638D02*
X187602130Y-91156304D01*
X188649749Y-91156304D02*
X187602130Y-92489638D01*
X185697368Y-92299161D02*
X185792606Y-92394400D01*
X185792606Y-92394400D02*
X186078320Y-92489638D01*
X186078320Y-92489638D02*
X186268796Y-92489638D01*
X186268796Y-92489638D02*
X186554511Y-92394400D01*
X186554511Y-92394400D02*
X186744987Y-92203923D01*
X186744987Y-92203923D02*
X186840225Y-92013447D01*
X186840225Y-92013447D02*
X186935463Y-91632495D01*
X186935463Y-91632495D02*
X186935463Y-91346780D01*
X186935463Y-91346780D02*
X186840225Y-90965828D01*
X186840225Y-90965828D02*
X186744987Y-90775352D01*
X186744987Y-90775352D02*
X186554511Y-90584876D01*
X186554511Y-90584876D02*
X186268796Y-90489638D01*
X186268796Y-90489638D02*
X186078320Y-90489638D01*
X186078320Y-90489638D02*
X185792606Y-90584876D01*
X185792606Y-90584876D02*
X185697368Y-90680114D01*
X183697368Y-92489638D02*
X184364035Y-91537257D01*
X184840225Y-92489638D02*
X184840225Y-90489638D01*
X184840225Y-90489638D02*
X184078320Y-90489638D01*
X184078320Y-90489638D02*
X183887844Y-90584876D01*
X183887844Y-90584876D02*
X183792606Y-90680114D01*
X183792606Y-90680114D02*
X183697368Y-90870590D01*
X183697368Y-90870590D02*
X183697368Y-91156304D01*
X183697368Y-91156304D02*
X183792606Y-91346780D01*
X183792606Y-91346780D02*
X183887844Y-91442019D01*
X183887844Y-91442019D02*
X184078320Y-91537257D01*
X184078320Y-91537257D02*
X184840225Y-91537257D01*
X182935463Y-90680114D02*
X182840225Y-90584876D01*
X182840225Y-90584876D02*
X182649749Y-90489638D01*
X182649749Y-90489638D02*
X182173558Y-90489638D01*
X182173558Y-90489638D02*
X181983082Y-90584876D01*
X181983082Y-90584876D02*
X181887844Y-90680114D01*
X181887844Y-90680114D02*
X181792606Y-90870590D01*
X181792606Y-90870590D02*
X181792606Y-91061066D01*
X181792606Y-91061066D02*
X181887844Y-91346780D01*
X181887844Y-91346780D02*
X183030701Y-92489638D01*
X183030701Y-92489638D02*
X181792606Y-92489638D01*
X180554511Y-90489638D02*
X180364034Y-90489638D01*
X180364034Y-90489638D02*
X180173558Y-90584876D01*
X180173558Y-90584876D02*
X180078320Y-90680114D01*
X180078320Y-90680114D02*
X179983082Y-90870590D01*
X179983082Y-90870590D02*
X179887844Y-91251542D01*
X179887844Y-91251542D02*
X179887844Y-91727733D01*
X179887844Y-91727733D02*
X179983082Y-92108685D01*
X179983082Y-92108685D02*
X180078320Y-92299161D01*
X180078320Y-92299161D02*
X180173558Y-92394400D01*
X180173558Y-92394400D02*
X180364034Y-92489638D01*
X180364034Y-92489638D02*
X180554511Y-92489638D01*
X180554511Y-92489638D02*
X180744987Y-92394400D01*
X180744987Y-92394400D02*
X180840225Y-92299161D01*
X180840225Y-92299161D02*
X180935463Y-92108685D01*
X180935463Y-92108685D02*
X181030701Y-91727733D01*
X181030701Y-91727733D02*
X181030701Y-91251542D01*
X181030701Y-91251542D02*
X180935463Y-90870590D01*
X180935463Y-90870590D02*
X180840225Y-90680114D01*
X180840225Y-90680114D02*
X180744987Y-90584876D01*
X180744987Y-90584876D02*
X180554511Y-90489638D01*
X179221177Y-90489638D02*
X177983082Y-90489638D01*
X177983082Y-90489638D02*
X178649749Y-91251542D01*
X178649749Y-91251542D02*
X178364034Y-91251542D01*
X178364034Y-91251542D02*
X178173558Y-91346780D01*
X178173558Y-91346780D02*
X178078320Y-91442019D01*
X178078320Y-91442019D02*
X177983082Y-91632495D01*
X177983082Y-91632495D02*
X177983082Y-92108685D01*
X177983082Y-92108685D02*
X178078320Y-92299161D01*
X178078320Y-92299161D02*
X178173558Y-92394400D01*
X178173558Y-92394400D02*
X178364034Y-92489638D01*
X178364034Y-92489638D02*
X178935463Y-92489638D01*
X178935463Y-92489638D02*
X179125939Y-92394400D01*
X179125939Y-92394400D02*
X179221177Y-92299161D01*
X177221177Y-90680114D02*
X177125939Y-90584876D01*
X177125939Y-90584876D02*
X176935463Y-90489638D01*
X176935463Y-90489638D02*
X176459272Y-90489638D01*
X176459272Y-90489638D02*
X176268796Y-90584876D01*
X176268796Y-90584876D02*
X176173558Y-90680114D01*
X176173558Y-90680114D02*
X176078320Y-90870590D01*
X176078320Y-90870590D02*
X176078320Y-91061066D01*
X176078320Y-91061066D02*
X176173558Y-91346780D01*
X176173558Y-91346780D02*
X177316415Y-92489638D01*
X177316415Y-92489638D02*
X176078320Y-92489638D01*
D11*
X54233819Y-56460839D02*
X54948104Y-56460839D01*
X54948104Y-56460839D02*
X55090961Y-56413220D01*
X55090961Y-56413220D02*
X55186200Y-56317982D01*
X55186200Y-56317982D02*
X55233819Y-56175125D01*
X55233819Y-56175125D02*
X55233819Y-56079887D01*
X55233819Y-57460839D02*
X55233819Y-56889411D01*
X55233819Y-57175125D02*
X54233819Y-57175125D01*
X54233819Y-57175125D02*
X54376676Y-57079887D01*
X54376676Y-57079887D02*
X54471914Y-56984649D01*
X54471914Y-56984649D02*
X54519533Y-56889411D01*
%TO.C,J3*%
D12*
X177477000Y-71936500D02*
G75*
G02*
X177223000Y-71936500I-127000J0D01*
G01*
X177223000Y-71936500D02*
G75*
G02*
X177477000Y-71936500I127000J0D01*
G01*
%TO.C,J4*%
X167317000Y-72016700D02*
G75*
G02*
X167063000Y-72016700I-127000J0D01*
G01*
X167063000Y-72016700D02*
G75*
G02*
X167317000Y-72016700I127000J0D01*
G01*
%TO.C,BT1*%
D13*
X162650000Y-93237500D02*
X162650000Y-114137500D01*
X162650000Y-93237500D02*
X167150000Y-93237500D01*
X162650000Y-114137500D02*
X164450000Y-115937500D01*
X164450000Y-115937500D02*
X167150000Y-115937500D01*
X165000000Y-116587500D02*
X165000000Y-118587500D01*
X166000000Y-117587500D02*
X164000000Y-117587500D01*
X167150000Y-90037500D02*
X168700000Y-90037500D01*
X167150000Y-93237500D02*
X167150000Y-90037500D01*
X167150000Y-115937500D02*
X167150000Y-119137500D01*
X167150000Y-119137500D02*
X168700000Y-119137500D01*
X174850000Y-90037500D02*
X173300000Y-90037500D01*
X174850000Y-93237500D02*
X174850000Y-90037500D01*
X174850000Y-115937500D02*
X174850000Y-119137500D01*
X174850000Y-119137500D02*
X173300000Y-119137500D01*
X179350000Y-93237500D02*
X174850000Y-93237500D01*
X179350000Y-115937500D02*
X174850000Y-115937500D01*
X179350000Y-115937500D02*
X179350000Y-93237500D01*
%TO.C,J1*%
D14*
X56025800Y-58785000D02*
X64716209Y-58785000D01*
X56025800Y-61142369D02*
X56025800Y-58785000D01*
X56025800Y-63682369D02*
X56025800Y-62777631D01*
X56025800Y-67675000D02*
X56025800Y-65317631D01*
X64716209Y-67675000D02*
X56025800Y-67675000D01*
X66283791Y-58785000D02*
X69868800Y-58785000D01*
X69868800Y-58785000D02*
X69868800Y-67675000D01*
X69868800Y-67675000D02*
X66283791Y-67675000D01*
D12*
X57245000Y-68564000D02*
G75*
G02*
X56483000Y-68564000I-381000J0D01*
G01*
X56483000Y-68564000D02*
G75*
G02*
X57245000Y-68564000I381000J0D01*
G01*
%TD*%
M02*
