%TF.GenerationSoftware,KiCad,Pcbnew,10.0.5*%
%TF.CreationDate,2026-09-16T00:16:12+02:00*%
%TF.ProjectId,DigiFur-Rev1.0,44696769-4675-4722-9d52-6576312e302e,rev?*%
%TF.SameCoordinates,Original*%
%TF.FileFunction,Profile,NP*%
%FSLAX46Y46*%
G04 Gerber Fmt 4.6, Leading zero omitted, Abs format (unit mm)*
G04 Created by KiCad (PCBNEW 10.0.5) date 2026-09-16 00:16:12*
%MOMM*%
%LPD*%
G01*
G04 APERTURE LIST*
%TA.AperFunction,Profile*%
%ADD10C,0.050000*%
%TD*%
G04 APERTURE END LIST*
D10*
X46000000Y-55000000D02*
X49500000Y-55000000D01*
X46000000Y-125000000D02*
X46000000Y-55000000D01*
X46000000Y-125000000D02*
X49500000Y-125000000D01*
X49500000Y-125000000D02*
G75*
G02*
X50000000Y-125500000I0J-500000D01*
G01*
X50000000Y-50000000D02*
X50000000Y-54500000D01*
X50000000Y-50000000D02*
X117500000Y-50000000D01*
X50000000Y-54500000D02*
G75*
G02*
X49500000Y-55000000I-500000J0D01*
G01*
X50000000Y-130000000D02*
X50000000Y-125500000D01*
X117500000Y-54750000D02*
X117500000Y-50000000D01*
X132500000Y-50000000D02*
X132500000Y-54750000D01*
X132500000Y-54750000D02*
X117500000Y-54750000D01*
X200000000Y-50000000D02*
X132500000Y-50000000D01*
X200000000Y-50000000D02*
X200000000Y-54500000D01*
X200000000Y-125500000D02*
G75*
G02*
X200500000Y-125000000I500000J0D01*
G01*
X200000000Y-130000000D02*
X50000000Y-130000000D01*
X200000000Y-130000000D02*
X200000000Y-125500000D01*
X200500000Y-55000000D02*
G75*
G02*
X200000000Y-54500000I0J500000D01*
G01*
X200500000Y-55000000D02*
X204000000Y-55000000D01*
X200500000Y-125000000D02*
X204000000Y-125000000D01*
X204000000Y-55000000D02*
X204000000Y-125000000D01*
M02*
