M48
; DRILL file KiCad 10.0.5 date 2026-09-16T00:16:25
; FORMAT={-:-/ absolute / metric / decimal}
; #@! TF.CreationDate,2026-09-16T00:16:25+02:00
; #@! TF.GenerationSoftware,Kicad,Pcbnew,10.0.5
; #@! TF.FileFunction,Plated,1,4,PTH
FMAT,2
METRIC
; #@! TA.AperFunction,Plated,PTH,ViaDrill
T1C0.200
; #@! TA.AperFunction,Plated,PTH,ComponentDrill
T2C0.200
; #@! TA.AperFunction,Plated,PTH,ViaDrill
T3C0.300
; #@! TA.AperFunction,Plated,PTH,ViaDrill
T4C0.400
; #@! TA.AperFunction,Plated,PTH,ViaDrill
T5C0.500
; #@! TA.AperFunction,Plated,PTH,ComponentDrill
T6C1.000
; #@! TA.AperFunction,Plated,PTH,ComponentDrill
T7C1.168
; #@! TA.AperFunction,Plated,PTH,ComponentDrill
T8C1.200
; #@! TA.AperFunction,Plated,PTH,ComponentDrill
T9C1.500
%
G90
G05
T1
X170.088Y-69.587
X170.088Y-70.287
X170.438Y-69.938
X170.787Y-69.587
X170.787Y-70.287
T2
X94.25Y-72.9
X94.25Y-73.6
X94.25Y-87.9
X94.25Y-88.6
X94.25Y-102.9
X94.25Y-103.6
X94.25Y-117.9
X94.25Y-118.6
X95.0Y-72.9
X95.0Y-73.6
X95.0Y-87.9
X95.0Y-88.6
X95.0Y-102.9
X95.0Y-103.6
X95.0Y-117.9
X95.0Y-118.6
X95.75Y-72.9
X95.75Y-73.6
X95.75Y-87.9
X95.75Y-88.6
X95.75Y-102.9
X95.75Y-103.6
X95.75Y-117.9
X95.75Y-118.6
T3
X76.0Y-110.3
X95.0Y-69.75
X95.0Y-70.5
X95.0Y-84.75
X95.0Y-85.5
X95.0Y-99.75
X95.0Y-100.5
X95.0Y-114.75
X95.0Y-115.5
X111.05Y-112.0
X111.05Y-112.75
X111.05Y-114.25
X113.25Y-111.5
X119.275Y-109.25
X119.275Y-112.25
X119.275Y-114.5
X121.475Y-110.75
X121.475Y-112.25
X121.475Y-114.5
X169.062Y-67.8
X169.5Y-66.5
X169.5Y-67.25
X169.938Y-67.8
X176.0Y-66.5
X176.0Y-67.25
T4
X71.5Y-84.92
X71.5Y-92.54
X71.5Y-100.16
X75.138Y-116.4
X77.0Y-68.912
X77.25Y-70.5
X78.0Y-108.0
X78.587Y-110.3
X78.75Y-120.0
X80.475Y-120.0
X81.5Y-84.92
X81.5Y-100.16
X83.0Y-92.5
X83.175Y-67.05
X85.0Y-68.862
X90.5Y-68.75
X90.5Y-72.25
X90.5Y-75.75
X90.5Y-83.75
X90.5Y-87.25
X90.5Y-90.75
X90.5Y-98.75
X90.5Y-102.25
X90.5Y-105.75
X90.5Y-113.75
X90.5Y-117.25
X90.5Y-120.75
X91.25Y-68.75
X91.25Y-72.25
X91.25Y-75.75
X91.25Y-83.75
X91.25Y-87.25
X91.25Y-90.75
X91.25Y-98.75
X91.25Y-102.25
X91.25Y-105.75
X91.25Y-113.75
X91.25Y-117.25
X91.25Y-120.75
X92.0Y-68.75
X92.0Y-72.25
X92.0Y-75.75
X92.0Y-83.75
X92.0Y-87.25
X92.0Y-90.75
X92.0Y-98.75
X92.0Y-102.25
X92.0Y-105.75
X92.0Y-113.75
X92.0Y-117.25
X92.0Y-120.75
X93.25Y-75.25
X93.25Y-90.25
X93.25Y-105.25
X93.25Y-120.25
X95.75Y-54.75
X96.5Y-54.75
X96.8Y-74.862
X96.8Y-89.862
X96.8Y-104.862
X96.8Y-119.862
X97.25Y-54.75
X97.25Y-60.912
X98.0Y-54.75
X98.0Y-68.75
X98.0Y-72.25
X98.0Y-83.75
X98.0Y-87.25
X98.0Y-98.75
X98.0Y-102.25
X98.0Y-113.75
X98.0Y-117.25
X98.75Y-68.75
X98.75Y-72.25
X98.75Y-83.75
X98.75Y-87.25
X98.75Y-98.75
X98.75Y-102.25
X98.75Y-113.75
X98.75Y-117.25
X99.0Y-75.75
X99.0Y-77.25
X99.0Y-90.75
X99.0Y-92.25
X99.0Y-105.75
X99.0Y-107.25
X99.0Y-120.75
X99.0Y-122.25
X99.5Y-68.75
X99.5Y-72.25
X99.5Y-83.75
X99.5Y-87.25
X99.5Y-98.75
X99.5Y-102.25
X99.5Y-113.75
X99.5Y-117.25
X100.5Y-74.862
X100.5Y-89.862
X100.5Y-104.862
X100.5Y-119.862
X102.0Y-60.912
X102.5Y-74.5
X102.5Y-79.5
X102.5Y-84.5
X103.75Y-72.25
X103.75Y-77.25
X103.75Y-82.25
X103.75Y-87.25
X105.95Y-62.0
X107.0Y-96.932
X107.0Y-98.608
X108.0Y-105.0
X108.49Y-62.0
X108.85Y-67.45
X109.5Y-105.0
X109.65Y-75.0
X109.65Y-85.0
X110.25Y-119.5
X110.25Y-120.25
X110.25Y-121.0
X111.03Y-62.0
X111.25Y-125.25
X112.19Y-75.0
X112.75Y-60.25
X112.75Y-61.75
X112.75Y-125.25
X113.087Y-66.5
X113.5Y-94.285
X113.75Y-119.5
X113.75Y-121.0
X114.0Y-117.825
X114.0Y-128.175
X114.73Y-75.0
X114.73Y-85.0
X116.25Y-117.825
X116.25Y-128.175
X116.5Y-68.75
X116.75Y-61.75
X117.0Y-104.445
X117.25Y-61.0
X117.27Y-75.0
X117.27Y-85.0
X117.75Y-61.75
X118.0Y-103.175
X118.25Y-61.0
X118.25Y-67.4
X118.5Y-63.25
X118.75Y-61.75
X119.015Y-106.985
X119.25Y-61.0
X119.5Y-96.825
X119.5Y-98.095
X119.75Y-61.75
X120.0Y-69.75
X120.0Y-87.32
X122.35Y-85.0
X122.5Y-103.175
X122.5Y-104.445
X122.5Y-105.715
X123.73Y-61.0
X125.75Y-61.75
X126.0Y-89.0
X126.25Y-61.0
X126.325Y-112.25
X126.325Y-114.75
X126.75Y-61.75
X127.0Y-79.25
X127.0Y-80.0
X127.0Y-80.75
X127.25Y-61.0
X127.5Y-89.0
X127.75Y-61.75
X128.25Y-61.0
X128.5Y-100.5
X128.5Y-105.1
X128.5Y-107.64
X128.75Y-61.75
X129.25Y-61.0
X130.0Y-128.625
X130.75Y-79.25
X130.75Y-80.0
X130.75Y-80.75
X135.0Y-114.51
X135.0Y-115.26
X135.0Y-116.01
X135.0Y-126.5
X155.0Y-106.89
X155.0Y-107.64
X155.0Y-114.51
X155.0Y-115.26
X155.0Y-116.01
X159.0Y-78.95
X159.0Y-79.7
X159.0Y-80.45
X159.0Y-106.885
X159.0Y-107.635
X167.52Y-104.5
X167.52Y-105.5
X169.02Y-113.0
X170.5Y-64.25
X172.0Y-64.25
X173.5Y-64.25
X175.0Y-64.25
X176.25Y-68.5
X176.25Y-70.0
X178.75Y-68.4
T5
X169.02Y-117.0
X171.0Y-92.087
X173.27Y-117.0
T6
X84.36Y-124.83
X86.9Y-124.83
X100.87Y-56.0
X103.41Y-56.0
X105.95Y-56.0
X108.49Y-53.46
X108.49Y-56.0
X111.03Y-53.46
X111.03Y-56.0
X113.57Y-53.46
X113.57Y-56.0
X116.11Y-56.0
X118.65Y-56.0
X121.19Y-56.0
X123.73Y-56.0
X126.27Y-56.0
X128.81Y-56.0
X131.35Y-56.0
X133.89Y-56.0
X136.43Y-56.0
X138.97Y-56.0
X141.51Y-56.0
X144.05Y-56.0
X146.59Y-56.0
X149.13Y-56.0
X163.1Y-124.83
X165.64Y-124.83
T7
X56.864Y-61.96
X56.864Y-64.5
X164.65Y-73.668
X167.19Y-73.668
X174.81Y-73.587
X177.35Y-73.587
T8
X56.0Y-83.725
X56.0Y-96.225
X61.0Y-83.725
X61.0Y-96.225
X187.25Y-63.5
X187.25Y-68.5
X187.25Y-79.5
X187.25Y-84.5
X187.25Y-95.5
X187.25Y-100.5
X187.25Y-111.5
X187.25Y-116.5
X199.75Y-63.5
X199.75Y-68.5
X199.75Y-79.5
X199.75Y-84.5
X199.75Y-95.5
X199.75Y-100.5
X199.75Y-111.5
X199.75Y-116.5
T9
X61.04Y-86.19
X63.58Y-92.54
M30
