%TF.GenerationSoftware,KiCad,Pcbnew,10.0.5*%
%TF.CreationDate,2026-09-16T00:16:12+02:00*%
%TF.ProjectId,DigiFur-Rev1.0,44696769-4675-4722-9d52-6576312e302e,rev?*%
%TF.SameCoordinates,Original*%
%TF.FileFunction,Copper,L4,Bot*%
%TF.FilePolarity,Positive*%
%FSLAX46Y46*%
G04 Gerber Fmt 4.6, Leading zero omitted, Abs format (unit mm)*
G04 Created by KiCad (PCBNEW 10.0.5) date 2026-09-16 00:16:12*
%MOMM*%
%LPD*%
G01*
G04 APERTURE LIST*
%TA.AperFunction,ComponentPad*%
%ADD10R,1.700000X1.700000*%
%TD*%
%TA.AperFunction,ComponentPad*%
%ADD11C,1.700000*%
%TD*%
%TA.AperFunction,ComponentPad*%
%ADD12C,2.200000*%
%TD*%
%TA.AperFunction,ComponentPad*%
%ADD13C,1.676400*%
%TD*%
%TA.AperFunction,ComponentPad*%
%ADD14O,2.500000X3.000000*%
%TD*%
%TA.AperFunction,HeatsinkPad*%
%ADD15C,0.500000*%
%TD*%
%TA.AperFunction,HeatsinkPad*%
%ADD16R,2.000000X1.200000*%
%TD*%
%TA.AperFunction,ComponentPad*%
%ADD17O,3.000000X2.500000*%
%TD*%
%TA.AperFunction,ComponentPad*%
%ADD18C,1.800000*%
%TD*%
%TA.AperFunction,SMDPad,CuDef*%
%ADD19R,3.600000X2.600000*%
%TD*%
%TA.AperFunction,ViaPad*%
%ADD20C,0.800000*%
%TD*%
%TA.AperFunction,ViaPad*%
%ADD21C,0.600000*%
%TD*%
%TA.AperFunction,ViaPad*%
%ADD22C,0.500000*%
%TD*%
%TA.AperFunction,ViaPad*%
%ADD23C,1.000000*%
%TD*%
%TA.AperFunction,Conductor*%
%ADD24C,2.000000*%
%TD*%
%TA.AperFunction,Conductor*%
%ADD25C,1.000000*%
%TD*%
%TA.AperFunction,Conductor*%
%ADD26C,0.750000*%
%TD*%
%TA.AperFunction,Conductor*%
%ADD27C,1.500000*%
%TD*%
%TA.AperFunction,Conductor*%
%ADD28C,0.800000*%
%TD*%
%TA.AperFunction,Conductor*%
%ADD29C,0.250000*%
%TD*%
%TA.AperFunction,Conductor*%
%ADD30C,0.500000*%
%TD*%
G04 APERTURE END LIST*
D10*
%TO.P,JP1,1,A_1*%
%TO.N,Net-(JP1-A)*%
X108490000Y-53460000D03*
D11*
%TO.P,JP1,2,C_2*%
%TO.N,LCD_LEDA*%
X111030000Y-53460000D03*
%TO.P,JP1,3,B_3*%
%TO.N,+3.3V_PERIPH*%
X113570000Y-53460000D03*
%TD*%
D12*
%TO.P,SW5,1,1_1*%
%TO.N,Net-(U3-GPB5)*%
X63580000Y-92540000D03*
%TO.P,SW5,2,2_2*%
%TO.N,GND*%
X61040000Y-86190000D03*
%TD*%
D13*
%TO.P,J3,1,Pin_1_1*%
%TO.N,Net-(J3-Pin_1)*%
X177350000Y-73587500D03*
%TO.P,J3,2,Pin_2_2*%
%TO.N,GND*%
X174810000Y-73587500D03*
%TD*%
D14*
%TO.P,SW6,1,1_1*%
%TO.N,Net-(U3-GPB5)*%
X56000000Y-96225000D03*
X56000000Y-83725000D03*
%TO.P,SW6,2,2_2*%
%TO.N,GND*%
X61000000Y-96225000D03*
X61000000Y-83725000D03*
%TD*%
D15*
%TO.P,U15,11,GND_11*%
%TO.N,GND*%
X94250000Y-73600000D03*
X95000000Y-73600000D03*
X95750000Y-73600000D03*
D16*
X95000000Y-73250000D03*
D15*
X94250000Y-72900000D03*
X95000000Y-72900000D03*
X95750000Y-72900000D03*
%TD*%
D17*
%TO.P,SW3,1,1_1*%
%TO.N,Net-(U3-GPB3)*%
X187250000Y-79500000D03*
X199750000Y-79500000D03*
%TO.P,SW3,2,2_2*%
%TO.N,GND*%
X187250000Y-84500000D03*
X199750000Y-84500000D03*
%TD*%
D13*
%TO.P,J4,1,Pin_1_1*%
%TO.N,Net-(J4-Pin_1)*%
X167190000Y-73667700D03*
%TO.P,J4,2,Pin_2_2*%
%TO.N,Net-(J4-Pin_2)*%
X164650000Y-73667700D03*
%TD*%
D17*
%TO.P,SW1,1,1_1*%
%TO.N,Net-(U3-GPB1)*%
X187250000Y-111500000D03*
X199750000Y-111500000D03*
%TO.P,SW1,2,2_2*%
%TO.N,GND*%
X187250000Y-116500000D03*
X199750000Y-116500000D03*
%TD*%
%TO.P,SW2,1,1_1*%
%TO.N,Net-(U3-GPB2)*%
X187250000Y-95500000D03*
X199750000Y-95500000D03*
%TO.P,SW2,2,2_2*%
%TO.N,GND*%
X187250000Y-100500000D03*
X199750000Y-100500000D03*
%TD*%
D15*
%TO.P,U13,11,GND_11*%
%TO.N,GND*%
X94250000Y-103600000D03*
X95000000Y-103600000D03*
X95750000Y-103600000D03*
D16*
X95000000Y-103250000D03*
D15*
X94250000Y-102900000D03*
X95000000Y-102900000D03*
X95750000Y-102900000D03*
%TD*%
D17*
%TO.P,SW4,1,1_1*%
%TO.N,Net-(U3-GPB4)*%
X187250000Y-63500000D03*
X199750000Y-63500000D03*
%TO.P,SW4,2,2_2*%
%TO.N,GND*%
X187250000Y-68500000D03*
X199750000Y-68500000D03*
%TD*%
D15*
%TO.P,U14,11,GND_11*%
%TO.N,GND*%
X94250000Y-88600000D03*
X95000000Y-88600000D03*
X95750000Y-88600000D03*
D16*
X95000000Y-88250000D03*
D15*
X94250000Y-87900000D03*
X95000000Y-87900000D03*
X95750000Y-87900000D03*
%TD*%
%TO.P,U12,11,GND_11*%
%TO.N,GND*%
X94250000Y-118600000D03*
X95000000Y-118600000D03*
X95750000Y-118600000D03*
D16*
X95000000Y-118250000D03*
D15*
X94250000Y-117900000D03*
X95000000Y-117900000D03*
X95750000Y-117900000D03*
%TD*%
D18*
%TO.P,U9,*%
%TO.N,*%
X84360000Y-124830000D03*
X86900000Y-124830000D03*
X163100000Y-124830000D03*
X165640000Y-124830000D03*
%TO.P,U9,1,ROM_IN_1*%
%TO.N,Net-(U9-ROM_IN)*%
X100870000Y-56000000D03*
%TO.P,U9,2,ROM_OUT_2*%
%TO.N,unconnected-(U9-ROM_OUT-Pad2)*%
X103410000Y-56000000D03*
%TO.P,U9,3,ROM_SCK_3*%
%TO.N,Net-(U9-ROM_SCK)*%
X105950000Y-56000000D03*
%TO.P,U9,4,ROM_~{CS}_4*%
%TO.N,Net-(U9-ROM_~{CS})*%
X108490000Y-56000000D03*
%TO.P,U9,5,LEDA_5*%
%TO.N,LCD_LEDA*%
X111030000Y-56000000D03*
%TO.P,U9,6,VSS_6*%
%TO.N,GND*%
X113570000Y-56000000D03*
%TO.P,U9,7,VDD_7*%
%TO.N,+3.3V_MCU*%
X116110000Y-56000000D03*
%TO.P,U9,8,A0(RS)_8*%
%TO.N,LCD_D{slash}~{C}*%
X118650000Y-56000000D03*
%TO.P,U9,9,~{RST}_9*%
%TO.N,LCD_~{RST}*%
X121190000Y-56000000D03*
%TO.P,U9,10,~{CS}_10*%
%TO.N,SPI_~{CS}_LCD*%
X123730000Y-56000000D03*
%TO.P,U9,11,VDD_11*%
%TO.N,+3.3V_MCU*%
X126270000Y-56000000D03*
%TO.P,U9,12,VDD_12*%
X128810000Y-56000000D03*
%TO.P,U9,13,VDD_13*%
X131350000Y-56000000D03*
%TO.P,U9,14,VDD_14*%
X133890000Y-56000000D03*
%TO.P,U9,15,SDA_15*%
%TO.N,SPI_MOSI*%
X136430000Y-56000000D03*
%TO.P,U9,16,SDA_16*%
X138970000Y-56000000D03*
%TO.P,U9,17,SDA_17*%
X141510000Y-56000000D03*
%TO.P,U9,18,SCK_18*%
%TO.N,SPI_CLK*%
X144050000Y-56000000D03*
%TO.P,U9,19,VDD_19*%
%TO.N,+3.3V_MCU*%
X146590000Y-56000000D03*
%TO.P,U9,20,VDD_20*%
X149130000Y-56000000D03*
%TD*%
D19*
%TO.P,BT1,1,+_1*%
%TO.N,Net-(BT1-+)*%
X171000000Y-119237500D03*
%TO.P,BT1,2,-_2*%
%TO.N,GND*%
X171000000Y-89937500D03*
%TD*%
D13*
%TO.P,J1,1,Pin_1_1*%
%TO.N,VBAT*%
X56864000Y-64500000D03*
%TO.P,J1,2,Pin_2_2*%
%TO.N,GND*%
X56864000Y-61960000D03*
%TD*%
D20*
%TO.N,VBAT*%
X91250000Y-117250000D03*
X93250000Y-90250000D03*
X92000000Y-102250000D03*
X78750000Y-120000000D03*
X92000000Y-72250000D03*
X85000000Y-68862500D03*
X91250000Y-72250000D03*
X92000000Y-87250000D03*
X71500000Y-92540000D03*
X91250000Y-87250000D03*
X90500000Y-117250000D03*
X90500000Y-72250000D03*
X93250000Y-105250000D03*
X77000000Y-68912500D03*
X83000000Y-92500000D03*
X93250000Y-75250000D03*
X90500000Y-87250000D03*
X90500000Y-102250000D03*
X91250000Y-102250000D03*
X93250000Y-120250000D03*
X92000000Y-117250000D03*
%TO.N,GND*%
X100500000Y-104862500D03*
D21*
X95000000Y-115500000D03*
D22*
X170087500Y-70287500D03*
D20*
X99000000Y-105750000D03*
X126325000Y-114750000D03*
D22*
X170437500Y-69937500D03*
X170087500Y-69587500D03*
D20*
X81500000Y-84920000D03*
X112750000Y-60250000D03*
D23*
X171000000Y-92087500D03*
D20*
X118500000Y-63250000D03*
X96800000Y-89862500D03*
D21*
X119275000Y-112250000D03*
D20*
X155000000Y-107640000D03*
X78587500Y-110300000D03*
X98000000Y-113750000D03*
X91250000Y-98750000D03*
X100500000Y-74862500D03*
X122350000Y-85000000D03*
X90500000Y-83750000D03*
X167520000Y-105500000D03*
D22*
X170787500Y-70287500D03*
D20*
X159000000Y-107635000D03*
X97250000Y-60912500D03*
X159000000Y-106885000D03*
X167520000Y-104500000D03*
X127000000Y-80000000D03*
X99500000Y-98750000D03*
X114000000Y-128175000D03*
X90500000Y-113750000D03*
X176250000Y-70000000D03*
X91250000Y-113750000D03*
X116500000Y-68750000D03*
X170500000Y-64250000D03*
X75137500Y-116400000D03*
X98750000Y-68750000D03*
X90500000Y-75750000D03*
X81500000Y-100160000D03*
X92000000Y-113750000D03*
X96800000Y-74862500D03*
X155000000Y-106890000D03*
X91250000Y-105750000D03*
X90500000Y-120750000D03*
X80475000Y-120000000D03*
X109500000Y-105000000D03*
D21*
X95000000Y-84750000D03*
D20*
X105950000Y-62000000D03*
X159000000Y-79700000D03*
X98000000Y-83750000D03*
X92000000Y-105750000D03*
X92000000Y-98750000D03*
X77250000Y-70500000D03*
D21*
X95000000Y-99750000D03*
D20*
X108850000Y-67450000D03*
X98000000Y-68750000D03*
X169020000Y-113000000D03*
X99000000Y-107250000D03*
X114000000Y-117825000D03*
X155000000Y-115260000D03*
X91250000Y-90750000D03*
X92000000Y-68750000D03*
X99500000Y-68750000D03*
X119500000Y-96825000D03*
X108490000Y-62000000D03*
X92000000Y-90750000D03*
X159000000Y-78950000D03*
D21*
X95000000Y-69750000D03*
D20*
X112750000Y-125250000D03*
X99000000Y-120750000D03*
X127000000Y-80750000D03*
X91250000Y-75750000D03*
X99000000Y-75750000D03*
X172000000Y-64250000D03*
X90500000Y-98750000D03*
X98000000Y-98750000D03*
X135000000Y-114510000D03*
X71500000Y-100160000D03*
D21*
X119275000Y-109250000D03*
D20*
X92000000Y-75750000D03*
X71500000Y-84920000D03*
X90500000Y-105750000D03*
X91250000Y-120750000D03*
D21*
X95000000Y-114750000D03*
D20*
X135000000Y-115260000D03*
X108000000Y-105000000D03*
X114730000Y-75000000D03*
X100500000Y-119862500D03*
X99000000Y-90750000D03*
X92000000Y-83750000D03*
D21*
X95000000Y-70500000D03*
D20*
X112750000Y-61750000D03*
X99000000Y-77250000D03*
X111030000Y-62000000D03*
X116250000Y-117825000D03*
D21*
X95000000Y-100500000D03*
D20*
X92000000Y-120750000D03*
D21*
X76000000Y-110300000D03*
D20*
X175000000Y-64250000D03*
D21*
X119275000Y-114500000D03*
D20*
X135000000Y-116010000D03*
X98750000Y-113750000D03*
X116250000Y-128175000D03*
D22*
X170787500Y-69587500D03*
D20*
X114730000Y-85000000D03*
X99500000Y-83750000D03*
X98750000Y-98750000D03*
X96800000Y-119862500D03*
X113750000Y-121000000D03*
X98750000Y-83750000D03*
X102000000Y-60912500D03*
X155000000Y-116010000D03*
X83175000Y-67050000D03*
X130000000Y-128625000D03*
X126325000Y-112250000D03*
X173500000Y-64250000D03*
X111250000Y-125250000D03*
X90500000Y-90750000D03*
X99000000Y-122250000D03*
X113750000Y-119500000D03*
X91250000Y-68750000D03*
X159000000Y-80450000D03*
X100500000Y-89862500D03*
X90500000Y-68750000D03*
X96800000Y-104862500D03*
X99000000Y-92250000D03*
X127000000Y-79250000D03*
D21*
X95000000Y-85500000D03*
D20*
X107000000Y-98607500D03*
X99500000Y-113750000D03*
X155000000Y-114510000D03*
X91250000Y-83750000D03*
%TO.N,+3.3V_PERIPH*%
X95750000Y-54750000D03*
D21*
X113250000Y-111500000D03*
X169937500Y-67800000D03*
X176000000Y-67250000D03*
D20*
X110250000Y-120250000D03*
X96500000Y-54750000D03*
X103750000Y-87250000D03*
D21*
X169500000Y-66500000D03*
D20*
X102500000Y-84500000D03*
X98000000Y-54750000D03*
X102500000Y-79500000D03*
X110250000Y-119500000D03*
X99500000Y-72250000D03*
D21*
X169500000Y-67250000D03*
D20*
X98750000Y-87250000D03*
X98000000Y-72250000D03*
X103750000Y-82250000D03*
X97250000Y-54750000D03*
X103750000Y-77250000D03*
D21*
X169062500Y-67800000D03*
X176000000Y-66500000D03*
D20*
X98750000Y-72250000D03*
X98000000Y-87250000D03*
X99500000Y-87250000D03*
X103750000Y-72250000D03*
X110250000Y-121000000D03*
X102500000Y-74500000D03*
%TO.N,+3.3V_MCU*%
X98000000Y-102250000D03*
X99500000Y-117250000D03*
X126000000Y-89000000D03*
X130750000Y-79250000D03*
X129250000Y-61000000D03*
X113087500Y-66500000D03*
X178750000Y-68400000D03*
X117270000Y-75000000D03*
X109650000Y-75000000D03*
X128250000Y-61000000D03*
X119250000Y-61000000D03*
X128750000Y-61750000D03*
X109650000Y-85000000D03*
X117250000Y-61000000D03*
D23*
X173270000Y-117000000D03*
D20*
X130750000Y-80750000D03*
X119500000Y-98095000D03*
X98750000Y-117250000D03*
X119750000Y-61750000D03*
X118250000Y-61000000D03*
X127500000Y-89000000D03*
X117750000Y-61750000D03*
X130750000Y-80000000D03*
X118750000Y-61750000D03*
X126250000Y-61000000D03*
X126750000Y-61750000D03*
X107000000Y-96932500D03*
X125750000Y-61750000D03*
X98000000Y-117250000D03*
X116750000Y-61750000D03*
X98750000Y-102250000D03*
X127750000Y-61750000D03*
X127250000Y-61000000D03*
X117270000Y-85000000D03*
X99500000Y-102250000D03*
D21*
%TO.N,+3.3V_SD*%
X121475000Y-110750000D03*
X121475000Y-112250000D03*
X121475000Y-114500000D03*
X111050000Y-112000000D03*
X111050000Y-112750000D03*
X111050000Y-114250000D03*
D20*
%TO.N,/MCU/~{INT}*%
X120000000Y-87320000D03*
X120000000Y-69750000D03*
%TO.N,GPIO_EXP_A2*%
X112190000Y-75000000D03*
X113500000Y-94285000D03*
%TO.N,BAT_MON_ADC*%
X78000000Y-108000000D03*
X135000000Y-126500000D03*
%TO.N,SPI_CLK*%
X128500000Y-105100000D03*
%TO.N,SPI_MOSI*%
X128500000Y-107640000D03*
%TO.N,SPI_~{CS}_LCD*%
X123730000Y-61000000D03*
%TO.N,/MCU/MCU_SLEEP_REQ*%
X117000000Y-104445000D03*
X118250000Y-67400000D03*
%TO.N,Net-(U3-GPB3)*%
X122500000Y-104445000D03*
%TO.N,Net-(U3-GPB1)*%
X119015000Y-106985000D03*
%TO.N,SPK_EN*%
X176250000Y-68500000D03*
X128500000Y-100500000D03*
%TO.N,Net-(U3-GPB2)*%
X122500000Y-105715000D03*
%TO.N,Net-(U3-GPB4)*%
X122500000Y-103175000D03*
D23*
%TO.N,Net-(BT1-+)*%
X169020000Y-117000000D03*
D20*
%TO.N,LCD_~{RST}*%
X118000000Y-103175000D03*
%TD*%
%TO.N,GND*%
D24*
X61000000Y-83725000D02*
X61000000Y-86150000D01*
X61000000Y-86150000D02*
X61040000Y-86190000D01*
D25*
X171000000Y-89937500D02*
X171000000Y-92087500D01*
%TO.N,+3.3V_PERIPH*%
D26*
X113250000Y-110750000D02*
X112500000Y-110000000D01*
X112500000Y-110000000D02*
X104000000Y-110000000D01*
X113250000Y-111500000D02*
X113250000Y-110750000D01*
%TO.N,+3.3V_MCU*%
D27*
X135000000Y-54000000D02*
X133890000Y-55110000D01*
X133890000Y-55110000D02*
X133890000Y-56000000D01*
X146590000Y-56000000D02*
X149130000Y-56000000D01*
D28*
X149130000Y-56000000D02*
X165000000Y-56000000D01*
X177000000Y-61000000D02*
X178750000Y-62750000D01*
D27*
X146590000Y-56000000D02*
X146590000Y-55090000D01*
X145500000Y-54000000D02*
X135000000Y-54000000D01*
X146590000Y-55090000D02*
X145500000Y-54000000D01*
D28*
X170000000Y-61000000D02*
X177000000Y-61000000D01*
X165000000Y-56000000D02*
X170000000Y-61000000D01*
X178750000Y-62750000D02*
X178750000Y-68400000D01*
%TO.N,/MCU/~{INT}*%
D29*
X120000000Y-69750000D02*
X120000000Y-87320000D01*
%TO.N,GPIO_EXP_A2*%
X112190000Y-75000000D02*
X112190000Y-92975000D01*
X112190000Y-92975000D02*
X113500000Y-94285000D01*
%TO.N,BAT_MON_ADC*%
D30*
X77250000Y-121250000D02*
X82500000Y-126500000D01*
X78000000Y-108000000D02*
X77250000Y-108750000D01*
X82500000Y-126500000D02*
X135000000Y-126500000D01*
X77250000Y-108750000D02*
X77250000Y-121250000D01*
%TO.N,SPI_CLK*%
D29*
X136750000Y-57500000D02*
X124750000Y-69500000D01*
X124750000Y-69500000D02*
X124750000Y-101350000D01*
X144050000Y-56000000D02*
X142550000Y-57500000D01*
X142550000Y-57500000D02*
X136750000Y-57500000D01*
X124750000Y-101350000D02*
X128500000Y-105100000D01*
%TO.N,SPI_MOSI*%
X123500000Y-102640000D02*
X128500000Y-107640000D01*
X136430000Y-56000000D02*
X123500000Y-68930000D01*
X136430000Y-56000000D02*
X141510000Y-56000000D01*
X123500000Y-68930000D02*
X123500000Y-102640000D01*
%TO.N,SPI_~{CS}_LCD*%
X123730000Y-56000000D02*
X123730000Y-61000000D01*
%TO.N,/MCU/MCU_SLEEP_REQ*%
X118250000Y-92750000D02*
X117000000Y-94000000D01*
X117000000Y-94000000D02*
X117000000Y-104445000D01*
X118250000Y-67400000D02*
X118250000Y-92750000D01*
%TO.N,Net-(U3-GPB3)*%
X179500000Y-109500000D02*
X182000000Y-107000000D01*
X182000000Y-96500000D02*
X184500000Y-94000000D01*
X184500000Y-94000000D02*
X184500000Y-82250000D01*
X127555000Y-109500000D02*
X179500000Y-109500000D01*
X122500000Y-104445000D02*
X127555000Y-109500000D01*
X184500000Y-82250000D02*
X187250000Y-79500000D01*
X182000000Y-107000000D02*
X182000000Y-96500000D01*
X187250000Y-79500000D02*
X199750000Y-79500000D01*
%TO.N,Net-(U3-GPB1)*%
X123530000Y-111500000D02*
X199750000Y-111500000D01*
X119015000Y-106985000D02*
X123530000Y-111500000D01*
%TO.N,SPK_EN*%
X171000000Y-73750000D02*
X171000000Y-84000000D01*
X176250000Y-68500000D02*
X171000000Y-73750000D01*
X154500000Y-100500000D02*
X128500000Y-100500000D01*
X171000000Y-84000000D02*
X154500000Y-100500000D01*
%TO.N,Net-(U3-GPB2)*%
X183000000Y-97500000D02*
X185000000Y-95500000D01*
X180500000Y-110500000D02*
X183000000Y-108000000D01*
X185000000Y-95500000D02*
X199750000Y-95500000D01*
X183000000Y-108000000D02*
X183000000Y-97500000D01*
X122500000Y-105715000D02*
X127285000Y-110500000D01*
X127285000Y-110500000D02*
X180500000Y-110500000D01*
%TO.N,Net-(U3-GPB4)*%
X183500000Y-67250000D02*
X183500000Y-93000000D01*
X127825000Y-108500000D02*
X122500000Y-103175000D01*
X181000000Y-106000000D02*
X178500000Y-108500000D01*
X199750000Y-63500000D02*
X187250000Y-63500000D01*
X187250000Y-63500000D02*
X183500000Y-67250000D01*
X181000000Y-95500000D02*
X181000000Y-106000000D01*
X178500000Y-108500000D02*
X127825000Y-108500000D01*
X183500000Y-93000000D02*
X181000000Y-95500000D01*
%TO.N,Net-(BT1-+)*%
D25*
X169020000Y-117257500D02*
X171000000Y-119237500D01*
X169020000Y-117000000D02*
X169020000Y-117257500D01*
X171000000Y-119237500D02*
X171600000Y-119237500D01*
%TO.N,LCD_~{RST}*%
D29*
X121190000Y-56000000D02*
X121190000Y-92310000D01*
X118000000Y-95500000D02*
X118000000Y-103175000D01*
X121190000Y-92310000D02*
X118000000Y-95500000D01*
%TD*%
%TA.AperFunction,Conductor*%
%TO.N,+3.3V_MCU*%
G36*
X134943039Y-54769685D02*
G01*
X134988794Y-54822489D01*
X135000000Y-54874000D01*
X135000000Y-56494046D01*
X134980315Y-56561085D01*
X134963681Y-56581727D01*
X129081728Y-62463681D01*
X129020405Y-62497166D01*
X128994047Y-62500000D01*
X125124000Y-62500000D01*
X125056961Y-62480315D01*
X125011206Y-62427511D01*
X125000000Y-62376000D01*
X125000000Y-56622121D01*
X125013515Y-56565827D01*
X125027895Y-56537606D01*
X125096015Y-56327951D01*
X125130500Y-56110222D01*
X125130500Y-55889778D01*
X125096015Y-55672049D01*
X125027895Y-55462394D01*
X125027892Y-55462388D01*
X125013515Y-55434170D01*
X125000000Y-55377876D01*
X125000000Y-55124000D01*
X125019685Y-55056961D01*
X125072489Y-55011206D01*
X125124000Y-55000000D01*
X133500000Y-55000000D01*
X133713681Y-54786319D01*
X133775004Y-54752834D01*
X133801362Y-54750000D01*
X134876000Y-54750000D01*
X134943039Y-54769685D01*
G37*
%TD.AperFunction*%
%TD*%
%TA.AperFunction,Conductor*%
%TO.N,+3.3V_SD*%
G36*
X121411087Y-110269685D02*
G01*
X121431729Y-110286319D01*
X121963681Y-110818271D01*
X121997166Y-110879594D01*
X122000000Y-110905952D01*
X122000000Y-116626000D01*
X121980315Y-116693039D01*
X121927511Y-116738794D01*
X121876000Y-116750000D01*
X112801362Y-116750000D01*
X112734323Y-116730315D01*
X112713681Y-116713681D01*
X110536319Y-114536319D01*
X110521615Y-114509391D01*
X110505023Y-114483573D01*
X110504131Y-114477372D01*
X110502834Y-114474996D01*
X110500000Y-114448638D01*
X110500000Y-114421153D01*
X118474500Y-114421153D01*
X118474500Y-114578846D01*
X118505261Y-114733489D01*
X118505264Y-114733501D01*
X118565602Y-114879172D01*
X118565609Y-114879185D01*
X118653210Y-115010288D01*
X118653213Y-115010292D01*
X118764707Y-115121786D01*
X118764711Y-115121789D01*
X118895814Y-115209390D01*
X118895827Y-115209397D01*
X119041498Y-115269735D01*
X119041503Y-115269737D01*
X119196153Y-115300499D01*
X119196156Y-115300500D01*
X119196158Y-115300500D01*
X119353844Y-115300500D01*
X119353845Y-115300499D01*
X119508497Y-115269737D01*
X119654179Y-115209394D01*
X119785289Y-115121789D01*
X119896789Y-115010289D01*
X119984394Y-114879179D01*
X120044737Y-114733497D01*
X120075500Y-114578842D01*
X120075500Y-114421158D01*
X120075500Y-114421155D01*
X120075499Y-114421153D01*
X120044738Y-114266510D01*
X120044737Y-114266503D01*
X120044735Y-114266498D01*
X119984397Y-114120827D01*
X119984390Y-114120814D01*
X119896789Y-113989711D01*
X119896786Y-113989707D01*
X119785292Y-113878213D01*
X119785288Y-113878210D01*
X119654185Y-113790609D01*
X119654172Y-113790602D01*
X119508501Y-113730264D01*
X119508489Y-113730261D01*
X119353845Y-113699500D01*
X119353842Y-113699500D01*
X119196158Y-113699500D01*
X119196155Y-113699500D01*
X119041510Y-113730261D01*
X119041498Y-113730264D01*
X118895827Y-113790602D01*
X118895814Y-113790609D01*
X118764711Y-113878210D01*
X118764707Y-113878213D01*
X118653213Y-113989707D01*
X118653210Y-113989711D01*
X118565609Y-114120814D01*
X118565602Y-114120827D01*
X118505264Y-114266498D01*
X118505261Y-114266510D01*
X118474500Y-114421153D01*
X110500000Y-114421153D01*
X110500000Y-111624000D01*
X110519685Y-111556961D01*
X110572489Y-111511206D01*
X110624000Y-111500000D01*
X112255584Y-111500000D01*
X112322623Y-111519685D01*
X112368378Y-111572489D01*
X112377201Y-111599809D01*
X112408143Y-111755366D01*
X112408146Y-111755378D01*
X112474138Y-111914698D01*
X112474145Y-111914711D01*
X112569954Y-112058098D01*
X112569957Y-112058102D01*
X112691897Y-112180042D01*
X112691901Y-112180045D01*
X112835288Y-112275854D01*
X112835301Y-112275861D01*
X112963219Y-112328846D01*
X112994626Y-112341855D01*
X113163766Y-112375499D01*
X113163769Y-112375500D01*
X113163771Y-112375500D01*
X113336231Y-112375500D01*
X113336232Y-112375499D01*
X113505374Y-112341855D01*
X113664705Y-112275858D01*
X113808099Y-112180045D01*
X113816991Y-112171153D01*
X118474500Y-112171153D01*
X118474500Y-112328846D01*
X118505261Y-112483489D01*
X118505264Y-112483501D01*
X118565602Y-112629172D01*
X118565609Y-112629185D01*
X118653210Y-112760288D01*
X118653213Y-112760292D01*
X118764707Y-112871786D01*
X118764711Y-112871789D01*
X118895814Y-112959390D01*
X118895827Y-112959397D01*
X119041498Y-113019735D01*
X119041503Y-113019737D01*
X119196153Y-113050499D01*
X119196156Y-113050500D01*
X119196158Y-113050500D01*
X119353844Y-113050500D01*
X119353845Y-113050499D01*
X119508497Y-113019737D01*
X119654179Y-112959394D01*
X119785289Y-112871789D01*
X119896789Y-112760289D01*
X119984394Y-112629179D01*
X120044737Y-112483497D01*
X120075500Y-112328842D01*
X120075500Y-112171158D01*
X120075500Y-112171155D01*
X120075499Y-112171153D01*
X120056847Y-112077385D01*
X120044737Y-112016503D01*
X120002574Y-111914711D01*
X119984397Y-111870827D01*
X119984390Y-111870814D01*
X119896789Y-111739711D01*
X119896786Y-111739707D01*
X119785292Y-111628213D01*
X119785288Y-111628210D01*
X119654185Y-111540609D01*
X119654172Y-111540602D01*
X119508501Y-111480264D01*
X119508489Y-111480261D01*
X119353845Y-111449500D01*
X119353842Y-111449500D01*
X119196158Y-111449500D01*
X119196155Y-111449500D01*
X119041510Y-111480261D01*
X119041498Y-111480264D01*
X118895827Y-111540602D01*
X118895814Y-111540609D01*
X118764711Y-111628210D01*
X118764707Y-111628213D01*
X118653213Y-111739707D01*
X118653210Y-111739711D01*
X118565609Y-111870814D01*
X118565602Y-111870827D01*
X118505264Y-112016498D01*
X118505261Y-112016510D01*
X118474500Y-112171153D01*
X113816991Y-112171153D01*
X113910760Y-112077385D01*
X113930042Y-112058102D01*
X113930045Y-112058099D01*
X114025858Y-111914705D01*
X114091855Y-111755374D01*
X114125500Y-111586229D01*
X114125500Y-111372562D01*
X114145185Y-111305523D01*
X114161819Y-111284881D01*
X115160381Y-110286319D01*
X115221704Y-110252834D01*
X115248062Y-110250000D01*
X121344048Y-110250000D01*
X121411087Y-110269685D01*
G37*
%TD.AperFunction*%
%TD*%
%TA.AperFunction,Conductor*%
%TO.N,+3.3V_PERIPH*%
G36*
X103965740Y-70505021D02*
G01*
X103990984Y-70512434D01*
X104043730Y-70543730D01*
X105951073Y-72451073D01*
X105972223Y-72479325D01*
X105984831Y-72502414D01*
X106000000Y-72561843D01*
X106000000Y-113000000D01*
X111451073Y-118451073D01*
X111472223Y-118479325D01*
X111484831Y-118502414D01*
X111500000Y-118561843D01*
X111500000Y-122358170D01*
X111494975Y-122393114D01*
X111490570Y-122408112D01*
X111452827Y-122466855D01*
X111451458Y-122468042D01*
X111396597Y-122495518D01*
X111389039Y-122497163D01*
X111362668Y-122500000D01*
X108069192Y-122500000D01*
X108034256Y-122494977D01*
X108009014Y-122487565D01*
X107956269Y-122456269D01*
X101548926Y-116048926D01*
X101527774Y-116020670D01*
X101515167Y-115997581D01*
X101500000Y-115938156D01*
X101500000Y-90000000D01*
X101449426Y-89949426D01*
X101428274Y-89921170D01*
X101415667Y-89898081D01*
X101400500Y-89838656D01*
X101400500Y-89773625D01*
X101400074Y-89771669D01*
X101365896Y-89599841D01*
X101365893Y-89599832D01*
X101298016Y-89435959D01*
X101298009Y-89435946D01*
X101199464Y-89288465D01*
X101199461Y-89288461D01*
X101199456Y-89288455D01*
X101074043Y-89163042D01*
X101074037Y-89163037D01*
X101074036Y-89163036D01*
X100926559Y-89064494D01*
X100926558Y-89064493D01*
X100926553Y-89064490D01*
X100926540Y-89064483D01*
X100926526Y-89064477D01*
X100762676Y-88996609D01*
X100762653Y-88996601D01*
X100762646Y-88996599D01*
X100588698Y-88962000D01*
X100588694Y-88962000D01*
X100588691Y-88962000D01*
X100411309Y-88962000D01*
X100411306Y-88962000D01*
X100411304Y-88962000D01*
X100238230Y-88996427D01*
X100226198Y-88998212D01*
X100214122Y-88999402D01*
X100201962Y-89000000D01*
X97141830Y-89000000D01*
X97106889Y-88994975D01*
X97091890Y-88990570D01*
X97033144Y-88952827D01*
X97031957Y-88951458D01*
X97004477Y-88896583D01*
X97002832Y-88889021D01*
X97000000Y-88862668D01*
X97000000Y-85641829D01*
X97005023Y-85606893D01*
X97009427Y-85591895D01*
X97047172Y-85533144D01*
X97048541Y-85531957D01*
X97103420Y-85504477D01*
X97110979Y-85502833D01*
X97137332Y-85500000D01*
X100518924Y-85500000D01*
X100518925Y-85500000D01*
X101500000Y-84500000D01*
X101500000Y-75000000D01*
X101449426Y-74949426D01*
X101428274Y-74921170D01*
X101415667Y-74898081D01*
X101400500Y-74838656D01*
X101400500Y-74773625D01*
X101400074Y-74771669D01*
X101365896Y-74599841D01*
X101365893Y-74599832D01*
X101298016Y-74435959D01*
X101298009Y-74435946D01*
X101199464Y-74288465D01*
X101199461Y-74288461D01*
X101199456Y-74288455D01*
X101074043Y-74163042D01*
X101074037Y-74163037D01*
X101074036Y-74163036D01*
X100926559Y-74064494D01*
X100926558Y-74064493D01*
X100926553Y-74064490D01*
X100926540Y-74064483D01*
X100926526Y-74064477D01*
X100762676Y-73996609D01*
X100762653Y-73996601D01*
X100762646Y-73996599D01*
X100588698Y-73962000D01*
X100588694Y-73962000D01*
X100588691Y-73962000D01*
X100411309Y-73962000D01*
X100411306Y-73962000D01*
X100411304Y-73962000D01*
X100238230Y-73996427D01*
X100226198Y-73998212D01*
X100214122Y-73999402D01*
X100201962Y-74000000D01*
X97141830Y-74000000D01*
X97106889Y-73994975D01*
X97091890Y-73990570D01*
X97033144Y-73952827D01*
X97031957Y-73951458D01*
X97004477Y-73896583D01*
X97002832Y-73889021D01*
X97000000Y-73862668D01*
X97000000Y-70641829D01*
X97005023Y-70606893D01*
X97009427Y-70591895D01*
X97047172Y-70533144D01*
X97048541Y-70531957D01*
X97103420Y-70504477D01*
X97110979Y-70502833D01*
X97137332Y-70500000D01*
X103930808Y-70500000D01*
X103965740Y-70505021D01*
G37*
%TD.AperFunction*%
%TD*%
M02*
