%TF.GenerationSoftware,KiCad,Pcbnew,10.0.5*%
%TF.CreationDate,2026-09-16T00:16:12+02:00*%
%TF.ProjectId,DigiFur-Rev1.0,44696769-4675-4722-9d52-6576312e302e,rev?*%
%TF.SameCoordinates,Original*%
%TF.FileFunction,Soldermask,Bot*%
%TF.FilePolarity,Negative*%
%FSLAX46Y46*%
G04 Gerber Fmt 4.6, Leading zero omitted, Abs format (unit mm)*
G04 Created by KiCad (PCBNEW 10.0.5) date 2026-09-16 00:16:12*
%MOMM*%
%LPD*%
G01*
G04 APERTURE LIST*
%ADD10C,0.100000*%
%ADD11R,1.700000X1.700000*%
%ADD12C,1.700000*%
%ADD13C,3.200000*%
%ADD14C,3.050000*%
%ADD15C,4.000000*%
%ADD16C,2.200000*%
%ADD17C,1.676400*%
%ADD18O,2.500000X3.000000*%
%ADD19O,3.000000X2.500000*%
%ADD20C,1.800000*%
%ADD21R,3.600000X2.600000*%
G04 APERTURE END LIST*
D10*
X61290285Y-82793060D02*
X61471397Y-82868079D01*
X61634393Y-82976990D01*
X61773010Y-83115607D01*
X61881921Y-83278603D01*
X61956940Y-83459715D01*
X61995185Y-83651983D01*
X62000000Y-83750000D01*
X62000000Y-85940094D01*
X62035185Y-86116983D01*
X62035185Y-86313017D01*
X61996941Y-86505285D01*
X61921922Y-86686397D01*
X61813011Y-86849394D01*
X61674394Y-86988011D01*
X61511397Y-87096922D01*
X61330285Y-87171941D01*
X61138017Y-87210185D01*
X60941983Y-87210185D01*
X60749716Y-87171941D01*
X60568604Y-87096922D01*
X60405607Y-86988011D01*
X60332894Y-86922107D01*
X60292893Y-86882107D01*
X60226989Y-86809394D01*
X60144806Y-86686397D01*
X60118079Y-86646397D01*
X60043060Y-86465285D01*
X60004815Y-86273017D01*
X60000000Y-86175000D01*
X60000000Y-83750000D01*
X60004815Y-83651983D01*
X60043060Y-83459715D01*
X60118079Y-83278603D01*
X60226990Y-83115607D01*
X60365607Y-82976990D01*
X60528603Y-82868079D01*
X60709715Y-82793060D01*
X60901983Y-82754815D01*
X61098017Y-82754815D01*
X61290285Y-82793060D01*
G36*
X61290285Y-82793060D02*
G01*
X61471397Y-82868079D01*
X61634393Y-82976990D01*
X61773010Y-83115607D01*
X61881921Y-83278603D01*
X61956940Y-83459715D01*
X61995185Y-83651983D01*
X62000000Y-83750000D01*
X62000000Y-85940094D01*
X62035185Y-86116983D01*
X62035185Y-86313017D01*
X61996941Y-86505285D01*
X61921922Y-86686397D01*
X61813011Y-86849394D01*
X61674394Y-86988011D01*
X61511397Y-87096922D01*
X61330285Y-87171941D01*
X61138017Y-87210185D01*
X60941983Y-87210185D01*
X60749716Y-87171941D01*
X60568604Y-87096922D01*
X60405607Y-86988011D01*
X60332894Y-86922107D01*
X60292893Y-86882107D01*
X60226989Y-86809394D01*
X60144806Y-86686397D01*
X60118079Y-86646397D01*
X60043060Y-86465285D01*
X60004815Y-86273017D01*
X60000000Y-86175000D01*
X60000000Y-83750000D01*
X60004815Y-83651983D01*
X60043060Y-83459715D01*
X60118079Y-83278603D01*
X60226990Y-83115607D01*
X60365607Y-82976990D01*
X60528603Y-82868079D01*
X60709715Y-82793060D01*
X60901983Y-82754815D01*
X61098017Y-82754815D01*
X61290285Y-82793060D01*
G37*
D11*
%TO.C,JP1*%
X108490000Y-53460000D03*
D12*
X111030000Y-53460000D03*
X113570000Y-53460000D03*
%TD*%
D13*
%TO.C,H1*%
X60000000Y-55000000D03*
%TD*%
D14*
%TO.C,SW5*%
X65500000Y-70950000D03*
D15*
X50260000Y-70950000D03*
D14*
X65500000Y-78100000D03*
D15*
X50260000Y-78100000D03*
D12*
X58500000Y-84920000D03*
D15*
X58500000Y-90000000D03*
D12*
X58500000Y-95080000D03*
D14*
X65500000Y-101900000D03*
D15*
X50260000Y-101900000D03*
D14*
X65500000Y-109050000D03*
D15*
X50260000Y-109050000D03*
D16*
X63580000Y-92540000D03*
X61040000Y-86190000D03*
%TD*%
D17*
%TO.C,J3*%
X177350000Y-73587500D03*
X174810000Y-73587500D03*
%TD*%
D18*
%TO.C,SW6*%
X56000000Y-96225000D03*
X56000000Y-83725000D03*
X61000000Y-96225000D03*
X61000000Y-83725000D03*
%TD*%
D13*
%TO.C,H3*%
X190000000Y-125000000D03*
%TD*%
D19*
%TO.C,SW3*%
X187250000Y-79500000D03*
X199750000Y-79500000D03*
X187250000Y-84500000D03*
X199750000Y-84500000D03*
%TD*%
D17*
%TO.C,J4*%
X167190000Y-73667700D03*
X164650000Y-73667700D03*
%TD*%
D19*
%TO.C,SW1*%
X187250000Y-111500000D03*
X199750000Y-111500000D03*
X187250000Y-116500000D03*
X199750000Y-116500000D03*
%TD*%
%TO.C,SW2*%
X187250000Y-95500000D03*
X199750000Y-95500000D03*
X187250000Y-100500000D03*
X199750000Y-100500000D03*
%TD*%
%TO.C,SW4*%
X187250000Y-63500000D03*
X199750000Y-63500000D03*
X187250000Y-68500000D03*
X199750000Y-68500000D03*
%TD*%
D13*
%TO.C,H2*%
X60000000Y-125000000D03*
%TD*%
%TO.C,H4*%
X190000000Y-55000000D03*
%TD*%
%TO.C,U9*%
X76640000Y-55000000D03*
X76640000Y-125830000D03*
D20*
X84360000Y-124830000D03*
X86900000Y-124830000D03*
X163100000Y-124830000D03*
X165640000Y-124830000D03*
D13*
X172560000Y-55000000D03*
X172560000Y-125830000D03*
D20*
X100870000Y-56000000D03*
X103410000Y-56000000D03*
X105950000Y-56000000D03*
X108490000Y-56000000D03*
X111030000Y-56000000D03*
X113570000Y-56000000D03*
X116110000Y-56000000D03*
X118650000Y-56000000D03*
X121190000Y-56000000D03*
X123730000Y-56000000D03*
X126270000Y-56000000D03*
X128810000Y-56000000D03*
X131350000Y-56000000D03*
X133890000Y-56000000D03*
X136430000Y-56000000D03*
X138970000Y-56000000D03*
X141510000Y-56000000D03*
X144050000Y-56000000D03*
X146590000Y-56000000D03*
X149130000Y-56000000D03*
%TD*%
D21*
%TO.C,BT1*%
X171000000Y-119237500D03*
X171000000Y-89937500D03*
%TD*%
D17*
%TO.C,J1*%
X56864000Y-64500000D03*
X56864000Y-61960000D03*
%TD*%
M02*
