%TF.GenerationSoftware,KiCad,Pcbnew,10.0.5*%
%TF.CreationDate,2026-09-16T00:16:12+02:00*%
%TF.ProjectId,DigiFur-Rev1.0,44696769-4675-4722-9d52-6576312e302e,rev?*%
%TF.SameCoordinates,Original*%
%TF.FileFunction,Copper,L1,Top*%
%TF.FilePolarity,Positive*%
%FSLAX46Y46*%
G04 Gerber Fmt 4.6, Leading zero omitted, Abs format (unit mm)*
G04 Created by KiCad (PCBNEW 10.0.5) date 2026-09-16 00:16:12*
%MOMM*%
%LPD*%
G01*
G04 APERTURE LIST*
G04 Aperture macros list*
%AMRoundRect*
0 Rectangle with rounded corners*
0 $1 Rounding radius*
0 $2 $3 $4 $5 $6 $7 $8 $9 X,Y pos of 4 corners*
0 Add a 4 corners polygon primitive as box body*
4,1,4,$2,$3,$4,$5,$6,$7,$8,$9,$2,$3,0*
0 Add four circle primitives for the rounded corners*
1,1,$1+$1,$2,$3*
1,1,$1+$1,$4,$5*
1,1,$1+$1,$6,$7*
1,1,$1+$1,$8,$9*
0 Add four rect primitives between the rounded corners*
20,1,$1+$1,$2,$3,$4,$5,0*
20,1,$1+$1,$4,$5,$6,$7,0*
20,1,$1+$1,$6,$7,$8,$9,0*
20,1,$1+$1,$8,$9,$2,$3,0*%
G04 Aperture macros list end*
%TA.AperFunction,SMDPad,CuDef*%
%ADD10RoundRect,0.237500X-0.237500X0.300000X-0.237500X-0.300000X0.237500X-0.300000X0.237500X0.300000X0*%
%TD*%
%TA.AperFunction,SMDPad,CuDef*%
%ADD11RoundRect,0.237500X0.237500X-0.300000X0.237500X0.300000X-0.237500X0.300000X-0.237500X-0.300000X0*%
%TD*%
%TA.AperFunction,SMDPad,CuDef*%
%ADD12RoundRect,0.237500X0.250000X0.237500X-0.250000X0.237500X-0.250000X-0.237500X0.250000X-0.237500X0*%
%TD*%
%TA.AperFunction,SMDPad,CuDef*%
%ADD13RoundRect,0.237500X-0.250000X-0.237500X0.250000X-0.237500X0.250000X0.237500X-0.250000X0.237500X0*%
%TD*%
%TA.AperFunction,ComponentPad*%
%ADD14R,1.700000X1.700000*%
%TD*%
%TA.AperFunction,ComponentPad*%
%ADD15C,1.700000*%
%TD*%
%TA.AperFunction,SMDPad,CuDef*%
%ADD16R,3.150000X1.000000*%
%TD*%
%TA.AperFunction,SMDPad,CuDef*%
%ADD17RoundRect,0.237500X0.237500X-0.250000X0.237500X0.250000X-0.237500X0.250000X-0.237500X-0.250000X0*%
%TD*%
%TA.AperFunction,SMDPad,CuDef*%
%ADD18RoundRect,0.237500X0.300000X0.237500X-0.300000X0.237500X-0.300000X-0.237500X0.300000X-0.237500X0*%
%TD*%
%TA.AperFunction,SMDPad,CuDef*%
%ADD19RoundRect,0.237500X-0.237500X0.250000X-0.237500X-0.250000X0.237500X-0.250000X0.237500X0.250000X0*%
%TD*%
%TA.AperFunction,SMDPad,CuDef*%
%ADD20RoundRect,0.237500X-0.300000X-0.237500X0.300000X-0.237500X0.300000X0.237500X-0.300000X0.237500X0*%
%TD*%
%TA.AperFunction,ComponentPad*%
%ADD21C,2.200000*%
%TD*%
%TA.AperFunction,ComponentPad*%
%ADD22C,1.676400*%
%TD*%
%TA.AperFunction,ComponentPad*%
%ADD23O,2.500000X3.000000*%
%TD*%
%TA.AperFunction,SMDPad,CuDef*%
%ADD24RoundRect,0.150000X-0.150000X0.825000X-0.150000X-0.825000X0.150000X-0.825000X0.150000X0.825000X0*%
%TD*%
%TA.AperFunction,SMDPad,CuDef*%
%ADD25R,0.980000X3.400000*%
%TD*%
%TA.AperFunction,SMDPad,CuDef*%
%ADD26RoundRect,0.150000X0.150000X-0.512500X0.150000X0.512500X-0.150000X0.512500X-0.150000X-0.512500X0*%
%TD*%
%TA.AperFunction,SMDPad,CuDef*%
%ADD27RoundRect,0.062500X0.350000X0.062500X-0.350000X0.062500X-0.350000X-0.062500X0.350000X-0.062500X0*%
%TD*%
%TA.AperFunction,SMDPad,CuDef*%
%ADD28RoundRect,0.062500X0.062500X0.350000X-0.062500X0.350000X-0.062500X-0.350000X0.062500X-0.350000X0*%
%TD*%
%TA.AperFunction,HeatsinkPad*%
%ADD29R,1.230000X1.230000*%
%TD*%
%TA.AperFunction,SMDPad,CuDef*%
%ADD30RoundRect,0.150000X0.512500X0.150000X-0.512500X0.150000X-0.512500X-0.150000X0.512500X-0.150000X0*%
%TD*%
%TA.AperFunction,SMDPad,CuDef*%
%ADD31R,1.000000X3.150000*%
%TD*%
%TA.AperFunction,SMDPad,CuDef*%
%ADD32RoundRect,0.062500X0.062500X-0.350000X0.062500X0.350000X-0.062500X0.350000X-0.062500X-0.350000X0*%
%TD*%
%TA.AperFunction,HeatsinkPad*%
%ADD33C,0.500000*%
%TD*%
%TA.AperFunction,HeatsinkPad*%
%ADD34R,2.000000X1.200000*%
%TD*%
%TA.AperFunction,SMDPad,CuDef*%
%ADD35R,1.000000X1.800000*%
%TD*%
%TA.AperFunction,SMDPad,CuDef*%
%ADD36RoundRect,0.250000X-1.275000X-0.550000X1.275000X-0.550000X1.275000X0.550000X-1.275000X0.550000X0*%
%TD*%
%TA.AperFunction,SMDPad,CuDef*%
%ADD37RoundRect,0.150000X-0.512500X-0.150000X0.512500X-0.150000X0.512500X0.150000X-0.512500X0.150000X0*%
%TD*%
%TA.AperFunction,SMDPad,CuDef*%
%ADD38RoundRect,0.150000X0.150000X-0.650000X0.150000X0.650000X-0.150000X0.650000X-0.150000X-0.650000X0*%
%TD*%
%TA.AperFunction,SMDPad,CuDef*%
%ADD39C,1.000000*%
%TD*%
%TA.AperFunction,ComponentPad*%
%ADD40O,3.000000X2.500000*%
%TD*%
%TA.AperFunction,SMDPad,CuDef*%
%ADD41RoundRect,0.150000X-0.150000X0.512500X-0.150000X-0.512500X0.150000X-0.512500X0.150000X0.512500X0*%
%TD*%
%TA.AperFunction,SMDPad,CuDef*%
%ADD42RoundRect,0.250000X-0.250000X0.250000X-0.250000X-0.250000X0.250000X-0.250000X0.250000X0.250000X0*%
%TD*%
%TA.AperFunction,SMDPad,CuDef*%
%ADD43R,0.700000X1.200000*%
%TD*%
%TA.AperFunction,SMDPad,CuDef*%
%ADD44R,1.000000X0.800000*%
%TD*%
%TA.AperFunction,SMDPad,CuDef*%
%ADD45R,1.000000X1.200000*%
%TD*%
%TA.AperFunction,SMDPad,CuDef*%
%ADD46R,1.000000X2.800000*%
%TD*%
%TA.AperFunction,SMDPad,CuDef*%
%ADD47R,1.300000X1.900000*%
%TD*%
%TA.AperFunction,ComponentPad*%
%ADD48C,1.800000*%
%TD*%
%TA.AperFunction,SMDPad,CuDef*%
%ADD49RoundRect,0.150000X0.875000X0.150000X-0.875000X0.150000X-0.875000X-0.150000X0.875000X-0.150000X0*%
%TD*%
%TA.AperFunction,ViaPad*%
%ADD50C,0.800000*%
%TD*%
%TA.AperFunction,ViaPad*%
%ADD51C,0.600000*%
%TD*%
%TA.AperFunction,ViaPad*%
%ADD52C,0.500000*%
%TD*%
%TA.AperFunction,ViaPad*%
%ADD53C,1.000000*%
%TD*%
%TA.AperFunction,Conductor*%
%ADD54C,0.250000*%
%TD*%
%TA.AperFunction,Conductor*%
%ADD55C,0.600000*%
%TD*%
%TA.AperFunction,Conductor*%
%ADD56C,0.500000*%
%TD*%
%TA.AperFunction,Conductor*%
%ADD57C,2.000000*%
%TD*%
%TA.AperFunction,Conductor*%
%ADD58C,0.800000*%
%TD*%
%TA.AperFunction,Conductor*%
%ADD59C,0.750000*%
%TD*%
%TA.AperFunction,Conductor*%
%ADD60C,0.700000*%
%TD*%
%TA.AperFunction,Conductor*%
%ADD61C,1.500000*%
%TD*%
%TA.AperFunction,Conductor*%
%ADD62C,1.000000*%
%TD*%
G04 APERTURE END LIST*
D10*
%TO.P,C41,1*%
%TO.N,VBAT*%
X90500000Y-88137500D03*
%TO.P,C41,2*%
%TO.N,GND*%
X90500000Y-89862500D03*
%TD*%
D11*
%TO.P,C44,1*%
%TO.N,+3.3V_PERIPH*%
X99500000Y-86362500D03*
%TO.P,C44,2*%
%TO.N,GND*%
X99500000Y-84637500D03*
%TD*%
D12*
%TO.P,R21,1*%
%TO.N,Net-(J2-DET_B)*%
X115912500Y-111500000D03*
%TO.P,R21,2*%
%TO.N,+3.3V_PERIPH*%
X114087500Y-111500000D03*
%TD*%
D13*
%TO.P,R34,1*%
%TO.N,Net-(R33-Pad2)*%
X98087500Y-106500000D03*
%TO.P,R34,2*%
%TO.N,GND*%
X99912500Y-106500000D03*
%TD*%
D14*
%TO.P,JP1,1,A_1*%
%TO.N,Net-(JP1-A)*%
X108490000Y-53460000D03*
D15*
%TO.P,JP1,2,C_2*%
%TO.N,LCD_LEDA*%
X111030000Y-53460000D03*
%TO.P,JP1,3,B_3*%
%TO.N,+3.3V_PERIPH*%
X113570000Y-53460000D03*
%TD*%
D16*
%TO.P,J6,1,Pin_1_1*%
%TO.N,/Jumpers/PWR_PERIPH_EN_JP*%
X73975000Y-79840000D03*
%TO.P,J6,2,Pin_2_2*%
X79025000Y-79840000D03*
%TO.P,J6,3,Pin_3_3*%
%TO.N,DCDC_PERIPH1_EN*%
X73975000Y-82380000D03*
%TO.P,J6,4,Pin_4_4*%
%TO.N,DCDC_PERIPH2_EN*%
X79025000Y-82380000D03*
%TO.P,J6,5,Pin_5_5*%
%TO.N,GND*%
X73975000Y-84920000D03*
%TO.P,J6,6,Pin_6_6*%
X79025000Y-84920000D03*
%TO.P,J6,7,Pin_7_7*%
%TO.N,PWR_MCU_EN*%
X73975000Y-87460000D03*
%TO.P,J6,8,Pin_8_8*%
%TO.N,PWR_PERIPH_EN*%
X79025000Y-87460000D03*
%TO.P,J6,9,Pin_9_9*%
%TO.N,/Jumpers/PWR_MCU_EN_JP*%
X73975000Y-90000000D03*
%TO.P,J6,10,Pin_10_10*%
%TO.N,/Jumpers/PWR_PERIPH_EN_JP*%
X79025000Y-90000000D03*
%TO.P,J6,11,Pin_11_11*%
%TO.N,VBAT*%
X73975000Y-92540000D03*
%TO.P,J6,12,Pin_12_12*%
X79025000Y-92540000D03*
%TO.P,J6,13,Pin_13_13*%
%TO.N,/Jumpers/PWR_MCU_EN_JP*%
X73975000Y-95080000D03*
%TO.P,J6,14,Pin_14_14*%
X79025000Y-95080000D03*
%TO.P,J6,15,Pin_15_15*%
%TO.N,DCDC_MCU1_EN*%
X73975000Y-97620000D03*
%TO.P,J6,16,Pin_16_16*%
%TO.N,DCDC_MCU2_EN*%
X79025000Y-97620000D03*
%TO.P,J6,17,Pin_17_17*%
%TO.N,GND*%
X73975000Y-100160000D03*
%TO.P,J6,18,Pin_18_18*%
X79025000Y-100160000D03*
%TD*%
D17*
%TO.P,R4,1*%
%TO.N,PWR_PERIPH_EN*%
X109500000Y-100432500D03*
%TO.P,R4,2*%
%TO.N,GND*%
X109500000Y-98607500D03*
%TD*%
%TO.P,R3,1*%
%TO.N,BAT_MON_EN*%
X108000000Y-100432500D03*
%TO.P,R3,2*%
%TO.N,GND*%
X108000000Y-98607500D03*
%TD*%
%TO.P,R8,1*%
%TO.N,+3.3V_MCU*%
X109500000Y-96932500D03*
%TO.P,R8,2*%
%TO.N,Net-(U3-~{RESET})*%
X109500000Y-95107500D03*
%TD*%
D11*
%TO.P,C28,1*%
%TO.N,+3.3V_MCU*%
X99500000Y-116362500D03*
%TO.P,C28,2*%
%TO.N,GND*%
X99500000Y-114637500D03*
%TD*%
D10*
%TO.P,C30,1*%
%TO.N,+3.3V_MCU*%
X99500000Y-118137500D03*
%TO.P,C30,2*%
%TO.N,GND*%
X99500000Y-119862500D03*
%TD*%
D18*
%TO.P,C7,1*%
%TO.N,Net-(D1-K)*%
X172000000Y-113000000D03*
%TO.P,C7,2*%
%TO.N,GND*%
X170275000Y-113000000D03*
%TD*%
D12*
%TO.P,R18,1*%
%TO.N,+3.3V_PERIPH*%
X95662500Y-57750000D03*
%TO.P,R18,2*%
%TO.N,Net-(Q1-G)*%
X93837500Y-57750000D03*
%TD*%
D18*
%TO.P,C58,1*%
%TO.N,+3.3V_SD*%
X121362500Y-111500000D03*
%TO.P,C58,2*%
%TO.N,GND*%
X119637500Y-111500000D03*
%TD*%
D11*
%TO.P,C27,1*%
%TO.N,+3.3V_MCU*%
X98000000Y-116362500D03*
%TO.P,C27,2*%
%TO.N,GND*%
X98000000Y-114637500D03*
%TD*%
%TO.P,C21,1*%
%TO.N,+3.3V_PERIPH*%
X173500000Y-66862500D03*
%TO.P,C21,2*%
%TO.N,GND*%
X173500000Y-65137500D03*
%TD*%
%TO.P,C43,1*%
%TO.N,+3.3V_PERIPH*%
X98000000Y-86362500D03*
%TO.P,C43,2*%
%TO.N,GND*%
X98000000Y-84637500D03*
%TD*%
D19*
%TO.P,R43,1*%
%TO.N,Net-(U15-CFG1)*%
X96500000Y-76087500D03*
%TO.P,R43,2*%
%TO.N,Net-(R41-Pad2)*%
X96500000Y-77912500D03*
%TD*%
D10*
%TO.P,C29,1*%
%TO.N,+3.3V_MCU*%
X98000000Y-118137500D03*
%TO.P,C29,2*%
%TO.N,GND*%
X98000000Y-119862500D03*
%TD*%
D11*
%TO.P,C52,1*%
%TO.N,+3.3V_PERIPH*%
X99500000Y-71362500D03*
%TO.P,C52,2*%
%TO.N,GND*%
X99500000Y-69637500D03*
%TD*%
%TO.P,C40,1*%
%TO.N,VBAT*%
X92000000Y-86362500D03*
%TO.P,C40,2*%
%TO.N,GND*%
X92000000Y-84637500D03*
%TD*%
D20*
%TO.P,C6,1*%
%TO.N,GND*%
X128137500Y-80750000D03*
%TO.P,C6,2*%
%TO.N,+3.3V_MCU*%
X129862500Y-80750000D03*
%TD*%
D21*
%TO.P,SW5,1,1_1*%
%TO.N,Net-(U3-GPB5)*%
X63580000Y-92540000D03*
%TO.P,SW5,2,2_2*%
%TO.N,GND*%
X61040000Y-86190000D03*
%TD*%
D18*
%TO.P,C8,1*%
%TO.N,Net-(U6-CT)*%
X80112500Y-70500000D03*
%TO.P,C8,2*%
%TO.N,GND*%
X78387500Y-70500000D03*
%TD*%
D22*
%TO.P,J3,1,Pin_1_1*%
%TO.N,Net-(J3-Pin_1)*%
X177350000Y-73587500D03*
%TO.P,J3,2,Pin_2_2*%
%TO.N,GND*%
X174810000Y-73587500D03*
%TD*%
D19*
%TO.P,R31,1*%
%TO.N,Net-(U12-CFG1)*%
X96500000Y-121087500D03*
%TO.P,R31,2*%
%TO.N,Net-(R29-Pad2)*%
X96500000Y-122912500D03*
%TD*%
D11*
%TO.P,C47,1*%
%TO.N,VBAT*%
X90500000Y-71362500D03*
%TO.P,C47,2*%
%TO.N,GND*%
X90500000Y-69637500D03*
%TD*%
%TO.P,C51,1*%
%TO.N,+3.3V_PERIPH*%
X98000000Y-71362500D03*
%TO.P,C51,2*%
%TO.N,GND*%
X98000000Y-69637500D03*
%TD*%
%TO.P,C32,1*%
%TO.N,VBAT*%
X92000000Y-101362500D03*
%TO.P,C32,2*%
%TO.N,GND*%
X92000000Y-99637500D03*
%TD*%
D19*
%TO.P,R22,1*%
%TO.N,Net-(U9-ROM_~{CS})*%
X108490000Y-59087500D03*
%TO.P,R22,2*%
%TO.N,GND*%
X108490000Y-60912500D03*
%TD*%
%TO.P,R29,1*%
%TO.N,Net-(U12-CFG1)*%
X95000000Y-121087500D03*
%TO.P,R29,2*%
%TO.N,Net-(R29-Pad2)*%
X95000000Y-122912500D03*
%TD*%
D10*
%TO.P,C15,1*%
%TO.N,LCD_LEDA*%
X111030000Y-59137500D03*
%TO.P,C15,2*%
%TO.N,GND*%
X111030000Y-60862500D03*
%TD*%
D20*
%TO.P,C9,1*%
%TO.N,VBAT*%
X78750000Y-119000000D03*
%TO.P,C9,2*%
%TO.N,GND*%
X80475000Y-119000000D03*
%TD*%
D23*
%TO.P,SW6,1,1_1*%
%TO.N,Net-(U3-GPB5)*%
X56000000Y-96225000D03*
X56000000Y-83725000D03*
%TO.P,SW6,2,2_2*%
%TO.N,GND*%
X61000000Y-96225000D03*
X61000000Y-83725000D03*
%TD*%
D24*
%TO.P,U4,1,OSCI_1*%
%TO.N,Net-(U4-OSCI)*%
X172155000Y-105025000D03*
%TO.P,U4,2,OSCO_2*%
%TO.N,Net-(U4-OSCO)*%
X170885000Y-105025000D03*
%TO.P,U4,3,~{INT}_3*%
%TO.N,/MCU/~{INT}*%
X169615000Y-105025000D03*
%TO.P,U4,4,VSS_4*%
%TO.N,GND*%
X168345000Y-105025000D03*
%TO.P,U4,5,SDA_5*%
%TO.N,/MCU/I2C_SDA*%
X168345000Y-109975000D03*
%TO.P,U4,6,SCL_6*%
%TO.N,/MCU/I2C_SCL*%
X169615000Y-109975000D03*
%TO.P,U4,7,CLKOUT_7*%
%TO.N,/MCU/MCU_SLOW_CLK*%
X170885000Y-109975000D03*
%TO.P,U4,8,VDD_8*%
%TO.N,Net-(D1-K)*%
X172155000Y-109975000D03*
%TD*%
D13*
%TO.P,R2,1*%
%TO.N,+3.3V_MCU*%
X108337500Y-63750000D03*
%TO.P,R2,2*%
%TO.N,Net-(U1-~{RESET})*%
X110162500Y-63750000D03*
%TD*%
D25*
%TO.P,L3,1*%
%TO.N,Net-(U14-LX1)*%
X93815000Y-84000000D03*
%TO.P,L3,2*%
%TO.N,Net-(U14-LX2)*%
X96185000Y-84000000D03*
%TD*%
D26*
%TO.P,U7,1,VIN_1*%
%TO.N,VBAT*%
X78550000Y-117137500D03*
%TO.P,U7,2,GND_2*%
%TO.N,GND*%
X79500000Y-117137500D03*
%TO.P,U7,3,ON_3*%
%TO.N,BAT_MON_EN*%
X80450000Y-117137500D03*
%TO.P,U7,4,CT_4*%
%TO.N,Net-(U7-CT)*%
X80450000Y-114862500D03*
%TO.P,U7,5,QOD_5*%
%TO.N,unconnected-(U7-QOD-Pad5)*%
X79500000Y-114862500D03*
%TO.P,U7,6,VOUT_6*%
%TO.N,Net-(U7-VOUT)*%
X78550000Y-114862500D03*
%TD*%
D10*
%TO.P,C4,1*%
%TO.N,GND*%
X123000000Y-96597500D03*
%TO.P,C4,2*%
%TO.N,+3.3V_MCU*%
X123000000Y-98322500D03*
%TD*%
%TO.P,C53,1*%
%TO.N,+3.3V_PERIPH*%
X98000000Y-73137500D03*
%TO.P,C53,2*%
%TO.N,GND*%
X98000000Y-74862500D03*
%TD*%
D27*
%TO.P,U11,1,DIN_1*%
%TO.N,I2S_DATA*%
X171875000Y-70687500D03*
%TO.P,U11,2,GAIN_SLOT_2*%
%TO.N,Net-(U11-GAIN_SLOT)*%
X171875000Y-70187500D03*
%TO.P,U11,3,GND_3*%
%TO.N,GND*%
X171875000Y-69687500D03*
%TO.P,U11,4,~{SD_MODE}_4*%
%TO.N,Net-(U11-~{SD_MODE})*%
X171875000Y-69187500D03*
D28*
%TO.P,U11,5,NC_5*%
%TO.N,unconnected-(U11-NC-Pad5)*%
X171187500Y-68500000D03*
%TO.P,U11,6,NC_6*%
%TO.N,unconnected-(U11-NC-Pad6)*%
X170687500Y-68500000D03*
%TO.P,U11,7,VDD_7*%
%TO.N,+3.3V_PERIPH*%
X170187500Y-68500000D03*
%TO.P,U11,8,VDD_8*%
X169687500Y-68500000D03*
D27*
%TO.P,U11,9,OUTP_9*%
%TO.N,Net-(J4-Pin_2)*%
X169000000Y-69187500D03*
%TO.P,U11,10,OUTN_10*%
%TO.N,Net-(J4-Pin_1)*%
X169000000Y-69687500D03*
%TO.P,U11,11,GND_11*%
%TO.N,GND*%
X169000000Y-70187500D03*
%TO.P,U11,12,NC_12*%
%TO.N,unconnected-(U11-NC-Pad12)*%
X169000000Y-70687500D03*
D28*
%TO.P,U11,13,NC_13*%
%TO.N,unconnected-(U11-NC-Pad13)*%
X169687500Y-71375000D03*
%TO.P,U11,14,LRCLK_14*%
%TO.N,I2S_LRCK*%
X170187500Y-71375000D03*
%TO.P,U11,15,GND_15*%
%TO.N,GND*%
X170687500Y-71375000D03*
%TO.P,U11,16,BCLK_16*%
%TO.N,I2S_BCLK*%
X171187500Y-71375000D03*
D29*
%TO.P,U11,17,PAD_17*%
%TO.N,GND*%
X170437500Y-69937500D03*
%TD*%
D25*
%TO.P,L2,1*%
%TO.N,Net-(U13-LX1)*%
X93815000Y-99000000D03*
%TO.P,L2,2*%
%TO.N,Net-(U13-LX2)*%
X96185000Y-99000000D03*
%TD*%
D10*
%TO.P,C34,1*%
%TO.N,VBAT*%
X92000000Y-103137500D03*
%TO.P,C34,2*%
%TO.N,GND*%
X92000000Y-104862500D03*
%TD*%
%TO.P,C37,1*%
%TO.N,+3.3V_MCU*%
X98000000Y-103137500D03*
%TO.P,C37,2*%
%TO.N,GND*%
X98000000Y-104862500D03*
%TD*%
D30*
%TO.P,U6,1,~{RESET}_1*%
%TO.N,PWR_MCU_EN*%
X82137500Y-68950000D03*
%TO.P,U6,2,VDD_2*%
%TO.N,VBAT*%
X82137500Y-68000000D03*
%TO.P,U6,3,GND_3*%
%TO.N,GND*%
X82137500Y-67050000D03*
%TO.P,U6,4,~{MR}_4*%
%TO.N,Net-(U6-~{MR})*%
X79862500Y-67050000D03*
%TO.P,U6,5,CT_5*%
%TO.N,Net-(U6-CT)*%
X79862500Y-68950000D03*
%TD*%
D31*
%TO.P,J5,1,Pin_1_1*%
%TO.N,+3.3V_MCU*%
X109650000Y-82525000D03*
%TO.P,J5,2,Pin_2_2*%
X109650000Y-77475000D03*
%TO.P,J5,3,Pin_3_3*%
%TO.N,GPIO_EXP_A1*%
X112190000Y-82525000D03*
%TO.P,J5,4,Pin_4_4*%
%TO.N,GPIO_EXP_A2*%
X112190000Y-77475000D03*
%TO.P,J5,5,Pin_5_5*%
%TO.N,GND*%
X114730000Y-82525000D03*
%TO.P,J5,6,Pin_6_6*%
X114730000Y-77475000D03*
%TO.P,J5,7,Pin_7_7*%
%TO.N,+3.3V_MCU*%
X117270000Y-82525000D03*
%TO.P,J5,8,Pin_8_8*%
X117270000Y-77475000D03*
%TO.P,J5,9,Pin_9_9*%
%TO.N,GPIO_EXP_A0*%
X119810000Y-82525000D03*
%TO.P,J5,10,Pin_10_10*%
%TO.N,MCU_EN*%
X119810000Y-77475000D03*
%TO.P,J5,11,Pin_11_11*%
%TO.N,GND*%
X122350000Y-82525000D03*
%TO.P,J5,12,Pin_12_12*%
%TO.N,MCU_EN_JP*%
X122350000Y-77475000D03*
%TD*%
D32*
%TO.P,U15,1,EN_1*%
%TO.N,DCDC_PERIPH2_EN*%
X94000000Y-74462500D03*
%TO.P,U15,2,SEL_2*%
%TO.N,VBAT*%
X94500000Y-74462500D03*
%TO.P,U15,3,CFG1_3*%
%TO.N,Net-(U15-CFG1)*%
X95000000Y-74462500D03*
%TO.P,U15,4,CFG2_4*%
%TO.N,GND*%
X95500000Y-74462500D03*
%TO.P,U15,5,CFG3_5*%
X96000000Y-74462500D03*
%TO.P,U15,6,VOUT_6*%
%TO.N,+3.3V_PERIPH*%
X96000000Y-72037500D03*
%TO.P,U15,7,LX2_7*%
%TO.N,Net-(U15-LX2)*%
X95500000Y-72037500D03*
%TO.P,U15,8,GND_8*%
%TO.N,GND*%
X95000000Y-72037500D03*
%TO.P,U15,9,LX1_9*%
%TO.N,Net-(U15-LX1)*%
X94500000Y-72037500D03*
%TO.P,U15,10,VIN_10*%
%TO.N,VBAT*%
X94000000Y-72037500D03*
D33*
%TO.P,U15,11,GND_11*%
%TO.N,GND*%
X94250000Y-73600000D03*
X95000000Y-73600000D03*
X95750000Y-73600000D03*
D34*
X95000000Y-73250000D03*
D33*
X94250000Y-72900000D03*
X95000000Y-72900000D03*
X95750000Y-72900000D03*
%TD*%
D35*
%TO.P,Y1,1,1_1*%
%TO.N,Net-(U4-OSCO)*%
X170270000Y-102500000D03*
%TO.P,Y1,2,2_2*%
%TO.N,Net-(U4-OSCI)*%
X172770000Y-102500000D03*
%TD*%
D11*
%TO.P,C36,1*%
%TO.N,+3.3V_MCU*%
X99500000Y-101362500D03*
%TO.P,C36,2*%
%TO.N,GND*%
X99500000Y-99637500D03*
%TD*%
D20*
%TO.P,C1,1*%
%TO.N,Net-(U1-CT)*%
X111887500Y-63750000D03*
%TO.P,C1,2*%
%TO.N,GND*%
X113612500Y-63750000D03*
%TD*%
%TO.P,C5,1*%
%TO.N,GND*%
X128137500Y-79250000D03*
%TO.P,C5,2*%
%TO.N,+3.3V_MCU*%
X129862500Y-79250000D03*
%TD*%
D11*
%TO.P,C23,1*%
%TO.N,VBAT*%
X90500000Y-116362500D03*
%TO.P,C23,2*%
%TO.N,GND*%
X90500000Y-114637500D03*
%TD*%
%TO.P,C20,1*%
%TO.N,+3.3V_PERIPH*%
X172000000Y-66862500D03*
%TO.P,C20,2*%
%TO.N,GND*%
X172000000Y-65137500D03*
%TD*%
D36*
%TO.P,U5,1,3V3_1*%
%TO.N,+3.3V_MCU*%
X133025000Y-79700000D03*
%TO.P,U5,2,RST_2*%
%TO.N,MCU_EN*%
X133025000Y-82240000D03*
%TO.P,U5,3,GPIO4_3*%
%TO.N,LCD_LEDA_PWM*%
X133025000Y-84780000D03*
%TO.P,U5,4,GPIO5_4*%
%TO.N,/MCU/~{INT}*%
X133025000Y-87320000D03*
%TO.P,U5,5,GPIO6_5*%
%TO.N,/MCU/I2C_SDA*%
X133025000Y-89860000D03*
%TO.P,U5,6,GPIO7_6*%
%TO.N,/MCU/I2C_SCL*%
X133025000Y-92400000D03*
%TO.P,U5,7,GPIO0_7*%
%TO.N,/MCU/MCU_SLOW_CLK*%
X133025000Y-94940000D03*
%TO.P,U5,8,GPIO1_8*%
%TO.N,BAT_MON_ADC*%
X133025000Y-97480000D03*
%TO.P,U5,9,GPIO8_9*%
%TO.N,unconnected-(U5-GPIO8-Pad9)*%
X133025000Y-100020000D03*
%TO.P,U5,10,GPIO10_10*%
%TO.N,SPI_MISO*%
X133025000Y-102560000D03*
%TO.P,U5,11,GPIO11_11*%
%TO.N,SPI_CLK*%
X133025000Y-105100000D03*
%TO.P,U5,12,GPIO2_12*%
%TO.N,SPI_MOSI*%
X133025000Y-107640000D03*
%TO.P,U5,13,GPIO3_13*%
%TO.N,SPI_~{CS}_SD*%
X133025000Y-110180000D03*
%TO.P,U5,14,5V0_14*%
%TO.N,unconnected-(U5-5V0-Pad14)*%
X133025000Y-112720000D03*
%TO.P,U5,15,GND_15*%
%TO.N,GND*%
X133025000Y-115260000D03*
%TO.P,U5,16,NC_16*%
%TO.N,unconnected-(U5-NC-Pad16)*%
X133025000Y-117800000D03*
%TO.P,U5,17,NC_17*%
%TO.N,unconnected-(U5-NC-Pad17)*%
X156975000Y-117800000D03*
%TO.P,U5,18,GND_18*%
%TO.N,GND*%
X156975000Y-115260000D03*
%TO.P,U5,19,GPIO12_19*%
%TO.N,unconnected-(U5-GPIO12-Pad19)*%
X156975000Y-112720000D03*
%TO.P,U5,20,GPIO13_20*%
%TO.N,unconnected-(U5-GPIO13-Pad20)*%
X156975000Y-110180000D03*
%TO.P,U5,21,GND_21*%
%TO.N,GND*%
X156975000Y-107640000D03*
%TO.P,U5,22,GPIO9_22*%
%TO.N,unconnected-(U5-GPIO9-Pad22)*%
X156975000Y-105100000D03*
%TO.P,U5,23,GPIO18_23*%
%TO.N,ACOM_PU*%
X156975000Y-102560000D03*
%TO.P,U5,24,GPIO19_24*%
%TO.N,ACOM_OD*%
X156975000Y-100020000D03*
%TO.P,U5,25,GPIO20_25*%
%TO.N,I2S_DATA*%
X156975000Y-97480000D03*
%TO.P,U5,26,GPIO21_26*%
%TO.N,I2S_BCLK*%
X156975000Y-94940000D03*
%TO.P,U5,27,GPIO22_27*%
%TO.N,I2S_LRCK*%
X156975000Y-92400000D03*
%TO.P,U5,28,GPIO23_28*%
%TO.N,SPI_~{CS}_LCD*%
X156975000Y-89860000D03*
%TO.P,U5,29,GPIO15_29*%
%TO.N,LCD_D{slash}~{C}*%
X156975000Y-87320000D03*
%TO.P,U5,30,GPIO17_30*%
%TO.N,unconnected-(U5-GPIO17-Pad30)*%
X156975000Y-84780000D03*
%TO.P,U5,31,GPIO16_31*%
%TO.N,unconnected-(U5-GPIO16-Pad31)*%
X156975000Y-82240000D03*
%TO.P,U5,32,GND_32*%
%TO.N,GND*%
X156975000Y-79700000D03*
%TD*%
D11*
%TO.P,C31,1*%
%TO.N,VBAT*%
X90500000Y-101362500D03*
%TO.P,C31,2*%
%TO.N,GND*%
X90500000Y-99637500D03*
%TD*%
D18*
%TO.P,C13,1*%
%TO.N,BAT_MON_ADC*%
X76862500Y-109500000D03*
%TO.P,C13,2*%
%TO.N,Net-(U8--)*%
X75137500Y-109500000D03*
%TD*%
D13*
%TO.P,R32,1*%
%TO.N,Net-(R29-Pad2)*%
X98087500Y-123000000D03*
%TO.P,R32,2*%
%TO.N,GND*%
X99912500Y-123000000D03*
%TD*%
D11*
%TO.P,C22,1*%
%TO.N,+3.3V_PERIPH*%
X175000000Y-66862500D03*
%TO.P,C22,2*%
%TO.N,GND*%
X175000000Y-65137500D03*
%TD*%
D10*
%TO.P,C38,1*%
%TO.N,+3.3V_MCU*%
X99500000Y-103137500D03*
%TO.P,C38,2*%
%TO.N,GND*%
X99500000Y-104862500D03*
%TD*%
D37*
%TO.P,U1,1,~{RESET}_1*%
%TO.N,Net-(U1-~{RESET})*%
X109862500Y-65550000D03*
%TO.P,U1,2,VDD_2*%
%TO.N,+3.3V_MCU*%
X109862500Y-66500000D03*
%TO.P,U1,3,GND_3*%
%TO.N,GND*%
X109862500Y-67450000D03*
%TO.P,U1,4,~{MR}_4*%
%TO.N,Net-(U1-~{MR})*%
X112137500Y-67450000D03*
%TO.P,U1,5,CT_5*%
%TO.N,Net-(U1-CT)*%
X112137500Y-65550000D03*
%TD*%
D13*
%TO.P,R40,1*%
%TO.N,Net-(R37-Pad2)*%
X98087500Y-93000000D03*
%TO.P,R40,2*%
%TO.N,GND*%
X99912500Y-93000000D03*
%TD*%
%TO.P,R36,1*%
%TO.N,Net-(R33-Pad2)*%
X98087500Y-108000000D03*
%TO.P,R36,2*%
%TO.N,GND*%
X99912500Y-108000000D03*
%TD*%
D26*
%TO.P,U16,1,VIN_1*%
%TO.N,+3.3V_PERIPH*%
X111050000Y-117637500D03*
%TO.P,U16,2,GND_2*%
%TO.N,GND*%
X112000000Y-117637500D03*
%TO.P,U16,3,ON_3*%
%TO.N,SD_DET*%
X112950000Y-117637500D03*
%TO.P,U16,4,CT_4*%
%TO.N,Net-(U16-CT)*%
X112950000Y-115362500D03*
%TO.P,U16,5,QOD_5*%
%TO.N,Net-(U16-QOD)*%
X112000000Y-115362500D03*
%TO.P,U16,6,VOUT_6*%
%TO.N,+3.3V_SD*%
X111050000Y-115362500D03*
%TD*%
D19*
%TO.P,R39,1*%
%TO.N,Net-(U14-CFG1)*%
X96500000Y-91087500D03*
%TO.P,R39,2*%
%TO.N,Net-(R37-Pad2)*%
X96500000Y-92912500D03*
%TD*%
D38*
%TO.P,U2,1*%
%TO.N,/MCU/~{INT}*%
X115550000Y-67400000D03*
%TO.P,U2,2,GND_2*%
%TO.N,GND*%
X116500000Y-67400000D03*
%TO.P,U2,3*%
%TO.N,/MCU/MCU_SLEEP_REQ*%
X117450000Y-67400000D03*
%TO.P,U2,4*%
%TO.N,MCU_EN_JP*%
X117450000Y-65100000D03*
%TO.P,U2,5,VCC_5*%
%TO.N,+3.3V_MCU*%
X116500000Y-65100000D03*
%TO.P,U2,6*%
%TO.N,Net-(U1-~{RESET})*%
X115550000Y-65100000D03*
%TD*%
D39*
%TO.P,FID3,*%
%TO.N,*%
X196500000Y-125000000D03*
%TD*%
D18*
%TO.P,C12,1*%
%TO.N,Net-(U7-VOUT)*%
X76862500Y-115500000D03*
%TO.P,C12,2*%
%TO.N,GND*%
X75137500Y-115500000D03*
%TD*%
D40*
%TO.P,SW3,1,1_1*%
%TO.N,Net-(U3-GPB3)*%
X187250000Y-79500000D03*
X199750000Y-79500000D03*
%TO.P,SW3,2,2_2*%
%TO.N,GND*%
X187250000Y-84500000D03*
X199750000Y-84500000D03*
%TD*%
D19*
%TO.P,R10,1*%
%TO.N,+3.3V_MCU*%
X127500000Y-90217500D03*
%TO.P,R10,2*%
%TO.N,/MCU/I2C_SCL*%
X127500000Y-92042500D03*
%TD*%
D22*
%TO.P,J4,1,Pin_1_1*%
%TO.N,Net-(J4-Pin_1)*%
X167190000Y-73667700D03*
%TO.P,J4,2,Pin_2_2*%
%TO.N,Net-(J4-Pin_2)*%
X164650000Y-73667700D03*
%TD*%
D10*
%TO.P,C26,1*%
%TO.N,VBAT*%
X92000000Y-118137500D03*
%TO.P,C26,2*%
%TO.N,GND*%
X92000000Y-119862500D03*
%TD*%
%TO.P,C25,1*%
%TO.N,VBAT*%
X90500000Y-118137500D03*
%TO.P,C25,2*%
%TO.N,GND*%
X90500000Y-119862500D03*
%TD*%
D40*
%TO.P,SW1,1,1_1*%
%TO.N,Net-(U3-GPB1)*%
X187250000Y-111500000D03*
X199750000Y-111500000D03*
%TO.P,SW1,2,2_2*%
%TO.N,GND*%
X187250000Y-116500000D03*
X199750000Y-116500000D03*
%TD*%
D13*
%TO.P,R38,1*%
%TO.N,Net-(R37-Pad2)*%
X98087500Y-91500000D03*
%TO.P,R38,2*%
%TO.N,GND*%
X99912500Y-91500000D03*
%TD*%
D10*
%TO.P,C46,1*%
%TO.N,+3.3V_PERIPH*%
X99500000Y-88137500D03*
%TO.P,C46,2*%
%TO.N,GND*%
X99500000Y-89862500D03*
%TD*%
D12*
%TO.P,R25,1*%
%TO.N,SPK_EN*%
X175162500Y-68500000D03*
%TO.P,R25,2*%
%TO.N,Net-(U11-~{SD_MODE})*%
X173337500Y-68500000D03*
%TD*%
D37*
%TO.P,U10,1,I/O1_1*%
%TO.N,unconnected-(U10-I{slash}O1-Pad1)*%
X177612500Y-69050000D03*
%TO.P,U10,2,GND_2*%
%TO.N,GND*%
X177612500Y-70000000D03*
%TO.P,U10,3,I/O2_3*%
%TO.N,ACOM_OD*%
X177612500Y-70950000D03*
%TO.P,U10,4,I/O2_4*%
%TO.N,Net-(J3-Pin_1)*%
X179887500Y-70950000D03*
%TO.P,U10,5,VBUS_5*%
%TO.N,+3.3V_MCU*%
X179887500Y-70000000D03*
%TO.P,U10,6,I/O1_6*%
%TO.N,unconnected-(U10-I{slash}O1-Pad6)*%
X179887500Y-69050000D03*
%TD*%
D25*
%TO.P,L4,1*%
%TO.N,Net-(U15-LX1)*%
X93815000Y-69000000D03*
%TO.P,L4,2*%
%TO.N,Net-(U15-LX2)*%
X96185000Y-69000000D03*
%TD*%
D11*
%TO.P,C24,1*%
%TO.N,VBAT*%
X92000000Y-116362500D03*
%TO.P,C24,2*%
%TO.N,GND*%
X92000000Y-114637500D03*
%TD*%
D40*
%TO.P,SW2,1,1_1*%
%TO.N,Net-(U3-GPB2)*%
X187250000Y-95500000D03*
X199750000Y-95500000D03*
%TO.P,SW2,2,2_2*%
%TO.N,GND*%
X187250000Y-100500000D03*
X199750000Y-100500000D03*
%TD*%
D39*
%TO.P,FID2,*%
%TO.N,*%
X53500000Y-125000000D03*
%TD*%
D17*
%TO.P,R7,1*%
%TO.N,+3.3V_SD*%
X123000000Y-110162500D03*
%TO.P,R7,2*%
%TO.N,Net-(U3-GPB0)*%
X123000000Y-108337500D03*
%TD*%
D10*
%TO.P,C50,1*%
%TO.N,VBAT*%
X92000000Y-73137500D03*
%TO.P,C50,2*%
%TO.N,GND*%
X92000000Y-74862500D03*
%TD*%
D11*
%TO.P,C48,1*%
%TO.N,VBAT*%
X92000000Y-71362500D03*
%TO.P,C48,2*%
%TO.N,GND*%
X92000000Y-69637500D03*
%TD*%
D12*
%TO.P,R15,1*%
%TO.N,Net-(U8-+)*%
X80412500Y-111250000D03*
%TO.P,R15,2*%
%TO.N,GND*%
X78587500Y-111250000D03*
%TD*%
D11*
%TO.P,C2,1*%
%TO.N,GND*%
X108000000Y-67362500D03*
%TO.P,C2,2*%
%TO.N,+3.3V_MCU*%
X108000000Y-65637500D03*
%TD*%
%TO.P,C57,1*%
%TO.N,+3.3V_PERIPH*%
X109500000Y-117362500D03*
%TO.P,C57,2*%
%TO.N,Net-(U16-CT)*%
X109500000Y-115637500D03*
%TD*%
D32*
%TO.P,U13,1,EN_1*%
%TO.N,DCDC_MCU2_EN*%
X94000000Y-104462500D03*
%TO.P,U13,2,SEL_2*%
%TO.N,VBAT*%
X94500000Y-104462500D03*
%TO.P,U13,3,CFG1_3*%
%TO.N,Net-(U13-CFG1)*%
X95000000Y-104462500D03*
%TO.P,U13,4,CFG2_4*%
%TO.N,GND*%
X95500000Y-104462500D03*
%TO.P,U13,5,CFG3_5*%
X96000000Y-104462500D03*
%TO.P,U13,6,VOUT_6*%
%TO.N,+3.3V_MCU*%
X96000000Y-102037500D03*
%TO.P,U13,7,LX2_7*%
%TO.N,Net-(U13-LX2)*%
X95500000Y-102037500D03*
%TO.P,U13,8,GND_8*%
%TO.N,GND*%
X95000000Y-102037500D03*
%TO.P,U13,9,LX1_9*%
%TO.N,Net-(U13-LX1)*%
X94500000Y-102037500D03*
%TO.P,U13,10,VIN_10*%
%TO.N,VBAT*%
X94000000Y-102037500D03*
D33*
%TO.P,U13,11,GND_11*%
%TO.N,GND*%
X94250000Y-103600000D03*
X95000000Y-103600000D03*
X95750000Y-103600000D03*
D34*
X95000000Y-103250000D03*
D33*
X94250000Y-102900000D03*
X95000000Y-102900000D03*
X95750000Y-102900000D03*
%TD*%
D26*
%TO.P,Q1,1,G_1*%
%TO.N,Net-(Q1-G)*%
X93800000Y-55887500D03*
%TO.P,Q1,2,S_2*%
%TO.N,+3.3V_PERIPH*%
X95700000Y-55887500D03*
%TO.P,Q1,3,D_3*%
%TO.N,Net-(JP1-A)*%
X94750000Y-53612500D03*
%TD*%
D19*
%TO.P,R5,1*%
%TO.N,SPK_EN*%
X109500000Y-102107500D03*
%TO.P,R5,2*%
%TO.N,GND*%
X109500000Y-103932500D03*
%TD*%
D12*
%TO.P,R26,1*%
%TO.N,+3.3V_PERIPH*%
X175162500Y-71500000D03*
%TO.P,R26,2*%
%TO.N,Net-(U11-GAIN_SLOT)*%
X173337500Y-71500000D03*
%TD*%
D19*
%TO.P,R24,1*%
%TO.N,Net-(U9-ROM_IN)*%
X100870000Y-59087500D03*
%TO.P,R24,2*%
%TO.N,GND*%
X100870000Y-60912500D03*
%TD*%
D13*
%TO.P,R44,1*%
%TO.N,Net-(R41-Pad2)*%
X98087500Y-78000000D03*
%TO.P,R44,2*%
%TO.N,GND*%
X99912500Y-78000000D03*
%TD*%
D18*
%TO.P,C16,1*%
%TO.N,+3.3V_MCU*%
X115702500Y-60250000D03*
%TO.P,C16,2*%
%TO.N,GND*%
X113977500Y-60250000D03*
%TD*%
D12*
%TO.P,R16,1*%
%TO.N,BAT_MON_ADC*%
X76912500Y-108000000D03*
%TO.P,R16,2*%
%TO.N,Net-(U8--)*%
X75087500Y-108000000D03*
%TD*%
D10*
%TO.P,C54,1*%
%TO.N,+3.3V_PERIPH*%
X99500000Y-73137500D03*
%TO.P,C54,2*%
%TO.N,GND*%
X99500000Y-74862500D03*
%TD*%
D17*
%TO.P,R28,1*%
%TO.N,ACOM_PU*%
X160000000Y-102202500D03*
%TO.P,R28,2*%
%TO.N,ACOM_OD*%
X160000000Y-100377500D03*
%TD*%
%TO.P,R9,1*%
%TO.N,+3.3V_MCU*%
X108000000Y-96932500D03*
%TO.P,R9,2*%
%TO.N,/MCU/~{INT}*%
X108000000Y-95107500D03*
%TD*%
D19*
%TO.P,R20,1*%
%TO.N,SD_DET*%
X112750000Y-122587500D03*
%TO.P,R20,2*%
%TO.N,GND*%
X112750000Y-124412500D03*
%TD*%
D18*
%TO.P,C18,1*%
%TO.N,+3.3V_MCU*%
X115702500Y-61750000D03*
%TO.P,C18,2*%
%TO.N,GND*%
X113977500Y-61750000D03*
%TD*%
%TO.P,C59,1*%
%TO.N,+3.3V_SD*%
X121362500Y-110000000D03*
%TO.P,C59,2*%
%TO.N,GND*%
X119637500Y-110000000D03*
%TD*%
D13*
%TO.P,R14,1*%
%TO.N,Net-(U7-VOUT)*%
X78587500Y-112950000D03*
%TO.P,R14,2*%
%TO.N,Net-(U8-+)*%
X80412500Y-112950000D03*
%TD*%
D10*
%TO.P,C33,1*%
%TO.N,VBAT*%
X90500000Y-103137500D03*
%TO.P,C33,2*%
%TO.N,GND*%
X90500000Y-104862500D03*
%TD*%
%TO.P,C45,1*%
%TO.N,+3.3V_PERIPH*%
X98000000Y-88137500D03*
%TO.P,C45,2*%
%TO.N,GND*%
X98000000Y-89862500D03*
%TD*%
D11*
%TO.P,C11,1*%
%TO.N,VBAT*%
X77000000Y-118862500D03*
%TO.P,C11,2*%
%TO.N,Net-(U7-CT)*%
X77000000Y-117137500D03*
%TD*%
D13*
%TO.P,R42,1*%
%TO.N,Net-(R41-Pad2)*%
X98087500Y-76500000D03*
%TO.P,R42,2*%
%TO.N,GND*%
X99912500Y-76500000D03*
%TD*%
D40*
%TO.P,SW4,1,1_1*%
%TO.N,Net-(U3-GPB4)*%
X187250000Y-63500000D03*
X199750000Y-63500000D03*
%TO.P,SW4,2,2_2*%
%TO.N,GND*%
X187250000Y-68500000D03*
X199750000Y-68500000D03*
%TD*%
D32*
%TO.P,U14,1,EN_1*%
%TO.N,DCDC_PERIPH1_EN*%
X94000000Y-89462500D03*
%TO.P,U14,2,SEL_2*%
%TO.N,VBAT*%
X94500000Y-89462500D03*
%TO.P,U14,3,CFG1_3*%
%TO.N,Net-(U14-CFG1)*%
X95000000Y-89462500D03*
%TO.P,U14,4,CFG2_4*%
%TO.N,GND*%
X95500000Y-89462500D03*
%TO.P,U14,5,CFG3_5*%
X96000000Y-89462500D03*
%TO.P,U14,6,VOUT_6*%
%TO.N,+3.3V_PERIPH*%
X96000000Y-87037500D03*
%TO.P,U14,7,LX2_7*%
%TO.N,Net-(U14-LX2)*%
X95500000Y-87037500D03*
%TO.P,U14,8,GND_8*%
%TO.N,GND*%
X95000000Y-87037500D03*
%TO.P,U14,9,LX1_9*%
%TO.N,Net-(U14-LX1)*%
X94500000Y-87037500D03*
%TO.P,U14,10,VIN_10*%
%TO.N,VBAT*%
X94000000Y-87037500D03*
D33*
%TO.P,U14,11,GND_11*%
%TO.N,GND*%
X94250000Y-88600000D03*
X95000000Y-88600000D03*
X95750000Y-88600000D03*
D34*
X95000000Y-88250000D03*
D33*
X94250000Y-87900000D03*
X95000000Y-87900000D03*
X95750000Y-87900000D03*
%TD*%
D11*
%TO.P,C39,1*%
%TO.N,VBAT*%
X90500000Y-86362500D03*
%TO.P,C39,2*%
%TO.N,GND*%
X90500000Y-84637500D03*
%TD*%
D19*
%TO.P,R35,1*%
%TO.N,Net-(U13-CFG1)*%
X96500000Y-106087500D03*
%TO.P,R35,2*%
%TO.N,Net-(R33-Pad2)*%
X96500000Y-107912500D03*
%TD*%
D17*
%TO.P,R12,1*%
%TO.N,VBAT*%
X78000000Y-68912500D03*
%TO.P,R12,2*%
%TO.N,Net-(U6-~{MR})*%
X78000000Y-67087500D03*
%TD*%
D19*
%TO.P,R41,1*%
%TO.N,Net-(U15-CFG1)*%
X95000000Y-76087500D03*
%TO.P,R41,2*%
%TO.N,Net-(R41-Pad2)*%
X95000000Y-77912500D03*
%TD*%
D41*
%TO.P,U8,1*%
%TO.N,BAT_MON_ADC*%
X76950000Y-111362500D03*
%TO.P,U8,2,V-_2*%
%TO.N,GND*%
X76000000Y-111362500D03*
%TO.P,U8,3,+_3*%
%TO.N,Net-(U8-+)*%
X75050000Y-111362500D03*
%TO.P,U8,4,-_4*%
%TO.N,Net-(U8--)*%
X75050000Y-113637500D03*
%TO.P,U8,5,V+_5*%
%TO.N,Net-(U7-VOUT)*%
X76950000Y-113637500D03*
%TD*%
D10*
%TO.P,C14,1*%
%TO.N,+3.3V_PERIPH*%
X97250000Y-55887500D03*
%TO.P,C14,2*%
%TO.N,GND*%
X97250000Y-57612500D03*
%TD*%
D19*
%TO.P,R37,1*%
%TO.N,Net-(U14-CFG1)*%
X95000000Y-91087500D03*
%TO.P,R37,2*%
%TO.N,Net-(R37-Pad2)*%
X95000000Y-92912500D03*
%TD*%
D39*
%TO.P,FID1,*%
%TO.N,*%
X53500000Y-55000000D03*
%TD*%
D32*
%TO.P,U12,1,EN_1*%
%TO.N,DCDC_MCU1_EN*%
X94000000Y-119462500D03*
%TO.P,U12,2,SEL_2*%
%TO.N,VBAT*%
X94500000Y-119462500D03*
%TO.P,U12,3,CFG1_3*%
%TO.N,Net-(U12-CFG1)*%
X95000000Y-119462500D03*
%TO.P,U12,4,CFG2_4*%
%TO.N,GND*%
X95500000Y-119462500D03*
%TO.P,U12,5,CFG3_5*%
X96000000Y-119462500D03*
%TO.P,U12,6,VOUT_6*%
%TO.N,+3.3V_MCU*%
X96000000Y-117037500D03*
%TO.P,U12,7,LX2_7*%
%TO.N,Net-(U12-LX2)*%
X95500000Y-117037500D03*
%TO.P,U12,8,GND_8*%
%TO.N,GND*%
X95000000Y-117037500D03*
%TO.P,U12,9,LX1_9*%
%TO.N,Net-(U12-LX1)*%
X94500000Y-117037500D03*
%TO.P,U12,10,VIN_10*%
%TO.N,VBAT*%
X94000000Y-117037500D03*
D33*
%TO.P,U12,11,GND_11*%
%TO.N,GND*%
X94250000Y-118600000D03*
X95000000Y-118600000D03*
X95750000Y-118600000D03*
D34*
X95000000Y-118250000D03*
D33*
X94250000Y-117900000D03*
X95000000Y-117900000D03*
X95750000Y-117900000D03*
%TD*%
D19*
%TO.P,R11,1*%
%TO.N,+3.3V_MCU*%
X126000000Y-90217500D03*
%TO.P,R11,2*%
%TO.N,/MCU/I2C_SDA*%
X126000000Y-92042500D03*
%TD*%
D10*
%TO.P,C42,1*%
%TO.N,VBAT*%
X92000000Y-88137500D03*
%TO.P,C42,2*%
%TO.N,GND*%
X92000000Y-89862500D03*
%TD*%
D19*
%TO.P,R23,1*%
%TO.N,Net-(U9-ROM_SCK)*%
X105950000Y-59087500D03*
%TO.P,R23,2*%
%TO.N,GND*%
X105950000Y-60912500D03*
%TD*%
D10*
%TO.P,C10,1*%
%TO.N,GND*%
X84000000Y-67137500D03*
%TO.P,C10,2*%
%TO.N,VBAT*%
X84000000Y-68862500D03*
%TD*%
%TO.P,C49,1*%
%TO.N,VBAT*%
X90500000Y-73137500D03*
%TO.P,C49,2*%
%TO.N,GND*%
X90500000Y-74862500D03*
%TD*%
%TO.P,C17,1*%
%TO.N,SD_DET*%
X111250000Y-122637500D03*
%TO.P,C17,2*%
%TO.N,GND*%
X111250000Y-124362500D03*
%TD*%
D20*
%TO.P,C56,1*%
%TO.N,+3.3V_PERIPH*%
X111137500Y-119500000D03*
%TO.P,C56,2*%
%TO.N,GND*%
X112862500Y-119500000D03*
%TD*%
%TO.P,C3,1*%
%TO.N,+3.3V_MCU*%
X115637500Y-63250000D03*
%TO.P,C3,2*%
%TO.N,GND*%
X117362500Y-63250000D03*
%TD*%
D13*
%TO.P,R27,1*%
%TO.N,Net-(U11-GAIN_SLOT)*%
X173337500Y-70000000D03*
%TO.P,R27,2*%
%TO.N,GND*%
X175162500Y-70000000D03*
%TD*%
D42*
%TO.P,D1,1,K_1*%
%TO.N,Net-(D1-K)*%
X170137500Y-114500000D03*
%TO.P,D1,2,A_2*%
%TO.N,Net-(BT1-+)*%
X170137500Y-117000000D03*
%TD*%
D19*
%TO.P,R33,1*%
%TO.N,Net-(U13-CFG1)*%
X95000000Y-106087500D03*
%TO.P,R33,2*%
%TO.N,Net-(R33-Pad2)*%
X95000000Y-107912500D03*
%TD*%
D20*
%TO.P,C55,1*%
%TO.N,+3.3V_PERIPH*%
X111137500Y-121000000D03*
%TO.P,C55,2*%
%TO.N,GND*%
X112862500Y-121000000D03*
%TD*%
D13*
%TO.P,R30,1*%
%TO.N,Net-(R29-Pad2)*%
X98087500Y-121500000D03*
%TO.P,R30,2*%
%TO.N,GND*%
X99912500Y-121500000D03*
%TD*%
D19*
%TO.P,R1,1*%
%TO.N,+3.3V_MCU*%
X114000000Y-65587500D03*
%TO.P,R1,2*%
%TO.N,Net-(U1-~{MR})*%
X114000000Y-67412500D03*
%TD*%
D42*
%TO.P,D2,1,K_1*%
%TO.N,Net-(D1-K)*%
X172137500Y-114500000D03*
%TO.P,D2,2,A_2*%
%TO.N,+3.3V_MCU*%
X172137500Y-117000000D03*
%TD*%
D13*
%TO.P,R45,1*%
%TO.N,+3.3V_SD*%
X111087500Y-113500000D03*
%TO.P,R45,2*%
%TO.N,Net-(U16-QOD)*%
X112912500Y-113500000D03*
%TD*%
D11*
%TO.P,C35,1*%
%TO.N,+3.3V_MCU*%
X98000000Y-101362500D03*
%TO.P,C35,2*%
%TO.N,GND*%
X98000000Y-99637500D03*
%TD*%
D12*
%TO.P,R17,1*%
%TO.N,LCD_LEDA_PWM*%
X95662500Y-59250000D03*
%TO.P,R17,2*%
%TO.N,Net-(Q1-G)*%
X93837500Y-59250000D03*
%TD*%
D43*
%TO.P,J2,1,DAT2_1*%
%TO.N,unconnected-(J2-DAT2-Pad1)*%
X124775000Y-113525000D03*
%TO.P,J2,2,DAT3/CD_2*%
%TO.N,SPI_~{CS}_SD*%
X123675000Y-113525000D03*
%TO.P,J2,3,CMD_3*%
%TO.N,SPI_MOSI*%
X122575000Y-113525000D03*
%TO.P,J2,4,VDD_4*%
%TO.N,+3.3V_SD*%
X121475000Y-113525000D03*
%TO.P,J2,5,CLK_5*%
%TO.N,SPI_CLK*%
X120375000Y-113525000D03*
%TO.P,J2,6,VSS_6*%
%TO.N,GND*%
X119275000Y-113525000D03*
%TO.P,J2,7,DAT0_7*%
%TO.N,SPI_MISO*%
X118175000Y-113525000D03*
%TO.P,J2,8,DAT1_8*%
%TO.N,unconnected-(J2-DAT1-Pad8)*%
X117075000Y-113525000D03*
%TO.P,J2,9,DET_B_9*%
%TO.N,Net-(J2-DET_B)*%
X116125000Y-113525000D03*
D44*
%TO.P,J2,10,DET_A_10*%
%TO.N,SD_DET*%
X115175000Y-124025000D03*
D45*
%TO.P,J2,SH,SHIELD_SH*%
%TO.N,GND*%
X115175000Y-117825000D03*
D46*
X115175000Y-128175000D03*
D45*
X126325000Y-113525000D03*
D47*
X128675000Y-128625000D03*
%TD*%
D48*
%TO.P,U9,*%
%TO.N,*%
X84360000Y-124830000D03*
X86900000Y-124830000D03*
X163100000Y-124830000D03*
X165640000Y-124830000D03*
%TO.P,U9,1,ROM_IN_1*%
%TO.N,Net-(U9-ROM_IN)*%
X100870000Y-56000000D03*
%TO.P,U9,2,ROM_OUT_2*%
%TO.N,unconnected-(U9-ROM_OUT-Pad2)*%
X103410000Y-56000000D03*
%TO.P,U9,3,ROM_SCK_3*%
%TO.N,Net-(U9-ROM_SCK)*%
X105950000Y-56000000D03*
%TO.P,U9,4,ROM_~{CS}_4*%
%TO.N,Net-(U9-ROM_~{CS})*%
X108490000Y-56000000D03*
%TO.P,U9,5,LEDA_5*%
%TO.N,LCD_LEDA*%
X111030000Y-56000000D03*
%TO.P,U9,6,VSS_6*%
%TO.N,GND*%
X113570000Y-56000000D03*
%TO.P,U9,7,VDD_7*%
%TO.N,+3.3V_MCU*%
X116110000Y-56000000D03*
%TO.P,U9,8,A0(RS)_8*%
%TO.N,LCD_D{slash}~{C}*%
X118650000Y-56000000D03*
%TO.P,U9,9,~{RST}_9*%
%TO.N,LCD_~{RST}*%
X121190000Y-56000000D03*
%TO.P,U9,10,~{CS}_10*%
%TO.N,SPI_~{CS}_LCD*%
X123730000Y-56000000D03*
%TO.P,U9,11,VDD_11*%
%TO.N,+3.3V_MCU*%
X126270000Y-56000000D03*
%TO.P,U9,12,VDD_12*%
X128810000Y-56000000D03*
%TO.P,U9,13,VDD_13*%
X131350000Y-56000000D03*
%TO.P,U9,14,VDD_14*%
X133890000Y-56000000D03*
%TO.P,U9,15,SDA_15*%
%TO.N,SPI_MOSI*%
X136430000Y-56000000D03*
%TO.P,U9,16,SDA_16*%
X138970000Y-56000000D03*
%TO.P,U9,17,SDA_17*%
X141510000Y-56000000D03*
%TO.P,U9,18,SCK_18*%
%TO.N,SPI_CLK*%
X144050000Y-56000000D03*
%TO.P,U9,19,VDD_19*%
%TO.N,+3.3V_MCU*%
X146590000Y-56000000D03*
%TO.P,U9,20,VDD_20*%
X149130000Y-56000000D03*
%TD*%
D12*
%TO.P,R13,1*%
%TO.N,VBAT*%
X83662500Y-70500000D03*
%TO.P,R13,2*%
%TO.N,PWR_MCU_EN*%
X81837500Y-70500000D03*
%TD*%
D49*
%TO.P,U3,1,GPB0_1*%
%TO.N,Net-(U3-GPB0)*%
X120900000Y-108255000D03*
%TO.P,U3,2,GPB1_2*%
%TO.N,Net-(U3-GPB1)*%
X120900000Y-106985000D03*
%TO.P,U3,3,GPB2_3*%
%TO.N,Net-(U3-GPB2)*%
X120900000Y-105715000D03*
%TO.P,U3,4,GPB3_4*%
%TO.N,Net-(U3-GPB3)*%
X120900000Y-104445000D03*
%TO.P,U3,5,GPB4_5*%
%TO.N,Net-(U3-GPB4)*%
X120900000Y-103175000D03*
%TO.P,U3,6,GPB5_6*%
%TO.N,Net-(U3-GPB5)*%
X120900000Y-101905000D03*
%TO.P,U3,7,GPB6_7*%
%TO.N,unconnected-(U3-GPB6-Pad7)*%
X120900000Y-100635000D03*
%TO.P,U3,8,GPB7_8*%
%TO.N,unconnected-(U3-GPB7-Pad8)*%
X120900000Y-99365000D03*
%TO.P,U3,9,V_{DD}_9*%
%TO.N,+3.3V_MCU*%
X120900000Y-98095000D03*
%TO.P,U3,10,V_{SS}_10*%
%TO.N,GND*%
X120900000Y-96825000D03*
%TO.P,U3,11,NC_11*%
%TO.N,unconnected-(U3-NC-Pad11)*%
X120900000Y-95555000D03*
%TO.P,U3,12,SCK_12*%
%TO.N,/MCU/I2C_SCL*%
X120900000Y-94285000D03*
%TO.P,U3,13,SDA_13*%
%TO.N,/MCU/I2C_SDA*%
X120900000Y-93015000D03*
%TO.P,U3,14,NC_14*%
%TO.N,unconnected-(U3-NC-Pad14)*%
X120900000Y-91745000D03*
%TO.P,U3,15,A0_15*%
%TO.N,GPIO_EXP_A0*%
X111600000Y-91745000D03*
%TO.P,U3,16,A1_16*%
%TO.N,GPIO_EXP_A1*%
X111600000Y-93015000D03*
%TO.P,U3,17,A2_17*%
%TO.N,GPIO_EXP_A2*%
X111600000Y-94285000D03*
%TO.P,U3,18,~{RESET}_18*%
%TO.N,Net-(U3-~{RESET})*%
X111600000Y-95555000D03*
%TO.P,U3,19,INTB_19*%
%TO.N,/MCU/~{INT}*%
X111600000Y-96825000D03*
%TO.P,U3,20,INTA_20*%
%TO.N,unconnected-(U3-INTA-Pad20)*%
X111600000Y-98095000D03*
%TO.P,U3,21,GPA0_21*%
%TO.N,BAT_MON_EN*%
X111600000Y-99365000D03*
%TO.P,U3,22,GPA1_22*%
%TO.N,PWR_PERIPH_EN*%
X111600000Y-100635000D03*
%TO.P,U3,23,GPA2_23*%
%TO.N,SPK_EN*%
X111600000Y-101905000D03*
%TO.P,U3,24,GPA3_24*%
%TO.N,LCD_~{RST}*%
X111600000Y-103175000D03*
%TO.P,U3,25,GPA4_25*%
%TO.N,/MCU/MCU_SLEEP_REQ*%
X111600000Y-104445000D03*
%TO.P,U3,26,GPA5_26*%
%TO.N,unconnected-(U3-GPA5-Pad26)*%
X111600000Y-105715000D03*
%TO.P,U3,27,GPA6_27*%
%TO.N,unconnected-(U3-GPA6-Pad27)*%
X111600000Y-106985000D03*
%TO.P,U3,28,GPA7_28*%
%TO.N,unconnected-(U3-GPA7-Pad28)*%
X111600000Y-108255000D03*
%TD*%
D11*
%TO.P,C19,1*%
%TO.N,+3.3V_PERIPH*%
X170500000Y-66862500D03*
%TO.P,C19,2*%
%TO.N,GND*%
X170500000Y-65137500D03*
%TD*%
D17*
%TO.P,R19,1*%
%TO.N,Net-(Q1-G)*%
X92250000Y-57662500D03*
%TO.P,R19,2*%
%TO.N,Net-(JP1-A)*%
X92250000Y-55837500D03*
%TD*%
D25*
%TO.P,L1,1*%
%TO.N,Net-(U12-LX1)*%
X93815000Y-114000000D03*
%TO.P,L1,2*%
%TO.N,Net-(U12-LX2)*%
X96185000Y-114000000D03*
%TD*%
D19*
%TO.P,R6,1*%
%TO.N,LCD_~{RST}*%
X108000000Y-102107500D03*
%TO.P,R6,2*%
%TO.N,GND*%
X108000000Y-103932500D03*
%TD*%
D22*
%TO.P,J1,1,Pin_1_1*%
%TO.N,VBAT*%
X56864000Y-64500000D03*
%TO.P,J1,2,Pin_2_2*%
%TO.N,GND*%
X56864000Y-61960000D03*
%TD*%
D50*
%TO.N,VBAT*%
X91250000Y-117250000D03*
X93250000Y-90250000D03*
X92000000Y-102250000D03*
X78750000Y-120000000D03*
X92000000Y-72250000D03*
X85000000Y-68862500D03*
X91250000Y-72250000D03*
X92000000Y-87250000D03*
X71500000Y-92540000D03*
X91250000Y-87250000D03*
X90500000Y-117250000D03*
X90500000Y-72250000D03*
X93250000Y-105250000D03*
X77000000Y-68912500D03*
X83000000Y-92500000D03*
X93250000Y-75250000D03*
X90500000Y-87250000D03*
X90500000Y-102250000D03*
X91250000Y-102250000D03*
X93250000Y-120250000D03*
X92000000Y-117250000D03*
%TO.N,GND*%
X100500000Y-104862500D03*
D51*
X95000000Y-115500000D03*
D52*
X170087500Y-70287500D03*
D50*
X99000000Y-105750000D03*
X126325000Y-114750000D03*
D52*
X170437500Y-69937500D03*
X170087500Y-69587500D03*
D50*
X81500000Y-84920000D03*
X112750000Y-60250000D03*
D53*
X171000000Y-92087500D03*
D50*
X118500000Y-63250000D03*
X96800000Y-89862500D03*
D51*
X119275000Y-112250000D03*
D50*
X155000000Y-107640000D03*
X78587500Y-110300000D03*
X98000000Y-113750000D03*
X91250000Y-98750000D03*
X100500000Y-74862500D03*
X122350000Y-85000000D03*
X90500000Y-83750000D03*
X167520000Y-105500000D03*
D52*
X170787500Y-70287500D03*
D50*
X159000000Y-107635000D03*
X97250000Y-60912500D03*
X159000000Y-106885000D03*
X167520000Y-104500000D03*
X127000000Y-80000000D03*
X99500000Y-98750000D03*
X114000000Y-128175000D03*
X90500000Y-113750000D03*
X176250000Y-70000000D03*
X91250000Y-113750000D03*
X116500000Y-68750000D03*
X170500000Y-64250000D03*
X75137500Y-116400000D03*
X98750000Y-68750000D03*
X90500000Y-75750000D03*
X81500000Y-100160000D03*
X92000000Y-113750000D03*
X96800000Y-74862500D03*
X155000000Y-106890000D03*
X91250000Y-105750000D03*
X90500000Y-120750000D03*
X80475000Y-120000000D03*
X109500000Y-105000000D03*
D51*
X95000000Y-84750000D03*
D50*
X105950000Y-62000000D03*
X159000000Y-79700000D03*
X98000000Y-83750000D03*
X92000000Y-105750000D03*
X92000000Y-98750000D03*
X77250000Y-70500000D03*
D51*
X95000000Y-99750000D03*
D50*
X108850000Y-67450000D03*
X98000000Y-68750000D03*
X169020000Y-113000000D03*
X99000000Y-107250000D03*
X114000000Y-117825000D03*
X155000000Y-115260000D03*
X91250000Y-90750000D03*
X92000000Y-68750000D03*
X99500000Y-68750000D03*
X119500000Y-96825000D03*
X108490000Y-62000000D03*
X92000000Y-90750000D03*
X159000000Y-78950000D03*
D51*
X95000000Y-69750000D03*
D50*
X112750000Y-125250000D03*
X99000000Y-120750000D03*
X127000000Y-80750000D03*
X91250000Y-75750000D03*
X99000000Y-75750000D03*
X172000000Y-64250000D03*
X90500000Y-98750000D03*
X98000000Y-98750000D03*
X135000000Y-114510000D03*
X71500000Y-100160000D03*
D51*
X119275000Y-109250000D03*
D50*
X92000000Y-75750000D03*
X71500000Y-84920000D03*
X90500000Y-105750000D03*
X91250000Y-120750000D03*
D51*
X95000000Y-114750000D03*
D50*
X135000000Y-115260000D03*
X108000000Y-105000000D03*
X114730000Y-75000000D03*
X100500000Y-119862500D03*
X99000000Y-90750000D03*
X92000000Y-83750000D03*
D51*
X95000000Y-70500000D03*
D50*
X112750000Y-61750000D03*
X99000000Y-77250000D03*
X111030000Y-62000000D03*
X116250000Y-117825000D03*
D51*
X95000000Y-100500000D03*
D50*
X92000000Y-120750000D03*
D51*
X76000000Y-110300000D03*
D50*
X175000000Y-64250000D03*
D51*
X119275000Y-114500000D03*
D50*
X135000000Y-116010000D03*
X98750000Y-113750000D03*
X116250000Y-128175000D03*
D52*
X170787500Y-69587500D03*
D50*
X114730000Y-85000000D03*
X99500000Y-83750000D03*
X98750000Y-98750000D03*
X96800000Y-119862500D03*
X113750000Y-121000000D03*
X98750000Y-83750000D03*
X102000000Y-60912500D03*
X155000000Y-116010000D03*
X83175000Y-67050000D03*
X130000000Y-128625000D03*
X126325000Y-112250000D03*
X173500000Y-64250000D03*
X111250000Y-125250000D03*
X90500000Y-90750000D03*
X99000000Y-122250000D03*
X113750000Y-119500000D03*
X91250000Y-68750000D03*
X159000000Y-80450000D03*
X100500000Y-89862500D03*
X90500000Y-68750000D03*
X96800000Y-104862500D03*
X99000000Y-92250000D03*
X127000000Y-79250000D03*
D51*
X95000000Y-85500000D03*
D50*
X107000000Y-98607500D03*
X99500000Y-113750000D03*
X155000000Y-114510000D03*
X91250000Y-83750000D03*
%TO.N,+3.3V_PERIPH*%
X95750000Y-54750000D03*
D51*
X113250000Y-111500000D03*
X169937500Y-67800000D03*
X176000000Y-67250000D03*
D50*
X110250000Y-120250000D03*
X96500000Y-54750000D03*
X103750000Y-87250000D03*
D51*
X169500000Y-66500000D03*
D50*
X102500000Y-84500000D03*
X98000000Y-54750000D03*
X102500000Y-79500000D03*
X110250000Y-119500000D03*
X99500000Y-72250000D03*
D51*
X169500000Y-67250000D03*
D50*
X98750000Y-87250000D03*
X98000000Y-72250000D03*
X103750000Y-82250000D03*
X97250000Y-54750000D03*
X103750000Y-77250000D03*
D51*
X169062500Y-67800000D03*
X176000000Y-66500000D03*
D50*
X98750000Y-72250000D03*
X98000000Y-87250000D03*
X99500000Y-87250000D03*
X103750000Y-72250000D03*
X110250000Y-121000000D03*
X102500000Y-74500000D03*
%TO.N,+3.3V_MCU*%
X98000000Y-102250000D03*
X99500000Y-117250000D03*
X126000000Y-89000000D03*
X130750000Y-79250000D03*
X129250000Y-61000000D03*
X113087500Y-66500000D03*
X178750000Y-68400000D03*
X117270000Y-75000000D03*
X109650000Y-75000000D03*
X128250000Y-61000000D03*
X119250000Y-61000000D03*
X128750000Y-61750000D03*
X109650000Y-85000000D03*
X117250000Y-61000000D03*
D53*
X173270000Y-117000000D03*
D50*
X130750000Y-80750000D03*
X119500000Y-98095000D03*
X98750000Y-117250000D03*
X119750000Y-61750000D03*
X118250000Y-61000000D03*
X127500000Y-89000000D03*
X117750000Y-61750000D03*
X130750000Y-80000000D03*
X118750000Y-61750000D03*
X126250000Y-61000000D03*
X126750000Y-61750000D03*
X107000000Y-96932500D03*
X125750000Y-61750000D03*
X98000000Y-117250000D03*
X116750000Y-61750000D03*
X98750000Y-102250000D03*
X127750000Y-61750000D03*
X127250000Y-61000000D03*
X117270000Y-85000000D03*
X99500000Y-102250000D03*
D51*
%TO.N,+3.3V_SD*%
X121475000Y-110750000D03*
X121475000Y-112250000D03*
X121475000Y-114500000D03*
X111050000Y-112000000D03*
X111050000Y-112750000D03*
X111050000Y-114250000D03*
D50*
%TO.N,/MCU/~{INT}*%
X120000000Y-87320000D03*
X120000000Y-69750000D03*
%TO.N,GPIO_EXP_A2*%
X112190000Y-75000000D03*
X113500000Y-94285000D03*
%TO.N,BAT_MON_ADC*%
X78000000Y-108000000D03*
X135000000Y-126500000D03*
%TO.N,SPI_CLK*%
X128500000Y-105100000D03*
%TO.N,SPI_MOSI*%
X128500000Y-107640000D03*
%TO.N,SPI_~{CS}_LCD*%
X123730000Y-61000000D03*
%TO.N,/MCU/MCU_SLEEP_REQ*%
X117000000Y-104445000D03*
X118250000Y-67400000D03*
%TO.N,Net-(U3-GPB3)*%
X122500000Y-104445000D03*
%TO.N,Net-(U3-GPB1)*%
X119015000Y-106985000D03*
%TO.N,SPK_EN*%
X176250000Y-68500000D03*
X128500000Y-100500000D03*
%TO.N,Net-(U3-GPB2)*%
X122500000Y-105715000D03*
%TO.N,Net-(U3-GPB4)*%
X122500000Y-103175000D03*
D53*
%TO.N,Net-(BT1-+)*%
X169020000Y-117000000D03*
D50*
%TO.N,LCD_~{RST}*%
X118000000Y-103175000D03*
%TD*%
%TO.N,VBAT*%
D54*
X83000000Y-92500000D02*
X82960000Y-92540000D01*
X94250000Y-75250000D02*
X94500000Y-75000000D01*
D55*
X83137500Y-68000000D02*
X84000000Y-68862500D01*
D54*
X94500000Y-105000000D02*
X94500000Y-104462500D01*
X93250000Y-120250000D02*
X94250000Y-120250000D01*
X94250000Y-120250000D02*
X94500000Y-120000000D01*
X94500000Y-75000000D02*
X94500000Y-74462500D01*
X93250000Y-75250000D02*
X94250000Y-75250000D01*
X94250000Y-90250000D02*
X94500000Y-90000000D01*
X78912500Y-68000000D02*
X78000000Y-68912500D01*
D55*
X78550000Y-117137500D02*
X78550000Y-118800000D01*
D54*
X83662500Y-70500000D02*
X83662500Y-69200000D01*
X93250000Y-105250000D02*
X94250000Y-105250000D01*
D55*
X85000000Y-68862500D02*
X84000000Y-68862500D01*
D54*
X83662500Y-69200000D02*
X84000000Y-68862500D01*
D55*
X82137500Y-68000000D02*
X83137500Y-68000000D01*
D54*
X94250000Y-105250000D02*
X94500000Y-105000000D01*
D55*
X77000000Y-118862500D02*
X78612500Y-118862500D01*
X78550000Y-118800000D02*
X78750000Y-119000000D01*
D54*
X77000000Y-68912500D02*
X78000000Y-68912500D01*
X94500000Y-90000000D02*
X94500000Y-89462500D01*
X82137500Y-68000000D02*
X78912500Y-68000000D01*
X82960000Y-92540000D02*
X79025000Y-92540000D01*
D55*
X78612500Y-118862500D02*
X78750000Y-119000000D01*
D54*
X94500000Y-120000000D02*
X94500000Y-119462500D01*
X71500000Y-92540000D02*
X73975000Y-92540000D01*
X93250000Y-90250000D02*
X94250000Y-90250000D01*
D55*
X78750000Y-120000000D02*
X78750000Y-119000000D01*
%TO.N,GND*%
D54*
X95000000Y-102037500D02*
X95000000Y-102900000D01*
D56*
X112862500Y-121000000D02*
X113750000Y-121000000D01*
D54*
X122350000Y-85000000D02*
X122350000Y-82525000D01*
X169000000Y-70187500D02*
X169987500Y-70187500D01*
X113612500Y-62115000D02*
X113977500Y-61750000D01*
D55*
X95000000Y-100500000D02*
X95000000Y-99750000D01*
D57*
X61000000Y-83750000D02*
X61000000Y-86175000D01*
D54*
X114730000Y-75000000D02*
X114730000Y-77475000D01*
X81500000Y-100160000D02*
X79025000Y-100160000D01*
D55*
X117362500Y-63250000D02*
X118500000Y-63250000D01*
D54*
X169987500Y-70187500D02*
X170087500Y-70287500D01*
X95000000Y-87037500D02*
X95000000Y-87900000D01*
X95000000Y-72037500D02*
X95000000Y-70500000D01*
X108000000Y-103932500D02*
X108000000Y-105000000D01*
D55*
X78587500Y-110300000D02*
X78587500Y-111250000D01*
X76000000Y-110300000D02*
X76000000Y-111362500D01*
D54*
X109500000Y-98607500D02*
X108000000Y-98607500D01*
X95000000Y-117037500D02*
X95000000Y-117900000D01*
X170687500Y-70387500D02*
X170787500Y-70287500D01*
D58*
X115175000Y-117825000D02*
X116250000Y-117825000D01*
X115175000Y-128175000D02*
X116250000Y-128175000D01*
D54*
X71500000Y-100160000D02*
X73975000Y-100160000D01*
D59*
X97250000Y-60912500D02*
X100870000Y-60912500D01*
D56*
X108800000Y-67450000D02*
X108087500Y-67450000D01*
D55*
X122772500Y-96825000D02*
X123000000Y-96597500D01*
D60*
X119275000Y-113525000D02*
X119275000Y-114500000D01*
D54*
X107000000Y-98607500D02*
X108000000Y-98607500D01*
X95000000Y-102037500D02*
X95000000Y-100500000D01*
X81500000Y-84920000D02*
X79025000Y-84920000D01*
X71500000Y-84920000D02*
X73975000Y-84920000D01*
D55*
X95000000Y-85500000D02*
X95000000Y-84750000D01*
X120900000Y-96825000D02*
X119500000Y-96825000D01*
D58*
X128675000Y-128625000D02*
X130000000Y-128625000D01*
D56*
X108800000Y-67450000D02*
X109862500Y-67450000D01*
D59*
X97250000Y-57612500D02*
X97250000Y-60912500D01*
D56*
X83912500Y-67050000D02*
X84000000Y-67137500D01*
D55*
X79500000Y-118025000D02*
X80475000Y-119000000D01*
D58*
X114000000Y-117825000D02*
X115175000Y-117825000D01*
X126325000Y-113525000D02*
X126325000Y-114750000D01*
D55*
X170275000Y-113000000D02*
X169020000Y-113000000D01*
X80475000Y-120000000D02*
X80475000Y-119000000D01*
D54*
X114730000Y-85000000D02*
X114730000Y-82525000D01*
D55*
X95000000Y-115500000D02*
X95000000Y-114750000D01*
D57*
X61000000Y-86175000D02*
X61040000Y-86215000D01*
D56*
X108087500Y-67450000D02*
X108000000Y-67362500D01*
D55*
X95000000Y-70500000D02*
X95000000Y-69750000D01*
X112000000Y-117637500D02*
X112000000Y-118637500D01*
D56*
X112862500Y-119500000D02*
X113750000Y-119500000D01*
D54*
X95000000Y-87037500D02*
X95000000Y-85500000D01*
D55*
X112000000Y-118637500D02*
X112862500Y-119500000D01*
D58*
X126325000Y-112250000D02*
X126325000Y-113525000D01*
D55*
X79500000Y-117137500D02*
X79500000Y-118025000D01*
D54*
X170687500Y-71375000D02*
X170687500Y-70387500D01*
D58*
X114000000Y-128175000D02*
X115175000Y-128175000D01*
D54*
X170887500Y-69687500D02*
X170787500Y-69587500D01*
X113612500Y-63750000D02*
X113612500Y-62115000D01*
D55*
X75137500Y-116400000D02*
X75137500Y-115500000D01*
D58*
X100870000Y-60912500D02*
X102000000Y-60912500D01*
D54*
X95000000Y-117037500D02*
X95000000Y-115500000D01*
D56*
X82137500Y-67050000D02*
X83912500Y-67050000D01*
D54*
X109500000Y-103932500D02*
X109500000Y-105000000D01*
X176250000Y-70000000D02*
X177612500Y-70000000D01*
X175162500Y-70000000D02*
X176250000Y-70000000D01*
X95000000Y-72037500D02*
X95000000Y-72900000D01*
X171875000Y-69687500D02*
X170887500Y-69687500D01*
D56*
X78387500Y-70500000D02*
X77250000Y-70500000D01*
D55*
X120900000Y-96825000D02*
X122772500Y-96825000D01*
X116500000Y-67400000D02*
X116500000Y-68750000D01*
%TO.N,+3.3V_PERIPH*%
D54*
X175162500Y-71500000D02*
X174250000Y-70587500D01*
D59*
X114087500Y-111500000D02*
X113250000Y-111500000D01*
D54*
X174250000Y-70587500D02*
X174250000Y-67500000D01*
X175000000Y-66862500D02*
X174887500Y-66862500D01*
X174887500Y-66862500D02*
X174250000Y-67500000D01*
%TO.N,Net-(J2-DET_B)*%
D60*
X116125000Y-111712500D02*
X115912500Y-111500000D01*
X116125000Y-113525000D02*
X116125000Y-111712500D01*
%TO.N,Net-(R33-Pad2)*%
D54*
X95000000Y-107912500D02*
X96500000Y-107912500D01*
X98087500Y-106500000D02*
X98087500Y-108000000D01*
X98000000Y-107912500D02*
X98087500Y-108000000D01*
X96500000Y-107912500D02*
X98000000Y-107912500D01*
%TO.N,Net-(JP1-A)*%
D59*
X94750000Y-53612500D02*
X92637500Y-53612500D01*
X92637500Y-53612500D02*
X92250000Y-54000000D01*
X92250000Y-54000000D02*
X92250000Y-55837500D01*
%TO.N,LCD_LEDA*%
D61*
X111030000Y-53460000D02*
X111030000Y-56000000D01*
D59*
X111030000Y-59137500D02*
X111030000Y-56000000D01*
%TO.N,/Jumpers/PWR_PERIPH_EN_JP*%
D54*
X78000000Y-90000000D02*
X76000000Y-88000000D01*
X79025000Y-90000000D02*
X78000000Y-90000000D01*
X72000000Y-83000000D02*
X72000000Y-80750000D01*
X72000000Y-80750000D02*
X72910000Y-79840000D01*
X72910000Y-79840000D02*
X73975000Y-79840000D01*
X75500000Y-83750000D02*
X72750000Y-83750000D01*
X76000000Y-88000000D02*
X76000000Y-84250000D01*
X72750000Y-83750000D02*
X72000000Y-83000000D01*
X79025000Y-79840000D02*
X73975000Y-79840000D01*
X76000000Y-84250000D02*
X75500000Y-83750000D01*
%TO.N,DCDC_PERIPH1_EN*%
X93212500Y-89462500D02*
X94000000Y-89462500D01*
X77000000Y-84500000D02*
X77000000Y-86000000D01*
X85250000Y-86250000D02*
X88000000Y-89000000D01*
X73975000Y-82380000D02*
X74880000Y-82380000D01*
X74880000Y-82380000D02*
X77000000Y-84500000D01*
X92750000Y-89000000D02*
X93212500Y-89462500D01*
X77000000Y-86000000D02*
X77250000Y-86250000D01*
X88000000Y-89000000D02*
X92750000Y-89000000D01*
X77250000Y-86250000D02*
X85250000Y-86250000D01*
%TO.N,DCDC_PERIPH2_EN*%
X79025000Y-82380000D02*
X86120000Y-82380000D01*
X92750000Y-74000000D02*
X89000000Y-74000000D01*
X93212500Y-74462500D02*
X92750000Y-74000000D01*
X94000000Y-74462500D02*
X93212500Y-74462500D01*
X86120000Y-82380000D02*
X88000000Y-80500000D01*
X88000000Y-75000000D02*
X88000000Y-80500000D01*
X89000000Y-74000000D02*
X88000000Y-75000000D01*
%TO.N,PWR_MCU_EN*%
X81837500Y-74662500D02*
X80500000Y-76000000D01*
X80500000Y-76000000D02*
X73500000Y-76000000D01*
X73500000Y-76000000D02*
X70750000Y-78750000D01*
X70750000Y-78750000D02*
X70750000Y-85250000D01*
X70750000Y-85250000D02*
X72960000Y-87460000D01*
X82137500Y-70200000D02*
X81837500Y-70500000D01*
X72960000Y-87460000D02*
X73975000Y-87460000D01*
X82137500Y-68950000D02*
X82137500Y-70200000D01*
X81837500Y-70500000D02*
X81837500Y-74662500D01*
%TO.N,PWR_PERIPH_EN*%
X101795000Y-97795000D02*
X99500000Y-95500000D01*
X113000000Y-97500000D02*
X112970000Y-97470000D01*
X114000000Y-98000000D02*
X113500000Y-97500000D01*
X110302076Y-97470000D02*
X109977076Y-97795000D01*
X111600000Y-100635000D02*
X113365000Y-100635000D01*
X109977076Y-97795000D02*
X101795000Y-97795000D01*
X114000000Y-100000000D02*
X114000000Y-98000000D01*
X109702500Y-100635000D02*
X109500000Y-100432500D01*
X90500000Y-95500000D02*
X82460000Y-87460000D01*
X113500000Y-97500000D02*
X113000000Y-97500000D01*
X82460000Y-87460000D02*
X79025000Y-87460000D01*
X113365000Y-100635000D02*
X114000000Y-100000000D01*
X112970000Y-97470000D02*
X110302076Y-97470000D01*
X111600000Y-100635000D02*
X109702500Y-100635000D01*
X99500000Y-95500000D02*
X90500000Y-95500000D01*
%TO.N,/Jumpers/PWR_MCU_EN_JP*%
X76500000Y-91500000D02*
X76500000Y-95080000D01*
X76500000Y-95080000D02*
X79025000Y-95080000D01*
X73975000Y-90000000D02*
X75000000Y-90000000D01*
X75000000Y-90000000D02*
X76500000Y-91500000D01*
X73975000Y-95080000D02*
X76500000Y-95080000D01*
%TO.N,DCDC_MCU1_EN*%
X90000000Y-119000000D02*
X92750000Y-119000000D01*
X75120000Y-97620000D02*
X76500000Y-99000000D01*
X93212500Y-119462500D02*
X94000000Y-119462500D01*
X92750000Y-119000000D02*
X93212500Y-119462500D01*
X76500000Y-99000000D02*
X76500000Y-102000000D01*
X87000000Y-116000000D02*
X90000000Y-119000000D01*
X76500000Y-102000000D02*
X87000000Y-112500000D01*
X73975000Y-97620000D02*
X75120000Y-97620000D01*
X87000000Y-112500000D02*
X87000000Y-116000000D01*
%TO.N,DCDC_MCU2_EN*%
X85620000Y-97620000D02*
X87000000Y-99000000D01*
X87000000Y-99000000D02*
X87000000Y-102500000D01*
X87000000Y-102500000D02*
X88500000Y-104000000D01*
X79025000Y-97620000D02*
X85620000Y-97620000D01*
X92750000Y-104000000D02*
X93212500Y-104462500D01*
X93212500Y-104462500D02*
X94000000Y-104462500D01*
X88500000Y-104000000D02*
X92750000Y-104000000D01*
%TO.N,BAT_MON_EN*%
X106000000Y-125000000D02*
X106000000Y-101000000D01*
X80450000Y-117137500D02*
X82637500Y-117137500D01*
X111600000Y-99365000D02*
X111545000Y-99420000D01*
X106567500Y-100432500D02*
X108000000Y-100432500D01*
X82637500Y-117137500D02*
X92500000Y-127000000D01*
X92500000Y-127000000D02*
X104000000Y-127000000D01*
X109012500Y-99420000D02*
X108000000Y-100432500D01*
X106000000Y-101000000D02*
X106567500Y-100432500D01*
X111545000Y-99420000D02*
X109012500Y-99420000D01*
X104000000Y-127000000D02*
X106000000Y-125000000D01*
%TO.N,+3.3V_MCU*%
D55*
X115637500Y-63250000D02*
X115637500Y-61815000D01*
D56*
X178750000Y-69524999D02*
X178750000Y-68400000D01*
D55*
X115637500Y-61815000D02*
X115702500Y-61750000D01*
D54*
X113087500Y-66500000D02*
X114000000Y-65587500D01*
X114000000Y-65587500D02*
X114662500Y-66250000D01*
X116500000Y-65625908D02*
X116500000Y-65100000D01*
D55*
X120900000Y-98095000D02*
X122772500Y-98095000D01*
D54*
X108337500Y-65300000D02*
X108000000Y-65637500D01*
X114662500Y-66250000D02*
X115875908Y-66250000D01*
X109500000Y-96932500D02*
X108000000Y-96932500D01*
D56*
X179225001Y-70000000D02*
X178750000Y-69524999D01*
D55*
X116500000Y-64112500D02*
X115637500Y-63250000D01*
X116500000Y-65100000D02*
X116500000Y-64112500D01*
D54*
X117270000Y-82525000D02*
X117270000Y-85000000D01*
D55*
X120900000Y-98095000D02*
X119500000Y-98095000D01*
D54*
X109650000Y-77475000D02*
X109650000Y-75000000D01*
D55*
X179887500Y-70000000D02*
X179225001Y-70000000D01*
D54*
X108337500Y-63750000D02*
X108337500Y-65300000D01*
D55*
X108862500Y-66500000D02*
X109862500Y-66500000D01*
X122772500Y-98095000D02*
X123000000Y-98322500D01*
D54*
X109650000Y-82525000D02*
X109650000Y-85000000D01*
X127500000Y-90217500D02*
X127500000Y-89000000D01*
X126000000Y-90217500D02*
X126000000Y-89000000D01*
X115875908Y-66250000D02*
X116500000Y-65625908D01*
X117270000Y-77475000D02*
X117270000Y-75000000D01*
D62*
X172137500Y-117000000D02*
X173270000Y-117000000D01*
D55*
X109862500Y-66500000D02*
X113087500Y-66500000D01*
X108000000Y-65637500D02*
X108862500Y-66500000D01*
D54*
X107000000Y-96932500D02*
X108000000Y-96932500D01*
%TO.N,Net-(U3-~{RESET})*%
X109947500Y-95555000D02*
X109500000Y-95107500D01*
X111600000Y-95555000D02*
X109947500Y-95555000D01*
%TO.N,Net-(D1-K)*%
D55*
X172137500Y-114500000D02*
X170137500Y-114500000D01*
X172155000Y-114482500D02*
X172137500Y-114500000D01*
X172155000Y-110975000D02*
X172155000Y-114482500D01*
%TO.N,+3.3V_SD*%
X111050000Y-112000000D02*
X111050000Y-112750000D01*
D54*
X123000000Y-110162500D02*
X121525000Y-110162500D01*
X121525000Y-110162500D02*
X121362500Y-110000000D01*
D60*
X121475000Y-113525000D02*
X121475000Y-114500000D01*
D55*
X111050000Y-114250000D02*
X111050000Y-112750000D01*
X111050000Y-115362500D02*
X111050000Y-114250000D01*
%TO.N,Net-(U15-CFG1)*%
D54*
X95000000Y-74462500D02*
X95000000Y-76087500D01*
X95000000Y-76087500D02*
X96500000Y-76087500D01*
%TO.N,Net-(R41-Pad2)*%
X98087500Y-76500000D02*
X98087500Y-78000000D01*
X98000000Y-77912500D02*
X98087500Y-78000000D01*
X95000000Y-77912500D02*
X96500000Y-77912500D01*
X96500000Y-77912500D02*
X98000000Y-77912500D01*
%TO.N,Net-(U3-GPB5)*%
X107470000Y-101280000D02*
X107000000Y-101750000D01*
X56000000Y-96225000D02*
X56000000Y-114000000D01*
X104500000Y-128000000D02*
X92000000Y-128000000D01*
X63000000Y-121000000D02*
X60580000Y-118580000D01*
X120900000Y-101905000D02*
X119405000Y-101905000D01*
X118780000Y-101280000D02*
X107470000Y-101280000D01*
X85000000Y-121000000D02*
X63000000Y-121000000D01*
X107000000Y-125500000D02*
X104500000Y-128000000D01*
X92000000Y-128000000D02*
X85000000Y-121000000D01*
X119405000Y-101905000D02*
X118780000Y-101280000D01*
X56000000Y-83725000D02*
X56000000Y-96225000D01*
X107000000Y-101750000D02*
X107000000Y-125500000D01*
X63580000Y-92540000D02*
X56000000Y-92540000D01*
X56000000Y-114000000D02*
X60580000Y-118580000D01*
%TO.N,Net-(U6-CT)*%
X79862500Y-70250000D02*
X80112500Y-70500000D01*
X79862500Y-68950000D02*
X79862500Y-70250000D01*
%TO.N,Net-(J3-Pin_1)*%
X178912500Y-73587500D02*
X177350000Y-73587500D01*
X179887500Y-70950000D02*
X179887500Y-72612500D01*
X179887500Y-72612500D02*
X178912500Y-73587500D01*
%TO.N,Net-(U12-CFG1)*%
X95000000Y-121087500D02*
X96500000Y-121087500D01*
X95000000Y-119462500D02*
X95000000Y-121087500D01*
%TO.N,Net-(R29-Pad2)*%
X98000000Y-122912500D02*
X98087500Y-123000000D01*
X98087500Y-121500000D02*
X98087500Y-123000000D01*
X96500000Y-122912500D02*
X98000000Y-122912500D01*
X95000000Y-122912500D02*
X96500000Y-122912500D01*
%TO.N,Net-(U9-ROM_~{CS})*%
D59*
X108490000Y-56000000D02*
X108490000Y-59087500D01*
%TO.N,Net-(U4-OSCI)*%
D55*
X172155000Y-103115000D02*
X172770000Y-102500000D01*
X172155000Y-105025000D02*
X172155000Y-103115000D01*
%TO.N,Net-(U4-OSCO)*%
X170885000Y-105025000D02*
X170885000Y-103115000D01*
X170885000Y-103115000D02*
X170270000Y-102500000D01*
%TO.N,/MCU/~{INT}*%
D54*
X115550000Y-69050000D02*
X116250000Y-69750000D01*
X108000000Y-95107500D02*
X108912500Y-96020000D01*
X133025000Y-87320000D02*
X137320000Y-87320000D01*
X165000000Y-111000000D02*
X169615000Y-106385000D01*
X115675000Y-96825000D02*
X111600000Y-96825000D01*
X115550000Y-67400000D02*
X115550000Y-69050000D01*
X110020000Y-96020000D02*
X110825000Y-96825000D01*
X117500000Y-89820000D02*
X120000000Y-87320000D01*
X148000000Y-119000000D02*
X163250000Y-119000000D01*
X116250000Y-69750000D02*
X120000000Y-69750000D01*
X120000000Y-87320000D02*
X133025000Y-87320000D01*
X117500000Y-95000000D02*
X117500000Y-89820000D01*
X117500000Y-95000000D02*
X115675000Y-96825000D01*
X146000000Y-96000000D02*
X146000000Y-117000000D01*
X165000000Y-117250000D02*
X165000000Y-111000000D01*
X137320000Y-87320000D02*
X146000000Y-96000000D01*
X110825000Y-96825000D02*
X111600000Y-96825000D01*
X146000000Y-117000000D02*
X148000000Y-119000000D01*
X169615000Y-106385000D02*
X169615000Y-105025000D01*
X163250000Y-119000000D02*
X165000000Y-117250000D01*
X108912500Y-96020000D02*
X110020000Y-96020000D01*
%TO.N,/MCU/I2C_SDA*%
X166000000Y-111250000D02*
X167275000Y-109975000D01*
X120900000Y-93015000D02*
X125027500Y-93015000D01*
X145000000Y-98000000D02*
X145000000Y-118000000D01*
X145000000Y-118000000D02*
X147000000Y-120000000D01*
X129370000Y-91130000D02*
X126912500Y-91130000D01*
X147000000Y-120000000D02*
X164000000Y-120000000D01*
X130640000Y-89860000D02*
X129370000Y-91130000D01*
X133025000Y-89860000D02*
X130640000Y-89860000D01*
X167275000Y-109975000D02*
X168345000Y-109975000D01*
X164000000Y-120000000D02*
X166000000Y-118000000D01*
X125027500Y-93015000D02*
X126000000Y-92042500D01*
X136860000Y-89860000D02*
X145000000Y-98000000D01*
X126912500Y-91130000D02*
X126000000Y-92042500D01*
X166000000Y-118000000D02*
X166000000Y-111250000D01*
X133025000Y-89860000D02*
X136860000Y-89860000D01*
%TO.N,/MCU/I2C_SCL*%
X165000000Y-121000000D02*
X167000000Y-119000000D01*
X132667500Y-92042500D02*
X133025000Y-92400000D01*
X125257500Y-94285000D02*
X127500000Y-92042500D01*
X167000000Y-119000000D02*
X167000000Y-113000000D01*
X127500000Y-92042500D02*
X132667500Y-92042500D01*
X169615000Y-111135000D02*
X169615000Y-109975000D01*
X146000000Y-121000000D02*
X165000000Y-121000000D01*
X136400000Y-92400000D02*
X144000000Y-100000000D01*
X144000000Y-119000000D02*
X146000000Y-121000000D01*
X133025000Y-92400000D02*
X136400000Y-92400000D01*
X169250000Y-111500000D02*
X169615000Y-111135000D01*
X144000000Y-100000000D02*
X144000000Y-119000000D01*
X120900000Y-94285000D02*
X125257500Y-94285000D01*
X168500000Y-111500000D02*
X169250000Y-111500000D01*
X167000000Y-113000000D02*
X168500000Y-111500000D01*
%TO.N,/MCU/MCU_SLOW_CLK*%
X170500000Y-112000000D02*
X170885000Y-111615000D01*
X143000000Y-102000000D02*
X143000000Y-120000000D01*
X168000000Y-120000000D02*
X168000000Y-112750000D01*
X135940000Y-94940000D02*
X143000000Y-102000000D01*
X143000000Y-120000000D02*
X145000000Y-122000000D01*
X166000000Y-122000000D02*
X168000000Y-120000000D01*
X168000000Y-112750000D02*
X168750000Y-112000000D01*
X145000000Y-122000000D02*
X166000000Y-122000000D01*
X170885000Y-111615000D02*
X170885000Y-109975000D01*
X168750000Y-112000000D02*
X170500000Y-112000000D01*
X133025000Y-94940000D02*
X135940000Y-94940000D01*
%TO.N,Net-(U1-~{RESET})*%
X112750000Y-63250000D02*
X112750000Y-64250000D01*
X112750000Y-64250000D02*
X113250000Y-64750000D01*
X112450000Y-62950000D02*
X112750000Y-63250000D01*
X109862500Y-64300000D02*
X110162500Y-64000000D01*
X113250000Y-64750000D02*
X115550000Y-64750000D01*
X111050000Y-62950000D02*
X112450000Y-62950000D01*
X115550000Y-65100000D02*
X115550000Y-64750000D01*
X109862500Y-65550000D02*
X109862500Y-64300000D01*
X110162500Y-63750000D02*
X110250000Y-63750000D01*
X110250000Y-63750000D02*
X111050000Y-62950000D01*
%TO.N,Net-(U7-CT)*%
X78137500Y-116000000D02*
X77000000Y-117137500D01*
X80250000Y-116000000D02*
X78137500Y-116000000D01*
X80450000Y-114862500D02*
X80450000Y-115800000D01*
X80450000Y-115800000D02*
X80250000Y-116000000D01*
%TO.N,Net-(U7-VOUT)*%
X78587500Y-114825000D02*
X78550000Y-114862500D01*
X77900000Y-112950000D02*
X78587500Y-112950000D01*
X77450000Y-113400000D02*
X77900000Y-112950000D01*
X76950000Y-113637500D02*
X76950000Y-113400000D01*
X78550000Y-114862500D02*
X78550000Y-115200000D01*
X76950000Y-115412500D02*
X76862500Y-115500000D01*
X77700000Y-115500000D02*
X76862500Y-115500000D01*
X76950000Y-113400000D02*
X77450000Y-113400000D01*
X78587500Y-112950000D02*
X78587500Y-114825000D01*
X78000000Y-115200000D02*
X77700000Y-115500000D01*
X78550000Y-115200000D02*
X78000000Y-115200000D01*
X76950000Y-113637500D02*
X76950000Y-115412500D01*
%TO.N,I2S_DATA*%
X171875000Y-75395000D02*
X171270000Y-76000000D01*
X171875000Y-70687500D02*
X171875000Y-75395000D01*
X171270000Y-89730000D02*
X163520000Y-97480000D01*
X171270000Y-76000000D02*
X171270000Y-89730000D01*
X163520000Y-97480000D02*
X156975000Y-97480000D01*
%TO.N,Net-(U11-GAIN_SLOT)*%
X173337500Y-71500000D02*
X173337500Y-70000000D01*
X171875000Y-70187500D02*
X173150000Y-70187500D01*
X173150000Y-70187500D02*
X173337500Y-70000000D01*
%TO.N,Net-(U11-~{SD_MODE})*%
X171875000Y-69187500D02*
X172650000Y-69187500D01*
X172650000Y-69187500D02*
X173337500Y-68500000D01*
%TO.N,I2S_LRCK*%
X170187500Y-74312500D02*
X165920000Y-78580000D01*
X165920000Y-89580000D02*
X163100000Y-92400000D01*
X170187500Y-71375000D02*
X170187500Y-74312500D01*
X165920000Y-78580000D02*
X165920000Y-89580000D01*
X163100000Y-92400000D02*
X156975000Y-92400000D01*
%TO.N,I2S_BCLK*%
X164060000Y-94940000D02*
X170730000Y-88270000D01*
X170730000Y-88270000D02*
X170730000Y-75500000D01*
X171187500Y-71375000D02*
X171187500Y-75042500D01*
X171187500Y-75042500D02*
X170730000Y-75500000D01*
X156975000Y-94940000D02*
X164060000Y-94940000D01*
%TO.N,Net-(U6-~{MR})*%
X79862500Y-67050000D02*
X78037500Y-67050000D01*
X78037500Y-67050000D02*
X78000000Y-67087500D01*
%TO.N,GPIO_EXP_A1*%
X112190000Y-88310000D02*
X112190000Y-82525000D01*
X109500000Y-92500000D02*
X109500000Y-91000000D01*
X109500000Y-91000000D02*
X112190000Y-88310000D01*
X110015000Y-93015000D02*
X109500000Y-92500000D01*
X111600000Y-93015000D02*
X110015000Y-93015000D01*
%TO.N,GPIO_EXP_A2*%
X111600000Y-94285000D02*
X113500000Y-94285000D01*
X112190000Y-77475000D02*
X112190000Y-75000000D01*
%TO.N,GPIO_EXP_A0*%
X119810000Y-85690000D02*
X113755000Y-91745000D01*
X119810000Y-82525000D02*
X119810000Y-85690000D01*
X113755000Y-91745000D02*
X111600000Y-91745000D01*
%TO.N,MCU_EN*%
X119810000Y-79310000D02*
X120000000Y-79500000D01*
X120000000Y-79500000D02*
X123750000Y-79500000D01*
X123750000Y-79500000D02*
X126490000Y-82240000D01*
X126490000Y-82240000D02*
X133025000Y-82240000D01*
X119810000Y-77475000D02*
X119810000Y-79310000D01*
%TO.N,MCU_EN_JP*%
X122350000Y-66100000D02*
X121350000Y-65100000D01*
X121350000Y-65100000D02*
X117450000Y-65100000D01*
X122350000Y-77475000D02*
X122350000Y-66100000D01*
%TO.N,Net-(U1-CT)*%
X112137500Y-65550000D02*
X112137500Y-64250000D01*
X112137500Y-64250000D02*
X111887500Y-64000000D01*
%TO.N,LCD_LEDA_PWM*%
D59*
X105000000Y-76000000D02*
X105000000Y-71000000D01*
X109200000Y-80200000D02*
X105000000Y-76000000D01*
X133025000Y-84780000D02*
X127830000Y-84780000D01*
X123250000Y-80200000D02*
X109200000Y-80200000D01*
X127830000Y-84780000D02*
X123250000Y-80200000D01*
X105000000Y-71000000D02*
X95662500Y-61662500D01*
X95662500Y-61662500D02*
X95662500Y-59250000D01*
%TO.N,BAT_MON_ADC*%
D56*
X138500000Y-100000000D02*
X135980000Y-97480000D01*
D55*
X76950000Y-108037500D02*
X76912500Y-108000000D01*
D56*
X138500000Y-123000000D02*
X138500000Y-100000000D01*
X135980000Y-97480000D02*
X133025000Y-97480000D01*
D55*
X76950000Y-111362500D02*
X76950000Y-108037500D01*
X76912500Y-108000000D02*
X78000000Y-108000000D01*
D56*
X135000000Y-126500000D02*
X138500000Y-123000000D01*
%TO.N,SPI_MISO*%
D54*
X127487924Y-102560000D02*
X133025000Y-102560000D01*
X119380000Y-107620000D02*
X122427924Y-107620000D01*
X118175000Y-108825000D02*
X119380000Y-107620000D01*
X118175000Y-113525000D02*
X118175000Y-108825000D01*
X122427924Y-107620000D02*
X127487924Y-102560000D01*
%TO.N,SPI_CLK*%
X133025000Y-105100000D02*
X128500000Y-105100000D01*
X120500000Y-109500000D02*
X120500000Y-113400000D01*
X123427076Y-109200000D02*
X120800000Y-109200000D01*
X120800000Y-109200000D02*
X120500000Y-109500000D01*
X120500000Y-113400000D02*
X120375000Y-113525000D01*
X128500000Y-105100000D02*
X127527076Y-105100000D01*
X127527076Y-105100000D02*
X123427076Y-109200000D01*
%TO.N,SPI_MOSI*%
X128500000Y-107640000D02*
X133025000Y-107640000D01*
X122575000Y-111925000D02*
X122575000Y-113525000D01*
X126860000Y-107640000D02*
X122575000Y-111925000D01*
X128500000Y-107640000D02*
X126860000Y-107640000D01*
%TO.N,SPI_~{CS}_SD*%
X125820000Y-110180000D02*
X133025000Y-110180000D01*
X123675000Y-113525000D02*
X123675000Y-112325000D01*
X123675000Y-112325000D02*
X125820000Y-110180000D01*
%TO.N,ACOM_PU*%
X157332500Y-102202500D02*
X156975000Y-102560000D01*
X160000000Y-102202500D02*
X157332500Y-102202500D01*
%TO.N,ACOM_OD*%
X160000000Y-100377500D02*
X157332500Y-100377500D01*
X176080000Y-98920000D02*
X174622500Y-100377500D01*
X176710000Y-70950000D02*
X176080000Y-71580000D01*
X177612500Y-70950000D02*
X176710000Y-70950000D01*
X157332500Y-100377500D02*
X156975000Y-100020000D01*
X174622500Y-100377500D02*
X160000000Y-100377500D01*
X176080000Y-71580000D02*
X176080000Y-98920000D01*
%TO.N,SPI_~{CS}_LCD*%
X123730000Y-78730000D02*
X126750000Y-81750000D01*
X134470000Y-80970000D02*
X143360000Y-89860000D01*
X130775305Y-81750000D02*
X131555305Y-80970000D01*
X123730000Y-61000000D02*
X123730000Y-78730000D01*
X131555305Y-80970000D02*
X134470000Y-80970000D01*
X143360000Y-89860000D02*
X156975000Y-89860000D01*
X126750000Y-81750000D02*
X130775305Y-81750000D01*
%TO.N,LCD_D{slash}~{C}*%
X159680000Y-87320000D02*
X160500000Y-86500000D01*
X162500000Y-79000000D02*
X162500000Y-59500000D01*
X160500000Y-81000000D02*
X162500000Y-79000000D01*
X160500000Y-86500000D02*
X160500000Y-81000000D01*
X120650000Y-58000000D02*
X118650000Y-56000000D01*
X156975000Y-87320000D02*
X159680000Y-87320000D01*
X161000000Y-58000000D02*
X120650000Y-58000000D01*
X162500000Y-59500000D02*
X161000000Y-58000000D01*
%TO.N,Net-(U8--)*%
X74849092Y-112500000D02*
X74450000Y-112100908D01*
X75050000Y-113637500D02*
X75050000Y-112700000D01*
X74250000Y-111900000D02*
X74250000Y-110387500D01*
X75050000Y-112700000D02*
X74850000Y-112500000D01*
X75087500Y-108000000D02*
X75087500Y-109450000D01*
X74850000Y-112500000D02*
X74849092Y-112500000D01*
X74450000Y-112100908D02*
X74450000Y-112100000D01*
X74250000Y-110387500D02*
X75137500Y-109500000D01*
X74450000Y-112100000D02*
X74250000Y-111900000D01*
X75087500Y-109450000D02*
X75137500Y-109500000D01*
%TO.N,Net-(U1-~{MR})*%
X112137500Y-67450000D02*
X113962500Y-67450000D01*
X113962500Y-67450000D02*
X114000000Y-67412500D01*
%TO.N,Net-(R37-Pad2)*%
X96500000Y-92912500D02*
X98000000Y-92912500D01*
X98000000Y-92912500D02*
X98087500Y-93000000D01*
X98087500Y-91500000D02*
X98087500Y-93000000D01*
X95000000Y-92912500D02*
X96500000Y-92912500D01*
%TO.N,SD_DET*%
D55*
X115175000Y-124025000D02*
X113787500Y-122637500D01*
D54*
X112950000Y-118450000D02*
X113175000Y-118675000D01*
X113175000Y-118675000D02*
X114375000Y-118675000D01*
X112950000Y-117637500D02*
X112950000Y-118450000D01*
X114600000Y-121825000D02*
X113787500Y-122637500D01*
X114375000Y-118675000D02*
X114600000Y-118900000D01*
X114600000Y-118900000D02*
X114600000Y-121825000D01*
D55*
X113787500Y-122637500D02*
X111250000Y-122637500D01*
%TO.N,Net-(U16-CT)*%
D54*
X112950000Y-115362500D02*
X112950000Y-116300000D01*
X112950000Y-116300000D02*
X112750000Y-116500000D01*
X112750000Y-116500000D02*
X110362500Y-116500000D01*
X110362500Y-116500000D02*
X109500000Y-115637500D01*
%TO.N,Net-(U16-QOD)*%
D55*
X112912500Y-113500000D02*
X112000000Y-114412500D01*
X112000000Y-114412500D02*
X112000000Y-115362500D01*
%TO.N,Net-(U14-CFG1)*%
D54*
X95000000Y-91087500D02*
X96500000Y-91087500D01*
X95000000Y-89462500D02*
X95000000Y-91087500D01*
%TO.N,/MCU/MCU_SLEEP_REQ*%
X118250000Y-67400000D02*
X117450000Y-67400000D01*
X117000000Y-104445000D02*
X111600000Y-104445000D01*
%TO.N,Net-(U3-GPB3)*%
X122500000Y-104445000D02*
X120900000Y-104445000D01*
%TO.N,Net-(U3-GPB1)*%
X119015000Y-106985000D02*
X120900000Y-106985000D01*
%TO.N,SPK_EN*%
X128500000Y-100500000D02*
X124149695Y-100500000D01*
X118405000Y-101905000D02*
X111600000Y-101905000D01*
X122119695Y-102530000D02*
X119030000Y-102530000D01*
X124149695Y-100500000D02*
X122119695Y-102530000D01*
X176250000Y-68500000D02*
X175162500Y-68500000D01*
X109702500Y-101905000D02*
X109500000Y-102107500D01*
X119030000Y-102530000D02*
X118405000Y-101905000D01*
X111600000Y-101905000D02*
X109702500Y-101905000D01*
%TO.N,Net-(U3-GPB2)*%
X122500000Y-105715000D02*
X120900000Y-105715000D01*
%TO.N,Net-(U3-GPB0)*%
X122917500Y-108255000D02*
X123000000Y-108337500D01*
X120900000Y-108255000D02*
X122917500Y-108255000D01*
%TO.N,Net-(U8-+)*%
X75050000Y-111750908D02*
X75799092Y-112500000D01*
X80412500Y-112950000D02*
X80412500Y-112100000D01*
X75050000Y-111362500D02*
X75050000Y-111750908D01*
X80412500Y-112100000D02*
X80412500Y-111250000D01*
X77950000Y-112100000D02*
X80412500Y-112100000D01*
X75799092Y-112500000D02*
X77550000Y-112500000D01*
X77550000Y-112500000D02*
X77950000Y-112100000D01*
%TO.N,Net-(U13-CFG1)*%
X95000000Y-106087500D02*
X96500000Y-106087500D01*
X95000000Y-104462500D02*
X95000000Y-106087500D01*
%TO.N,Net-(U9-ROM_IN)*%
D59*
X100870000Y-56000000D02*
X100870000Y-59087500D01*
%TO.N,Net-(U3-GPB4)*%
D54*
X122500000Y-103175000D02*
X120900000Y-103175000D01*
%TO.N,Net-(U9-ROM_SCK)*%
D59*
X105950000Y-59087500D02*
X105950000Y-56000000D01*
%TO.N,Net-(BT1-+)*%
D62*
X170137500Y-117000000D02*
X169020000Y-117000000D01*
%TO.N,LCD_~{RST}*%
D54*
X111600000Y-103175000D02*
X111545000Y-103120000D01*
X111545000Y-103120000D02*
X109012500Y-103120000D01*
X118000000Y-103175000D02*
X111600000Y-103175000D01*
X109012500Y-103120000D02*
X108000000Y-102107500D01*
%TD*%
%TA.AperFunction,Conductor*%
%TO.N,Net-(U15-LX1)*%
G36*
X94393106Y-67005023D02*
G01*
X94408104Y-67009427D01*
X94466855Y-67047172D01*
X94468042Y-67048541D01*
X94495518Y-67103402D01*
X94497163Y-67110960D01*
X94500000Y-67137331D01*
X94500000Y-69668124D01*
X94499735Y-69676223D01*
X94499500Y-69679813D01*
X94499500Y-70570186D01*
X94499735Y-70573776D01*
X94500000Y-70581876D01*
X94500000Y-70750000D01*
X94625573Y-70875573D01*
X94646723Y-70903825D01*
X94659331Y-70926914D01*
X94674500Y-70986343D01*
X94674500Y-72307670D01*
X94669475Y-72342614D01*
X94665070Y-72357612D01*
X94627327Y-72416355D01*
X94625958Y-72417542D01*
X94571097Y-72445018D01*
X94563539Y-72446663D01*
X94537168Y-72449500D01*
X94503042Y-72449500D01*
X94436003Y-72429815D01*
X94390248Y-72377011D01*
X94379358Y-72316656D01*
X94379999Y-72307680D01*
X94380000Y-72307670D01*
X94380000Y-71668630D01*
X94380084Y-71664074D01*
X94380104Y-71663532D01*
X94380289Y-71658497D01*
X94380438Y-71652420D01*
X94380500Y-71647383D01*
X94380500Y-71532554D01*
X94374116Y-71481730D01*
X94358947Y-71422301D01*
X94340193Y-71374637D01*
X94327585Y-71351548D01*
X94311732Y-71326881D01*
X94290582Y-71298629D01*
X94271383Y-71276474D01*
X94271370Y-71276461D01*
X94271359Y-71276449D01*
X94271040Y-71276130D01*
X94270983Y-71276045D01*
X94269865Y-71274844D01*
X94270059Y-71274662D01*
X94260789Y-71260789D01*
X94000000Y-71000000D01*
X93341982Y-71000000D01*
X93274943Y-70980315D01*
X93254301Y-70963681D01*
X93036319Y-70745699D01*
X93002834Y-70684376D01*
X93000000Y-70658018D01*
X93000000Y-67141829D01*
X93005023Y-67106893D01*
X93009427Y-67091895D01*
X93047172Y-67033144D01*
X93048541Y-67031957D01*
X93103420Y-67004477D01*
X93110979Y-67002833D01*
X93137332Y-67000000D01*
X94358170Y-67000000D01*
X94393106Y-67005023D01*
G37*
%TD.AperFunction*%
%TD*%
%TA.AperFunction,Conductor*%
%TO.N,GND*%
G36*
X92443039Y-83269685D02*
G01*
X92488794Y-83322489D01*
X92500000Y-83374000D01*
X92500000Y-85126000D01*
X92480315Y-85193039D01*
X92427511Y-85238794D01*
X92376000Y-85250000D01*
X90124000Y-85250000D01*
X90056961Y-85230315D01*
X90011206Y-85177511D01*
X90000000Y-85126000D01*
X90000000Y-83374000D01*
X90019685Y-83306961D01*
X90072489Y-83261206D01*
X90124000Y-83250000D01*
X92376000Y-83250000D01*
X92443039Y-83269685D01*
G37*
%TD.AperFunction*%
%TD*%
%TA.AperFunction,Conductor*%
%TO.N,VBAT*%
G36*
X92765740Y-85805021D02*
G01*
X92790984Y-85812434D01*
X92843730Y-85843730D01*
X93225000Y-86225000D01*
X93860097Y-86225000D01*
X93895029Y-86230021D01*
X93920273Y-86237434D01*
X93973019Y-86268730D01*
X94126073Y-86421784D01*
X94147223Y-86450036D01*
X94159831Y-86473125D01*
X94175000Y-86532554D01*
X94175000Y-86647383D01*
X94174851Y-86653460D01*
X94174500Y-86660613D01*
X94174500Y-87307673D01*
X94169477Y-87342608D01*
X94165074Y-87357603D01*
X94127329Y-87416355D01*
X94125960Y-87417542D01*
X94071096Y-87445019D01*
X94063537Y-87446664D01*
X94037169Y-87449500D01*
X93979262Y-87449500D01*
X93974820Y-87449718D01*
X93972114Y-87449851D01*
X93966037Y-87450000D01*
X93899998Y-87450000D01*
X92724426Y-88625573D01*
X92696175Y-88646722D01*
X92673087Y-88659330D01*
X92613657Y-88674500D01*
X90091830Y-88674500D01*
X90056889Y-88669475D01*
X90041890Y-88665070D01*
X89983144Y-88627327D01*
X89981957Y-88625958D01*
X89954477Y-88571083D01*
X89952832Y-88563521D01*
X89950000Y-88537168D01*
X89950000Y-85941829D01*
X89955023Y-85906893D01*
X89959427Y-85891895D01*
X89997172Y-85833144D01*
X89998541Y-85831957D01*
X90053420Y-85804477D01*
X90060979Y-85802833D01*
X90087332Y-85800000D01*
X92730808Y-85800000D01*
X92765740Y-85805021D01*
G37*
%TD.AperFunction*%
%TD*%
%TA.AperFunction,Conductor*%
%TO.N,GND*%
G36*
X113124264Y-119000265D02*
G01*
X113126788Y-119000430D01*
X113127852Y-119000500D01*
X113132147Y-119000500D01*
X114108170Y-119000500D01*
X114143106Y-119005523D01*
X114158104Y-119009927D01*
X114216855Y-119047672D01*
X114218042Y-119049041D01*
X114245518Y-119103902D01*
X114247163Y-119111460D01*
X114250000Y-119137831D01*
X114250000Y-121358170D01*
X114244975Y-121393114D01*
X114240570Y-121408112D01*
X114202827Y-121466855D01*
X114201458Y-121468042D01*
X114146597Y-121495518D01*
X114139039Y-121497163D01*
X114112668Y-121500000D01*
X112391830Y-121500000D01*
X112356889Y-121494975D01*
X112341890Y-121490570D01*
X112283144Y-121452827D01*
X112281957Y-121451458D01*
X112254477Y-121396583D01*
X112252832Y-121389021D01*
X112250000Y-121362668D01*
X112250000Y-119141829D01*
X112255023Y-119106893D01*
X112259427Y-119091895D01*
X112297172Y-119033144D01*
X112298541Y-119031957D01*
X112353420Y-119004477D01*
X112360979Y-119002833D01*
X112387332Y-119000000D01*
X113116162Y-119000000D01*
X113124264Y-119000265D01*
G37*
%TD.AperFunction*%
%TD*%
%TA.AperFunction,Conductor*%
%TO.N,Net-(U13-LX2)*%
G36*
X96893106Y-96976865D02*
G01*
X96908104Y-96981269D01*
X96966855Y-97019014D01*
X96968042Y-97020383D01*
X96995518Y-97075244D01*
X96997163Y-97082802D01*
X97000000Y-97109173D01*
X97000000Y-100658016D01*
X96980315Y-100725055D01*
X96963681Y-100745697D01*
X96773856Y-100935523D01*
X96712533Y-100969008D01*
X96686175Y-100971842D01*
X95999998Y-100971842D01*
X95750000Y-101221840D01*
X95740561Y-101244629D01*
X95738588Y-101243811D01*
X95730315Y-101271988D01*
X95723924Y-101281021D01*
X95691995Y-101322121D01*
X95660705Y-101374855D01*
X95660704Y-101374858D01*
X95640260Y-101421823D01*
X95640255Y-101421838D01*
X95632846Y-101447074D01*
X95626612Y-101475733D01*
X95621591Y-101510657D01*
X95619500Y-101539898D01*
X95619500Y-101647354D01*
X95619562Y-101652446D01*
X95619712Y-101658558D01*
X95619915Y-101664064D01*
X95619999Y-101668617D01*
X95619999Y-102312183D01*
X95620357Y-102318865D01*
X95604288Y-102386862D01*
X95554008Y-102435377D01*
X95496535Y-102449500D01*
X95467330Y-102449500D01*
X95432389Y-102444475D01*
X95417390Y-102440070D01*
X95358644Y-102402327D01*
X95357457Y-102400958D01*
X95329977Y-102346083D01*
X95328332Y-102338521D01*
X95325500Y-102312168D01*
X95325500Y-100965533D01*
X95330522Y-100930600D01*
X95337934Y-100905355D01*
X95369237Y-100852604D01*
X95374000Y-100847842D01*
X95500000Y-100721842D01*
X95500000Y-100581876D01*
X95500265Y-100573776D01*
X95500500Y-100570186D01*
X95500500Y-99679813D01*
X95500265Y-99676223D01*
X95500000Y-99668124D01*
X95500000Y-97113671D01*
X95505023Y-97078735D01*
X95509427Y-97063737D01*
X95547172Y-97004986D01*
X95548541Y-97003799D01*
X95603420Y-96976319D01*
X95610979Y-96974675D01*
X95637332Y-96971842D01*
X96858170Y-96971842D01*
X96893106Y-96976865D01*
G37*
%TD.AperFunction*%
%TD*%
%TA.AperFunction,Conductor*%
%TO.N,VBAT*%
G36*
X92765740Y-100805021D02*
G01*
X92790984Y-100812434D01*
X92843730Y-100843730D01*
X93225000Y-101225000D01*
X93860097Y-101225000D01*
X93895029Y-101230021D01*
X93920273Y-101237434D01*
X93973019Y-101268730D01*
X94126073Y-101421784D01*
X94147223Y-101450036D01*
X94159831Y-101473125D01*
X94175000Y-101532554D01*
X94175000Y-101647383D01*
X94174851Y-101653460D01*
X94174500Y-101660613D01*
X94174500Y-102307673D01*
X94169477Y-102342608D01*
X94165074Y-102357603D01*
X94127329Y-102416355D01*
X94125960Y-102417542D01*
X94071096Y-102445019D01*
X94063537Y-102446664D01*
X94037169Y-102449500D01*
X93979262Y-102449500D01*
X93974820Y-102449718D01*
X93972114Y-102449851D01*
X93966037Y-102450000D01*
X93899998Y-102450000D01*
X92724426Y-103625573D01*
X92696175Y-103646722D01*
X92673087Y-103659330D01*
X92613657Y-103674500D01*
X90091830Y-103674500D01*
X90056889Y-103669475D01*
X90041890Y-103665070D01*
X89983144Y-103627327D01*
X89981957Y-103625958D01*
X89954477Y-103571083D01*
X89952832Y-103563521D01*
X89950000Y-103537168D01*
X89950000Y-100941829D01*
X89955023Y-100906893D01*
X89959427Y-100891895D01*
X89997172Y-100833144D01*
X89998541Y-100831957D01*
X90053420Y-100804477D01*
X90060979Y-100802833D01*
X90087332Y-100800000D01*
X92730808Y-100800000D01*
X92765740Y-100805021D01*
G37*
%TD.AperFunction*%
%TD*%
%TA.AperFunction,Conductor*%
%TO.N,+3.3V_MCU*%
G36*
X117193039Y-54844685D02*
G01*
X117238794Y-54897489D01*
X117250000Y-54949000D01*
X117250000Y-55878549D01*
X117249618Y-55888272D01*
X117249500Y-55889772D01*
X117249500Y-56110225D01*
X117249617Y-56111711D01*
X117250000Y-56121445D01*
X117250000Y-58000000D01*
X120213681Y-60963681D01*
X120247166Y-61025004D01*
X120250000Y-61051362D01*
X120250000Y-62198638D01*
X120230315Y-62265677D01*
X120213681Y-62286319D01*
X120036319Y-62463681D01*
X119974996Y-62497166D01*
X119948638Y-62500000D01*
X119036019Y-62500000D01*
X118968980Y-62480315D01*
X118967128Y-62479102D01*
X118926553Y-62451990D01*
X118926540Y-62451983D01*
X118762667Y-62384106D01*
X118762658Y-62384103D01*
X118588694Y-62349500D01*
X118588691Y-62349500D01*
X118411309Y-62349500D01*
X118411306Y-62349500D01*
X118237341Y-62384103D01*
X118237333Y-62384106D01*
X118183538Y-62406388D01*
X118114069Y-62413855D01*
X118070992Y-62397365D01*
X117993390Y-62349500D01*
X117976518Y-62339093D01*
X117976513Y-62339091D01*
X117975069Y-62338612D01*
X117812753Y-62284826D01*
X117812751Y-62284825D01*
X117711678Y-62274500D01*
X117013330Y-62274500D01*
X117013312Y-62274501D01*
X116912247Y-62284825D01*
X116748484Y-62339092D01*
X116748481Y-62339093D01*
X116601648Y-62429661D01*
X116567629Y-62463681D01*
X116506306Y-62497166D01*
X116479948Y-62500000D01*
X115124000Y-62500000D01*
X115056961Y-62480315D01*
X115011206Y-62427511D01*
X115000000Y-62376000D01*
X115000000Y-62173376D01*
X115004649Y-62144561D01*
X115003757Y-62144370D01*
X115005174Y-62137751D01*
X115015499Y-62036684D01*
X115015500Y-62036677D01*
X115015499Y-61463324D01*
X115005174Y-61362247D01*
X115005173Y-61362243D01*
X115003757Y-61355625D01*
X115004647Y-61355434D01*
X115000000Y-61326622D01*
X115000000Y-60673376D01*
X115004649Y-60644561D01*
X115003757Y-60644370D01*
X115005174Y-60637751D01*
X115015499Y-60536684D01*
X115015500Y-60536677D01*
X115015499Y-59963324D01*
X115005174Y-59862247D01*
X115005173Y-59862243D01*
X115003757Y-59855625D01*
X115004647Y-59855434D01*
X115000000Y-59826622D01*
X115000000Y-54949000D01*
X115019685Y-54881961D01*
X115072489Y-54836206D01*
X115124000Y-54825000D01*
X117126000Y-54825000D01*
X117193039Y-54844685D01*
G37*
%TD.AperFunction*%
%TD*%
%TA.AperFunction,Conductor*%
%TO.N,GND*%
G36*
X99943039Y-68269685D02*
G01*
X99988794Y-68322489D01*
X100000000Y-68374000D01*
X100000000Y-70126000D01*
X99980315Y-70193039D01*
X99927511Y-70238794D01*
X99876000Y-70250000D01*
X97624000Y-70250000D01*
X97556961Y-70230315D01*
X97511206Y-70177511D01*
X97500000Y-70126000D01*
X97500000Y-68374000D01*
X97519685Y-68306961D01*
X97572489Y-68261206D01*
X97624000Y-68250000D01*
X99876000Y-68250000D01*
X99943039Y-68269685D01*
G37*
%TD.AperFunction*%
%TD*%
%TA.AperFunction,Conductor*%
%TO.N,GND*%
G36*
X96415677Y-118469685D02*
G01*
X96436319Y-118486319D01*
X97250000Y-119300000D01*
X100698638Y-119300000D01*
X100765677Y-119319685D01*
X100786319Y-119336319D01*
X100963681Y-119513681D01*
X100997166Y-119575004D01*
X101000000Y-119601362D01*
X101000000Y-120198638D01*
X100980315Y-120265677D01*
X100963681Y-120286319D01*
X100500000Y-120749999D01*
X100500000Y-123376000D01*
X100480315Y-123443039D01*
X100427511Y-123488794D01*
X100376000Y-123500000D01*
X98924000Y-123500000D01*
X98856961Y-123480315D01*
X98811206Y-123427511D01*
X98800000Y-123376000D01*
X98800000Y-121150000D01*
X98761827Y-121111827D01*
X98732466Y-121065100D01*
X98729116Y-121055525D01*
X98650711Y-120949289D01*
X98650710Y-120949288D01*
X98544476Y-120870884D01*
X98419848Y-120827274D01*
X98419849Y-120827274D01*
X98390260Y-120824500D01*
X98390256Y-120824500D01*
X97846572Y-120824500D01*
X97779533Y-120804815D01*
X97758891Y-120788181D01*
X97320710Y-120350000D01*
X95474000Y-120350000D01*
X95406961Y-120330315D01*
X95361206Y-120277511D01*
X95350000Y-120226000D01*
X95350000Y-118574000D01*
X95369685Y-118506961D01*
X95422489Y-118461206D01*
X95474000Y-118450000D01*
X96348638Y-118450000D01*
X96415677Y-118469685D01*
G37*
%TD.AperFunction*%
%TD*%
%TA.AperFunction,Conductor*%
%TO.N,Net-(J4-Pin_1)*%
G36*
X169443039Y-69555185D02*
G01*
X169488794Y-69607989D01*
X169500000Y-69659500D01*
X169500000Y-69720170D01*
X169494975Y-69755114D01*
X169490570Y-69770112D01*
X169452827Y-69828855D01*
X169451458Y-69830042D01*
X169396597Y-69857518D01*
X169389039Y-69859163D01*
X169362668Y-69862000D01*
X168624101Y-69862000D01*
X168608842Y-69865035D01*
X168547382Y-69877259D01*
X168547379Y-69877260D01*
X168460389Y-69935387D01*
X168460384Y-69935392D01*
X168418042Y-69998760D01*
X168408940Y-70006366D01*
X168379669Y-70062319D01*
X168357478Y-70092519D01*
X168250000Y-70199998D01*
X168250000Y-74608170D01*
X168244975Y-74643114D01*
X168240570Y-74658112D01*
X168202827Y-74716855D01*
X168201458Y-74718042D01*
X168146597Y-74745518D01*
X168139039Y-74747163D01*
X168112668Y-74750000D01*
X166391830Y-74750000D01*
X166356889Y-74744975D01*
X166341890Y-74740570D01*
X166283144Y-74702827D01*
X166281957Y-74701458D01*
X166254477Y-74646583D01*
X166252832Y-74639021D01*
X166250000Y-74612668D01*
X166250000Y-70819191D01*
X166255022Y-70784258D01*
X166262434Y-70759013D01*
X166293728Y-70706271D01*
X167428181Y-69571819D01*
X167489504Y-69538334D01*
X167515862Y-69535500D01*
X169376000Y-69535500D01*
X169443039Y-69555185D01*
G37*
%TD.AperFunction*%
%TD*%
%TA.AperFunction,Conductor*%
%TO.N,GND*%
G36*
X168713039Y-104019685D02*
G01*
X168758794Y-104072489D01*
X168770000Y-104124000D01*
X168770000Y-105976000D01*
X168750315Y-106043039D01*
X168697511Y-106088794D01*
X168646000Y-106100000D01*
X167144000Y-106100000D01*
X167076961Y-106080315D01*
X167031206Y-106027511D01*
X167020000Y-105976000D01*
X167020000Y-104124000D01*
X167039685Y-104056961D01*
X167092489Y-104011206D01*
X167144000Y-104000000D01*
X168646000Y-104000000D01*
X168713039Y-104019685D01*
G37*
%TD.AperFunction*%
%TD*%
%TA.AperFunction,Conductor*%
%TO.N,GND*%
G36*
X135443039Y-114024685D02*
G01*
X135488794Y-114077489D01*
X135500000Y-114129000D01*
X135500000Y-116381000D01*
X135480315Y-116448039D01*
X135427511Y-116493794D01*
X135376000Y-116505000D01*
X131374000Y-116505000D01*
X131306961Y-116485315D01*
X131261206Y-116432511D01*
X131250000Y-116381000D01*
X131250000Y-114129000D01*
X131269685Y-114061961D01*
X131322489Y-114016206D01*
X131374000Y-114005000D01*
X135376000Y-114005000D01*
X135443039Y-114024685D01*
G37*
%TD.AperFunction*%
%TD*%
%TA.AperFunction,Conductor*%
%TO.N,VBAT*%
G36*
X92765740Y-115805021D02*
G01*
X92790984Y-115812434D01*
X92843730Y-115843730D01*
X93225000Y-116225000D01*
X93860097Y-116225000D01*
X93895029Y-116230021D01*
X93920273Y-116237434D01*
X93973019Y-116268730D01*
X94126073Y-116421784D01*
X94147223Y-116450036D01*
X94159831Y-116473125D01*
X94175000Y-116532554D01*
X94175000Y-116647383D01*
X94174851Y-116653460D01*
X94174500Y-116660613D01*
X94174500Y-117307673D01*
X94169477Y-117342608D01*
X94165074Y-117357603D01*
X94127329Y-117416355D01*
X94125960Y-117417542D01*
X94071096Y-117445019D01*
X94063537Y-117446664D01*
X94037169Y-117449500D01*
X93979262Y-117449500D01*
X93974820Y-117449718D01*
X93972114Y-117449851D01*
X93966037Y-117450000D01*
X93899998Y-117450000D01*
X92724426Y-118625573D01*
X92696175Y-118646722D01*
X92673087Y-118659330D01*
X92613657Y-118674500D01*
X90204018Y-118674500D01*
X90169082Y-118669477D01*
X90143840Y-118662065D01*
X90091095Y-118630769D01*
X89998924Y-118538598D01*
X89977773Y-118510344D01*
X89965165Y-118487253D01*
X89950000Y-118427831D01*
X89950000Y-115941829D01*
X89955023Y-115906893D01*
X89959427Y-115891895D01*
X89997172Y-115833144D01*
X89998541Y-115831957D01*
X90053420Y-115804477D01*
X90060979Y-115802833D01*
X90087332Y-115800000D01*
X92730808Y-115800000D01*
X92765740Y-115805021D01*
G37*
%TD.AperFunction*%
%TD*%
%TA.AperFunction,Conductor*%
%TO.N,GND*%
G36*
X113193039Y-123769685D02*
G01*
X113238794Y-123822489D01*
X113250000Y-123874000D01*
X113250000Y-125626000D01*
X113230315Y-125693039D01*
X113177511Y-125738794D01*
X113126000Y-125750000D01*
X110874000Y-125750000D01*
X110806961Y-125730315D01*
X110761206Y-125677511D01*
X110750000Y-125626000D01*
X110750000Y-123874000D01*
X110769685Y-123806961D01*
X110822489Y-123761206D01*
X110874000Y-123750000D01*
X113126000Y-123750000D01*
X113193039Y-123769685D01*
G37*
%TD.AperFunction*%
%TD*%
%TA.AperFunction,Conductor*%
%TO.N,+3.3V_PERIPH*%
G36*
X110173286Y-116766612D02*
G01*
X110236861Y-116803318D01*
X110319647Y-116825500D01*
X110405353Y-116825500D01*
X111376000Y-116825500D01*
X111443039Y-116845185D01*
X111488794Y-116897989D01*
X111500000Y-116949500D01*
X111500000Y-117080357D01*
X111499675Y-117089324D01*
X111499500Y-117091737D01*
X111499500Y-118707686D01*
X111500000Y-118715316D01*
X111500000Y-119000000D01*
X111713681Y-119213681D01*
X111747166Y-119275004D01*
X111750000Y-119301362D01*
X111750000Y-121376000D01*
X111730315Y-121443039D01*
X111677511Y-121488794D01*
X111626000Y-121500000D01*
X108874000Y-121500000D01*
X108806961Y-121480315D01*
X108761206Y-121427511D01*
X108750000Y-121376000D01*
X108750000Y-116874000D01*
X108769685Y-116806961D01*
X108822489Y-116761206D01*
X108874000Y-116750000D01*
X110111286Y-116750000D01*
X110173286Y-116766612D01*
G37*
%TD.AperFunction*%
%TD*%
%TA.AperFunction,Conductor*%
%TO.N,GND*%
G36*
X92443039Y-119345185D02*
G01*
X92488794Y-119397989D01*
X92500000Y-119449500D01*
X92500000Y-121126000D01*
X92480315Y-121193039D01*
X92427511Y-121238794D01*
X92376000Y-121250000D01*
X90124000Y-121250000D01*
X90056961Y-121230315D01*
X90011206Y-121177511D01*
X90000000Y-121126000D01*
X90000000Y-119449500D01*
X90019685Y-119382461D01*
X90072489Y-119336706D01*
X90124000Y-119325500D01*
X92376000Y-119325500D01*
X92443039Y-119345185D01*
G37*
%TD.AperFunction*%
%TD*%
%TA.AperFunction,Conductor*%
%TO.N,GND*%
G36*
X159443039Y-78519685D02*
G01*
X159488794Y-78572489D01*
X159500000Y-78624000D01*
X159500000Y-80821000D01*
X159480315Y-80888039D01*
X159427511Y-80933794D01*
X159376000Y-80945000D01*
X155374000Y-80945000D01*
X155306961Y-80925315D01*
X155261206Y-80872511D01*
X155250000Y-80821000D01*
X155250000Y-78624000D01*
X155269685Y-78556961D01*
X155322489Y-78511206D01*
X155374000Y-78500000D01*
X159376000Y-78500000D01*
X159443039Y-78519685D01*
G37*
%TD.AperFunction*%
%TD*%
%TA.AperFunction,Conductor*%
%TO.N,GND*%
G36*
X99943039Y-83269685D02*
G01*
X99988794Y-83322489D01*
X100000000Y-83374000D01*
X100000000Y-85126000D01*
X99980315Y-85193039D01*
X99927511Y-85238794D01*
X99876000Y-85250000D01*
X97624000Y-85250000D01*
X97556961Y-85230315D01*
X97511206Y-85177511D01*
X97500000Y-85126000D01*
X97500000Y-83374000D01*
X97519685Y-83306961D01*
X97572489Y-83261206D01*
X97624000Y-83250000D01*
X99876000Y-83250000D01*
X99943039Y-83269685D01*
G37*
%TD.AperFunction*%
%TD*%
%TA.AperFunction,Conductor*%
%TO.N,+3.3V_SD*%
G36*
X121993106Y-109530523D02*
G01*
X122008104Y-109534927D01*
X122066855Y-109572672D01*
X122068042Y-109574041D01*
X122095518Y-109628902D01*
X122097163Y-109636460D01*
X122100000Y-109662831D01*
X122100000Y-112695741D01*
X122094977Y-112730677D01*
X122085637Y-112762485D01*
X122069761Y-112796441D01*
X122042918Y-112836613D01*
X122039023Y-112841358D01*
X122036132Y-112846768D01*
X122036132Y-112846769D01*
X122036131Y-112846770D01*
X122024500Y-112905247D01*
X122024500Y-112905249D01*
X122024500Y-114008170D01*
X122019475Y-114043114D01*
X122015070Y-114058112D01*
X121977327Y-114116855D01*
X121975958Y-114118042D01*
X121921097Y-114145518D01*
X121913539Y-114147163D01*
X121887168Y-114150000D01*
X121241830Y-114150000D01*
X121206889Y-114144975D01*
X121191890Y-114140570D01*
X121133144Y-114102827D01*
X121131957Y-114101458D01*
X121104477Y-114046583D01*
X121102832Y-114039021D01*
X121100000Y-114012668D01*
X121100000Y-112500000D01*
X120874426Y-112274426D01*
X120853274Y-112246170D01*
X120840667Y-112223081D01*
X120825500Y-112163656D01*
X120825500Y-109704018D01*
X120830522Y-109669085D01*
X120837934Y-109643840D01*
X120869228Y-109591098D01*
X120885903Y-109574423D01*
X120914153Y-109553275D01*
X120937245Y-109540667D01*
X120996670Y-109525500D01*
X121958170Y-109525500D01*
X121993106Y-109530523D01*
G37*
%TD.AperFunction*%
%TD*%
%TA.AperFunction,Conductor*%
%TO.N,+3.3V_PERIPH*%
G36*
X176393106Y-66005023D02*
G01*
X176408104Y-66009427D01*
X176466855Y-66047172D01*
X176468042Y-66048541D01*
X176495518Y-66103402D01*
X176497163Y-66110960D01*
X176500000Y-66137331D01*
X176500000Y-67708170D01*
X176494975Y-67743114D01*
X176490570Y-67758112D01*
X176452827Y-67816855D01*
X176451458Y-67818042D01*
X176396597Y-67845518D01*
X176389039Y-67847163D01*
X176362668Y-67850000D01*
X175591322Y-67850000D01*
X175570546Y-67848247D01*
X175550211Y-67844791D01*
X175530033Y-67839586D01*
X175494851Y-67827275D01*
X175494845Y-67827274D01*
X175494836Y-67827272D01*
X175465264Y-67824500D01*
X175465260Y-67824500D01*
X175465256Y-67824500D01*
X174859744Y-67824500D01*
X174859740Y-67824500D01*
X174859736Y-67824500D01*
X174830162Y-67827272D01*
X174830153Y-67827274D01*
X174830143Y-67827276D01*
X174794966Y-67839586D01*
X174774783Y-67844793D01*
X174770517Y-67845518D01*
X174754449Y-67848248D01*
X174733678Y-67850000D01*
X173766322Y-67850000D01*
X173745546Y-67848247D01*
X173725211Y-67844791D01*
X173705033Y-67839586D01*
X173669851Y-67827275D01*
X173669845Y-67827274D01*
X173669836Y-67827272D01*
X173640264Y-67824500D01*
X173640260Y-67824500D01*
X173640256Y-67824500D01*
X173034744Y-67824500D01*
X173034740Y-67824500D01*
X173034736Y-67824500D01*
X173005162Y-67827272D01*
X173005153Y-67827274D01*
X173005143Y-67827276D01*
X172969966Y-67839586D01*
X172949783Y-67844793D01*
X172945517Y-67845518D01*
X172929449Y-67848248D01*
X172908678Y-67850000D01*
X170549996Y-67850000D01*
X170461045Y-67938950D01*
X170452036Y-67947116D01*
X170442678Y-67954797D01*
X170436092Y-67959682D01*
X170434682Y-67961092D01*
X170429803Y-67967672D01*
X170422117Y-67977037D01*
X170413948Y-67986050D01*
X170350000Y-68050000D01*
X170350000Y-68858170D01*
X170344975Y-68893114D01*
X170340570Y-68908112D01*
X170302827Y-68966855D01*
X170301458Y-68968042D01*
X170246597Y-68995518D01*
X170239039Y-68997163D01*
X170212668Y-69000000D01*
X169724682Y-69000000D01*
X169657643Y-68980315D01*
X169625416Y-68950311D01*
X169609001Y-68928384D01*
X169608998Y-68928381D01*
X169608991Y-68928371D01*
X169538790Y-68858170D01*
X168821634Y-68141013D01*
X168821633Y-68141012D01*
X168805283Y-68126325D01*
X168805264Y-68126309D01*
X168796192Y-68118998D01*
X168756345Y-68061605D01*
X168750000Y-68022448D01*
X168750000Y-66319191D01*
X168755022Y-66284258D01*
X168762434Y-66259013D01*
X168793728Y-66206271D01*
X168951076Y-66048923D01*
X168979326Y-66027775D01*
X169002418Y-66015167D01*
X169061843Y-66000000D01*
X176358170Y-66000000D01*
X176393106Y-66005023D01*
G37*
%TD.AperFunction*%
%TD*%
%TA.AperFunction,Conductor*%
%TO.N,Net-(U13-LX1)*%
G36*
X94393106Y-97005023D02*
G01*
X94408104Y-97009427D01*
X94466855Y-97047172D01*
X94468042Y-97048541D01*
X94495518Y-97103402D01*
X94497163Y-97110960D01*
X94500000Y-97137331D01*
X94500000Y-99668124D01*
X94499735Y-99676223D01*
X94499500Y-99679813D01*
X94499500Y-100570186D01*
X94499735Y-100573776D01*
X94500000Y-100581876D01*
X94500000Y-100750000D01*
X94625573Y-100875573D01*
X94646723Y-100903825D01*
X94659331Y-100926914D01*
X94674500Y-100986343D01*
X94674500Y-102307670D01*
X94669475Y-102342614D01*
X94665070Y-102357612D01*
X94627327Y-102416355D01*
X94625958Y-102417542D01*
X94571097Y-102445018D01*
X94563539Y-102446663D01*
X94537168Y-102449500D01*
X94503042Y-102449500D01*
X94436003Y-102429815D01*
X94390248Y-102377011D01*
X94379358Y-102316656D01*
X94379999Y-102307680D01*
X94380000Y-102307670D01*
X94380000Y-101668630D01*
X94380084Y-101664074D01*
X94380104Y-101663532D01*
X94380289Y-101658497D01*
X94380438Y-101652420D01*
X94380500Y-101647383D01*
X94380500Y-101532554D01*
X94374116Y-101481730D01*
X94358947Y-101422301D01*
X94340193Y-101374637D01*
X94327585Y-101351548D01*
X94311732Y-101326881D01*
X94290582Y-101298629D01*
X94271383Y-101276474D01*
X94271370Y-101276461D01*
X94271359Y-101276449D01*
X94271040Y-101276130D01*
X94270983Y-101276045D01*
X94269865Y-101274844D01*
X94270059Y-101274662D01*
X94260789Y-101260789D01*
X94000000Y-101000000D01*
X93341982Y-101000000D01*
X93274943Y-100980315D01*
X93254301Y-100963681D01*
X93036319Y-100745699D01*
X93002834Y-100684376D01*
X93000000Y-100658018D01*
X93000000Y-97141829D01*
X93005023Y-97106893D01*
X93009427Y-97091895D01*
X93047172Y-97033144D01*
X93048541Y-97031957D01*
X93103420Y-97004477D01*
X93110979Y-97002833D01*
X93137332Y-97000000D01*
X94358170Y-97000000D01*
X94393106Y-97005023D01*
G37*
%TD.AperFunction*%
%TD*%
%TA.AperFunction,Conductor*%
%TO.N,GND*%
G36*
X92443039Y-104345185D02*
G01*
X92488794Y-104397989D01*
X92500000Y-104449500D01*
X92500000Y-106126000D01*
X92480315Y-106193039D01*
X92427511Y-106238794D01*
X92376000Y-106250000D01*
X90124000Y-106250000D01*
X90056961Y-106230315D01*
X90011206Y-106177511D01*
X90000000Y-106126000D01*
X90000000Y-104449500D01*
X90019685Y-104382461D01*
X90072489Y-104336706D01*
X90124000Y-104325500D01*
X92376000Y-104325500D01*
X92443039Y-104345185D01*
G37*
%TD.AperFunction*%
%TD*%
%TA.AperFunction,Conductor*%
%TO.N,GND*%
G36*
X119962886Y-108751296D02*
G01*
X119991739Y-108755500D01*
X120126000Y-108755500D01*
X120193039Y-108775185D01*
X120238794Y-108827989D01*
X120250000Y-108879500D01*
X120250000Y-109248786D01*
X120233387Y-109310786D01*
X120196681Y-109374361D01*
X120196682Y-109374362D01*
X120174500Y-109457147D01*
X120174500Y-112200878D01*
X120154815Y-112267917D01*
X120147328Y-112278340D01*
X119650000Y-112900000D01*
X119650000Y-114026000D01*
X119630315Y-114093039D01*
X119577511Y-114138794D01*
X119526000Y-114150000D01*
X119024000Y-114150000D01*
X118956961Y-114130315D01*
X118911206Y-114077511D01*
X118900000Y-114026000D01*
X118900000Y-108874000D01*
X118919685Y-108806961D01*
X118972489Y-108761206D01*
X119024000Y-108750000D01*
X119945008Y-108750000D01*
X119962886Y-108751296D01*
G37*
%TD.AperFunction*%
%TD*%
%TA.AperFunction,Conductor*%
%TO.N,GND*%
G36*
X96415677Y-103469685D02*
G01*
X96436319Y-103486319D01*
X97250000Y-104300000D01*
X100698638Y-104300000D01*
X100765677Y-104319685D01*
X100786319Y-104336319D01*
X100963681Y-104513681D01*
X100997166Y-104575004D01*
X101000000Y-104601362D01*
X101000000Y-105198638D01*
X100980315Y-105265677D01*
X100963681Y-105286319D01*
X100500000Y-105749999D01*
X100500000Y-108376000D01*
X100480315Y-108443039D01*
X100427511Y-108488794D01*
X100376000Y-108500000D01*
X98924000Y-108500000D01*
X98856961Y-108480315D01*
X98811206Y-108427511D01*
X98800000Y-108376000D01*
X98800000Y-106150000D01*
X98761827Y-106111827D01*
X98732466Y-106065100D01*
X98729116Y-106055525D01*
X98650711Y-105949289D01*
X98650710Y-105949288D01*
X98544476Y-105870884D01*
X98419848Y-105827274D01*
X98419849Y-105827274D01*
X98390260Y-105824500D01*
X98390256Y-105824500D01*
X97846572Y-105824500D01*
X97779533Y-105804815D01*
X97758891Y-105788181D01*
X97320710Y-105350000D01*
X95474000Y-105350000D01*
X95406961Y-105330315D01*
X95361206Y-105277511D01*
X95350000Y-105226000D01*
X95350000Y-103574000D01*
X95369685Y-103506961D01*
X95422489Y-103461206D01*
X95474000Y-103450000D01*
X96348638Y-103450000D01*
X96415677Y-103469685D01*
G37*
%TD.AperFunction*%
%TD*%
%TA.AperFunction,Conductor*%
%TO.N,GND*%
G36*
X99943039Y-113269685D02*
G01*
X99988794Y-113322489D01*
X100000000Y-113374000D01*
X100000000Y-115126000D01*
X99980315Y-115193039D01*
X99927511Y-115238794D01*
X99876000Y-115250000D01*
X97624000Y-115250000D01*
X97556961Y-115230315D01*
X97511206Y-115177511D01*
X97500000Y-115126000D01*
X97500000Y-113374000D01*
X97519685Y-113306961D01*
X97572489Y-113261206D01*
X97624000Y-113250000D01*
X99876000Y-113250000D01*
X99943039Y-113269685D01*
G37*
%TD.AperFunction*%
%TD*%
%TA.AperFunction,Conductor*%
%TO.N,Net-(JP1-A)*%
G36*
X109283106Y-51342523D02*
G01*
X109298104Y-51346927D01*
X109356855Y-51384672D01*
X109358042Y-51386041D01*
X109385518Y-51440902D01*
X109387163Y-51448460D01*
X109390000Y-51474831D01*
X109390000Y-54195670D01*
X109384975Y-54230614D01*
X109380570Y-54245612D01*
X109342827Y-54304355D01*
X109341458Y-54305542D01*
X109286597Y-54333018D01*
X109279039Y-54334663D01*
X109252668Y-54337500D01*
X99709192Y-54337500D01*
X99674256Y-54332477D01*
X99649014Y-54325065D01*
X99596269Y-54293769D01*
X99140000Y-53837500D01*
X96390000Y-53837500D01*
X96389999Y-53837500D01*
X96219318Y-54008181D01*
X96157995Y-54041666D01*
X96131637Y-54044500D01*
X95551361Y-54044500D01*
X95529381Y-54045678D01*
X95503034Y-54048511D01*
X95503032Y-54048512D01*
X95426521Y-54072470D01*
X95426516Y-54072471D01*
X95365188Y-54105960D01*
X95318384Y-54140998D01*
X95318363Y-54141016D01*
X95158199Y-54301181D01*
X95096876Y-54334666D01*
X95070518Y-54337500D01*
X94531830Y-54337500D01*
X94496889Y-54332475D01*
X94481890Y-54328070D01*
X94423144Y-54290327D01*
X94421957Y-54288958D01*
X94394477Y-54234083D01*
X94392832Y-54226521D01*
X94390000Y-54200168D01*
X94390000Y-51479329D01*
X94395023Y-51444393D01*
X94399427Y-51429395D01*
X94437172Y-51370644D01*
X94438541Y-51369457D01*
X94493420Y-51341977D01*
X94500979Y-51340333D01*
X94527332Y-51337500D01*
X109248170Y-51337500D01*
X109283106Y-51342523D01*
G37*
%TD.AperFunction*%
%TD*%
%TA.AperFunction,Conductor*%
%TO.N,Net-(Q1-G)*%
G36*
X94393106Y-55005023D02*
G01*
X94408104Y-55009427D01*
X94466855Y-55047172D01*
X94468042Y-55048541D01*
X94495518Y-55103402D01*
X94497163Y-55110960D01*
X94500000Y-55137331D01*
X94500000Y-59608170D01*
X94494975Y-59643114D01*
X94490570Y-59658112D01*
X94452827Y-59716855D01*
X94451458Y-59718042D01*
X94396597Y-59745518D01*
X94389039Y-59747163D01*
X94362668Y-59750000D01*
X93391830Y-59750000D01*
X93356889Y-59744975D01*
X93341890Y-59740570D01*
X93283144Y-59702827D01*
X93281957Y-59701458D01*
X93254477Y-59646583D01*
X93252832Y-59639021D01*
X93250000Y-59612668D01*
X93250000Y-58250000D01*
X91641830Y-58250000D01*
X91606889Y-58244975D01*
X91591890Y-58240570D01*
X91533144Y-58202827D01*
X91531957Y-58201458D01*
X91504477Y-58146583D01*
X91502832Y-58139021D01*
X91500000Y-58112668D01*
X91500000Y-57141829D01*
X91505023Y-57106893D01*
X91509427Y-57091895D01*
X91547172Y-57033144D01*
X91548541Y-57031957D01*
X91603420Y-57004477D01*
X91610979Y-57002833D01*
X91637332Y-57000000D01*
X93250000Y-57000000D01*
X93250000Y-55141829D01*
X93255023Y-55106893D01*
X93259427Y-55091895D01*
X93297172Y-55033144D01*
X93298541Y-55031957D01*
X93353420Y-55004477D01*
X93360979Y-55002833D01*
X93387332Y-55000000D01*
X94358170Y-55000000D01*
X94393106Y-55005023D01*
G37*
%TD.AperFunction*%
%TD*%
%TA.AperFunction,Conductor*%
%TO.N,+3.3V_MCU*%
G36*
X99943106Y-100805023D02*
G01*
X99958104Y-100809427D01*
X100016855Y-100847172D01*
X100018042Y-100848541D01*
X100045518Y-100903402D01*
X100047163Y-100910960D01*
X100050000Y-100937331D01*
X100050000Y-103558170D01*
X100044975Y-103593114D01*
X100040570Y-103608112D01*
X100002827Y-103666855D01*
X100001458Y-103668042D01*
X99946597Y-103695518D01*
X99939039Y-103697163D01*
X99912668Y-103700000D01*
X97419192Y-103700000D01*
X97384256Y-103694977D01*
X97359014Y-103687565D01*
X97306269Y-103656269D01*
X96100000Y-102450000D01*
X96033963Y-102450000D01*
X96027886Y-102449851D01*
X96025179Y-102449718D01*
X96020738Y-102449500D01*
X96020733Y-102449500D01*
X95967330Y-102449500D01*
X95932389Y-102444475D01*
X95917390Y-102440070D01*
X95858644Y-102402327D01*
X95857457Y-102400958D01*
X95829981Y-102346097D01*
X95829543Y-102344087D01*
X95828335Y-102338533D01*
X95825499Y-102312177D01*
X95825499Y-101660600D01*
X95825149Y-101653470D01*
X95825000Y-101647394D01*
X95825000Y-101539902D01*
X95830022Y-101504969D01*
X95837434Y-101479724D01*
X95868728Y-101426982D01*
X96021787Y-101273923D01*
X96050037Y-101252775D01*
X96073129Y-101240167D01*
X96132554Y-101225000D01*
X96775000Y-101225000D01*
X97151076Y-100848923D01*
X97179326Y-100827775D01*
X97202418Y-100815167D01*
X97261843Y-100800000D01*
X99908170Y-100800000D01*
X99943106Y-100805023D01*
G37*
%TD.AperFunction*%
%TD*%
%TA.AperFunction,Conductor*%
%TO.N,GND*%
G36*
X92443039Y-68269685D02*
G01*
X92488794Y-68322489D01*
X92500000Y-68374000D01*
X92500000Y-70126000D01*
X92480315Y-70193039D01*
X92427511Y-70238794D01*
X92376000Y-70250000D01*
X90124000Y-70250000D01*
X90056961Y-70230315D01*
X90011206Y-70177511D01*
X90000000Y-70126000D01*
X90000000Y-68374000D01*
X90019685Y-68306961D01*
X90072489Y-68261206D01*
X90124000Y-68250000D01*
X92376000Y-68250000D01*
X92443039Y-68269685D01*
G37*
%TD.AperFunction*%
%TD*%
%TA.AperFunction,Conductor*%
%TO.N,GND*%
G36*
X92443039Y-113269685D02*
G01*
X92488794Y-113322489D01*
X92500000Y-113374000D01*
X92500000Y-115126000D01*
X92480315Y-115193039D01*
X92427511Y-115238794D01*
X92376000Y-115250000D01*
X90124000Y-115250000D01*
X90056961Y-115230315D01*
X90011206Y-115177511D01*
X90000000Y-115126000D01*
X90000000Y-113374000D01*
X90019685Y-113306961D01*
X90072489Y-113261206D01*
X90124000Y-113250000D01*
X92376000Y-113250000D01*
X92443039Y-113269685D01*
G37*
%TD.AperFunction*%
%TD*%
%TA.AperFunction,Conductor*%
%TO.N,GND*%
G36*
X159443039Y-106404685D02*
G01*
X159488794Y-106457489D01*
X159500000Y-106509000D01*
X159500000Y-108626000D01*
X159480315Y-108693039D01*
X159427511Y-108738794D01*
X159376000Y-108750000D01*
X154624000Y-108750000D01*
X154556961Y-108730315D01*
X154511206Y-108677511D01*
X154500000Y-108626000D01*
X154500000Y-106509000D01*
X154519685Y-106441961D01*
X154572489Y-106396206D01*
X154624000Y-106385000D01*
X159376000Y-106385000D01*
X159443039Y-106404685D01*
G37*
%TD.AperFunction*%
%TD*%
%TA.AperFunction,Conductor*%
%TO.N,+3.3V_MCU*%
G36*
X134643106Y-78755023D02*
G01*
X134658104Y-78759427D01*
X134716855Y-78797172D01*
X134718042Y-78798541D01*
X134745518Y-78853402D01*
X134747163Y-78860960D01*
X134750000Y-78887331D01*
X134750000Y-80528613D01*
X134744975Y-80563554D01*
X134741064Y-80576871D01*
X134703287Y-80635647D01*
X134639738Y-80664668D01*
X134631323Y-80665878D01*
X134581584Y-80662916D01*
X134576056Y-80661435D01*
X134567855Y-80659237D01*
X134567854Y-80659237D01*
X134512854Y-80644500D01*
X134512853Y-80644500D01*
X134512852Y-80644500D01*
X131607721Y-80644500D01*
X131607658Y-80644499D01*
X131605754Y-80644499D01*
X131598158Y-80644499D01*
X131512453Y-80644499D01*
X131512451Y-80644499D01*
X131471059Y-80655589D01*
X131471060Y-80655590D01*
X131429668Y-80666681D01*
X131429666Y-80666681D01*
X131429665Y-80666682D01*
X131429663Y-80666682D01*
X131429596Y-80666711D01*
X131428786Y-80667189D01*
X131355450Y-80709529D01*
X131355437Y-80709539D01*
X131355436Y-80709539D01*
X130863904Y-81201073D01*
X130835653Y-81222222D01*
X130812565Y-81234830D01*
X130753135Y-81250000D01*
X129373851Y-81250000D01*
X129338910Y-81244975D01*
X129323911Y-81240570D01*
X129265165Y-81202827D01*
X129263978Y-81201458D01*
X129236498Y-81146583D01*
X129234853Y-81139021D01*
X129232021Y-81112668D01*
X129232021Y-78891829D01*
X129237044Y-78856893D01*
X129241448Y-78841895D01*
X129279193Y-78783144D01*
X129280562Y-78781957D01*
X129335441Y-78754477D01*
X129343000Y-78752833D01*
X129369353Y-78750000D01*
X134608170Y-78750000D01*
X134643106Y-78755023D01*
G37*
%TD.AperFunction*%
%TD*%
%TA.AperFunction,Conductor*%
%TO.N,GND*%
G36*
X175693039Y-63769685D02*
G01*
X175738794Y-63822489D01*
X175750000Y-63874000D01*
X175750000Y-65626000D01*
X175730315Y-65693039D01*
X175677511Y-65738794D01*
X175626000Y-65750000D01*
X169874000Y-65750000D01*
X169806961Y-65730315D01*
X169761206Y-65677511D01*
X169750000Y-65626000D01*
X169750000Y-63874000D01*
X169769685Y-63806961D01*
X169822489Y-63761206D01*
X169874000Y-63750000D01*
X175626000Y-63750000D01*
X175693039Y-63769685D01*
G37*
%TD.AperFunction*%
%TD*%
%TA.AperFunction,Conductor*%
%TO.N,GND*%
G36*
X128693039Y-78769685D02*
G01*
X128738794Y-78822489D01*
X128750000Y-78874000D01*
X128750000Y-81126000D01*
X128730315Y-81193039D01*
X128677511Y-81238794D01*
X128626000Y-81250000D01*
X126761689Y-81250000D01*
X126694650Y-81230315D01*
X126674008Y-81213681D01*
X126536319Y-81075992D01*
X126502834Y-81014669D01*
X126500000Y-80988311D01*
X126500000Y-78874000D01*
X126519685Y-78806961D01*
X126572489Y-78761206D01*
X126624000Y-78750000D01*
X128626000Y-78750000D01*
X128693039Y-78769685D01*
G37*
%TD.AperFunction*%
%TD*%
%TA.AperFunction,Conductor*%
%TO.N,Net-(U12-LX2)*%
G36*
X96893106Y-111976865D02*
G01*
X96908104Y-111981269D01*
X96966855Y-112019014D01*
X96968042Y-112020383D01*
X96995518Y-112075244D01*
X96997163Y-112082802D01*
X97000000Y-112109173D01*
X97000000Y-115658016D01*
X96980315Y-115725055D01*
X96963681Y-115745697D01*
X96773856Y-115935523D01*
X96712533Y-115969008D01*
X96686175Y-115971842D01*
X95999998Y-115971842D01*
X95750000Y-116221840D01*
X95740561Y-116244629D01*
X95738588Y-116243811D01*
X95730315Y-116271988D01*
X95723924Y-116281021D01*
X95691995Y-116322121D01*
X95660705Y-116374855D01*
X95660704Y-116374858D01*
X95640260Y-116421823D01*
X95640255Y-116421838D01*
X95632846Y-116447074D01*
X95626612Y-116475733D01*
X95621591Y-116510657D01*
X95619500Y-116539898D01*
X95619500Y-116647354D01*
X95619562Y-116652446D01*
X95619712Y-116658558D01*
X95619915Y-116664064D01*
X95619999Y-116668617D01*
X95619999Y-117312183D01*
X95620357Y-117318865D01*
X95604288Y-117386862D01*
X95554008Y-117435377D01*
X95496535Y-117449500D01*
X95467330Y-117449500D01*
X95432389Y-117444475D01*
X95417390Y-117440070D01*
X95358644Y-117402327D01*
X95357457Y-117400958D01*
X95329977Y-117346083D01*
X95328332Y-117338521D01*
X95325500Y-117312168D01*
X95325500Y-115965533D01*
X95330522Y-115930600D01*
X95337934Y-115905355D01*
X95369237Y-115852604D01*
X95374000Y-115847842D01*
X95500000Y-115721842D01*
X95500000Y-115581876D01*
X95500265Y-115573776D01*
X95500500Y-115570186D01*
X95500500Y-114679813D01*
X95500265Y-114676223D01*
X95500000Y-114668124D01*
X95500000Y-112113671D01*
X95505023Y-112078735D01*
X95509427Y-112063737D01*
X95547172Y-112004986D01*
X95548541Y-112003799D01*
X95603420Y-111976319D01*
X95610979Y-111974675D01*
X95637332Y-111971842D01*
X96858170Y-111971842D01*
X96893106Y-111976865D01*
G37*
%TD.AperFunction*%
%TD*%
%TA.AperFunction,Conductor*%
%TO.N,Net-(U14-LX2)*%
G36*
X96893106Y-81976865D02*
G01*
X96908104Y-81981269D01*
X96966855Y-82019014D01*
X96968042Y-82020383D01*
X96995518Y-82075244D01*
X96997163Y-82082802D01*
X97000000Y-82109173D01*
X97000000Y-85658016D01*
X96980315Y-85725055D01*
X96963681Y-85745697D01*
X96773856Y-85935523D01*
X96712533Y-85969008D01*
X96686175Y-85971842D01*
X95999998Y-85971842D01*
X95750000Y-86221840D01*
X95740561Y-86244629D01*
X95738588Y-86243811D01*
X95730315Y-86271988D01*
X95723924Y-86281021D01*
X95691995Y-86322121D01*
X95660705Y-86374855D01*
X95660704Y-86374858D01*
X95640260Y-86421823D01*
X95640255Y-86421838D01*
X95632846Y-86447074D01*
X95626612Y-86475733D01*
X95621591Y-86510657D01*
X95619500Y-86539898D01*
X95619500Y-86647354D01*
X95619562Y-86652446D01*
X95619712Y-86658558D01*
X95619915Y-86664064D01*
X95619999Y-86668617D01*
X95619999Y-87312183D01*
X95620357Y-87318865D01*
X95604288Y-87386862D01*
X95554008Y-87435377D01*
X95496535Y-87449500D01*
X95467330Y-87449500D01*
X95432389Y-87444475D01*
X95417390Y-87440070D01*
X95358644Y-87402327D01*
X95357457Y-87400958D01*
X95329977Y-87346083D01*
X95328332Y-87338521D01*
X95325500Y-87312168D01*
X95325500Y-85965533D01*
X95330522Y-85930600D01*
X95337934Y-85905355D01*
X95369237Y-85852604D01*
X95374000Y-85847842D01*
X95500000Y-85721842D01*
X95500000Y-85581876D01*
X95500265Y-85573776D01*
X95500500Y-85570186D01*
X95500500Y-84679813D01*
X95500265Y-84676223D01*
X95500000Y-84668124D01*
X95500000Y-82113671D01*
X95505023Y-82078735D01*
X95509427Y-82063737D01*
X95547172Y-82004986D01*
X95548541Y-82003799D01*
X95603420Y-81976319D01*
X95610979Y-81974675D01*
X95637332Y-81971842D01*
X96858170Y-81971842D01*
X96893106Y-81976865D01*
G37*
%TD.AperFunction*%
%TD*%
%TA.AperFunction,Conductor*%
%TO.N,Net-(J4-Pin_2)*%
G36*
X168655677Y-68269685D02*
G01*
X168676319Y-68286319D01*
X169463681Y-69073681D01*
X169497166Y-69135004D01*
X169500000Y-69161362D01*
X169500000Y-69206000D01*
X169480315Y-69273039D01*
X169427511Y-69318794D01*
X169376000Y-69330000D01*
X167299999Y-69330000D01*
X165750000Y-70879999D01*
X165750000Y-74626000D01*
X165730315Y-74693039D01*
X165677511Y-74738794D01*
X165626000Y-74750000D01*
X163624000Y-74750000D01*
X163556961Y-74730315D01*
X163511206Y-74677511D01*
X163500000Y-74626000D01*
X163500000Y-69801362D01*
X163519685Y-69734323D01*
X163536319Y-69713681D01*
X164963681Y-68286319D01*
X165025004Y-68252834D01*
X165051362Y-68250000D01*
X168588638Y-68250000D01*
X168655677Y-68269685D01*
G37*
%TD.AperFunction*%
%TD*%
%TA.AperFunction,Conductor*%
%TO.N,GND*%
G36*
X99943039Y-98269685D02*
G01*
X99988794Y-98322489D01*
X100000000Y-98374000D01*
X100000000Y-100126000D01*
X99980315Y-100193039D01*
X99927511Y-100238794D01*
X99876000Y-100250000D01*
X97624000Y-100250000D01*
X97556961Y-100230315D01*
X97511206Y-100177511D01*
X97500000Y-100126000D01*
X97500000Y-98374000D01*
X97519685Y-98306961D01*
X97572489Y-98261206D01*
X97624000Y-98250000D01*
X99876000Y-98250000D01*
X99943039Y-98269685D01*
G37*
%TD.AperFunction*%
%TD*%
%TA.AperFunction,Conductor*%
%TO.N,Net-(U15-LX2)*%
G36*
X96893106Y-66976865D02*
G01*
X96908104Y-66981269D01*
X96966855Y-67019014D01*
X96968042Y-67020383D01*
X96995518Y-67075244D01*
X96997163Y-67082802D01*
X97000000Y-67109173D01*
X97000000Y-70658016D01*
X96980315Y-70725055D01*
X96963681Y-70745697D01*
X96773856Y-70935523D01*
X96712533Y-70969008D01*
X96686175Y-70971842D01*
X95999998Y-70971842D01*
X95750000Y-71221840D01*
X95740561Y-71244629D01*
X95738588Y-71243811D01*
X95730315Y-71271988D01*
X95723924Y-71281021D01*
X95691995Y-71322121D01*
X95660705Y-71374855D01*
X95660704Y-71374858D01*
X95640260Y-71421823D01*
X95640255Y-71421838D01*
X95632846Y-71447074D01*
X95626612Y-71475733D01*
X95621591Y-71510657D01*
X95619500Y-71539898D01*
X95619500Y-71647354D01*
X95619562Y-71652446D01*
X95619712Y-71658558D01*
X95619915Y-71664064D01*
X95619999Y-71668617D01*
X95619999Y-72312183D01*
X95620357Y-72318865D01*
X95604288Y-72386862D01*
X95554008Y-72435377D01*
X95496535Y-72449500D01*
X95467330Y-72449500D01*
X95432389Y-72444475D01*
X95417390Y-72440070D01*
X95358644Y-72402327D01*
X95357457Y-72400958D01*
X95329977Y-72346083D01*
X95328332Y-72338521D01*
X95325500Y-72312168D01*
X95325500Y-70965533D01*
X95330522Y-70930600D01*
X95337934Y-70905355D01*
X95369237Y-70852604D01*
X95374000Y-70847842D01*
X95500000Y-70721842D01*
X95500000Y-70581876D01*
X95500265Y-70573776D01*
X95500500Y-70570186D01*
X95500500Y-69679813D01*
X95500265Y-69676223D01*
X95500000Y-69668124D01*
X95500000Y-67113671D01*
X95505023Y-67078735D01*
X95509427Y-67063737D01*
X95547172Y-67004986D01*
X95548541Y-67003799D01*
X95603420Y-66976319D01*
X95610979Y-66974675D01*
X95637332Y-66971842D01*
X96858170Y-66971842D01*
X96893106Y-66976865D01*
G37*
%TD.AperFunction*%
%TD*%
%TA.AperFunction,Conductor*%
%TO.N,GND*%
G36*
X96415677Y-88469685D02*
G01*
X96436319Y-88486319D01*
X97250000Y-89300000D01*
X100698638Y-89300000D01*
X100765677Y-89319685D01*
X100786319Y-89336319D01*
X100963681Y-89513681D01*
X100997166Y-89575004D01*
X101000000Y-89601362D01*
X101000000Y-90198638D01*
X100980315Y-90265677D01*
X100963681Y-90286319D01*
X100500000Y-90749999D01*
X100500000Y-93376000D01*
X100480315Y-93443039D01*
X100427511Y-93488794D01*
X100376000Y-93500000D01*
X98924000Y-93500000D01*
X98856961Y-93480315D01*
X98811206Y-93427511D01*
X98800000Y-93376000D01*
X98800000Y-91150000D01*
X98761827Y-91111827D01*
X98732466Y-91065100D01*
X98729116Y-91055525D01*
X98650711Y-90949289D01*
X98650710Y-90949288D01*
X98544476Y-90870884D01*
X98419848Y-90827274D01*
X98419849Y-90827274D01*
X98390260Y-90824500D01*
X98390256Y-90824500D01*
X97846572Y-90824500D01*
X97779533Y-90804815D01*
X97758891Y-90788181D01*
X97320710Y-90350000D01*
X95474000Y-90350000D01*
X95406961Y-90330315D01*
X95361206Y-90277511D01*
X95350000Y-90226000D01*
X95350000Y-88574000D01*
X95369685Y-88506961D01*
X95422489Y-88461206D01*
X95474000Y-88450000D01*
X96348638Y-88450000D01*
X96415677Y-88469685D01*
G37*
%TD.AperFunction*%
%TD*%
%TA.AperFunction,Conductor*%
%TO.N,Net-(U12-LX1)*%
G36*
X94393106Y-112005023D02*
G01*
X94408104Y-112009427D01*
X94466855Y-112047172D01*
X94468042Y-112048541D01*
X94495518Y-112103402D01*
X94497163Y-112110960D01*
X94500000Y-112137331D01*
X94500000Y-114668124D01*
X94499735Y-114676223D01*
X94499500Y-114679813D01*
X94499500Y-115570186D01*
X94499735Y-115573776D01*
X94500000Y-115581876D01*
X94500000Y-115750000D01*
X94625573Y-115875573D01*
X94646723Y-115903825D01*
X94659331Y-115926914D01*
X94674500Y-115986343D01*
X94674500Y-117307670D01*
X94669475Y-117342614D01*
X94665070Y-117357612D01*
X94627327Y-117416355D01*
X94625958Y-117417542D01*
X94571097Y-117445018D01*
X94563539Y-117446663D01*
X94537168Y-117449500D01*
X94503042Y-117449500D01*
X94436003Y-117429815D01*
X94390248Y-117377011D01*
X94379358Y-117316656D01*
X94379999Y-117307680D01*
X94380000Y-117307670D01*
X94380000Y-116668630D01*
X94380084Y-116664074D01*
X94380104Y-116663532D01*
X94380289Y-116658497D01*
X94380438Y-116652420D01*
X94380500Y-116647383D01*
X94380500Y-116532554D01*
X94374116Y-116481730D01*
X94358947Y-116422301D01*
X94340193Y-116374637D01*
X94327585Y-116351548D01*
X94311732Y-116326881D01*
X94290582Y-116298629D01*
X94271383Y-116276474D01*
X94271370Y-116276461D01*
X94271359Y-116276449D01*
X94271040Y-116276130D01*
X94270983Y-116276045D01*
X94269865Y-116274844D01*
X94270059Y-116274662D01*
X94260789Y-116260789D01*
X94000000Y-116000000D01*
X93341982Y-116000000D01*
X93274943Y-115980315D01*
X93254301Y-115963681D01*
X93036319Y-115745699D01*
X93002834Y-115684376D01*
X93000000Y-115658018D01*
X93000000Y-112141829D01*
X93005023Y-112106893D01*
X93009427Y-112091895D01*
X93047172Y-112033144D01*
X93048541Y-112031957D01*
X93103420Y-112004477D01*
X93110979Y-112002833D01*
X93137332Y-112000000D01*
X94358170Y-112000000D01*
X94393106Y-112005023D01*
G37*
%TD.AperFunction*%
%TD*%
%TA.AperFunction,Conductor*%
%TO.N,GND*%
G36*
X92443039Y-74345185D02*
G01*
X92488794Y-74397989D01*
X92500000Y-74449500D01*
X92500000Y-76126000D01*
X92480315Y-76193039D01*
X92427511Y-76238794D01*
X92376000Y-76250000D01*
X90124000Y-76250000D01*
X90056961Y-76230315D01*
X90011206Y-76177511D01*
X90000000Y-76126000D01*
X90000000Y-74449500D01*
X90019685Y-74382461D01*
X90072489Y-74336706D01*
X90124000Y-74325500D01*
X92376000Y-74325500D01*
X92443039Y-74345185D01*
G37*
%TD.AperFunction*%
%TD*%
%TA.AperFunction,Conductor*%
%TO.N,+3.3V_PERIPH*%
G36*
X98443039Y-54269685D02*
G01*
X98488794Y-54322489D01*
X98500000Y-54374000D01*
X98500000Y-56626000D01*
X98480315Y-56693039D01*
X98427511Y-56738794D01*
X98376000Y-56750000D01*
X96500000Y-56750000D01*
X96500000Y-58376000D01*
X96480315Y-58443039D01*
X96427511Y-58488794D01*
X96376000Y-58500000D01*
X95124000Y-58500000D01*
X95056961Y-58480315D01*
X95011206Y-58427511D01*
X95000000Y-58376000D01*
X95000000Y-54801362D01*
X95019685Y-54734323D01*
X95036319Y-54713681D01*
X95463681Y-54286319D01*
X95525004Y-54252834D01*
X95551362Y-54250000D01*
X98376000Y-54250000D01*
X98443039Y-54269685D01*
G37*
%TD.AperFunction*%
%TD*%
%TA.AperFunction,Conductor*%
%TO.N,VBAT*%
G36*
X92765740Y-70805021D02*
G01*
X92790984Y-70812434D01*
X92843730Y-70843730D01*
X93225000Y-71225000D01*
X93860097Y-71225000D01*
X93895029Y-71230021D01*
X93920273Y-71237434D01*
X93973019Y-71268730D01*
X94126073Y-71421784D01*
X94147223Y-71450036D01*
X94159831Y-71473125D01*
X94175000Y-71532554D01*
X94175000Y-71647383D01*
X94174851Y-71653460D01*
X94174500Y-71660613D01*
X94174500Y-72307673D01*
X94169477Y-72342608D01*
X94165074Y-72357603D01*
X94127329Y-72416355D01*
X94125960Y-72417542D01*
X94071096Y-72445019D01*
X94063537Y-72446664D01*
X94037169Y-72449500D01*
X93979262Y-72449500D01*
X93974820Y-72449718D01*
X93972114Y-72449851D01*
X93966037Y-72450000D01*
X93899998Y-72450000D01*
X92724426Y-73625573D01*
X92696175Y-73646722D01*
X92673087Y-73659330D01*
X92613657Y-73674500D01*
X90091830Y-73674500D01*
X90056889Y-73669475D01*
X90041890Y-73665070D01*
X89983144Y-73627327D01*
X89981957Y-73625958D01*
X89954477Y-73571083D01*
X89952832Y-73563521D01*
X89950000Y-73537168D01*
X89950000Y-70941829D01*
X89955023Y-70906893D01*
X89959427Y-70891895D01*
X89997172Y-70833144D01*
X89998541Y-70831957D01*
X90053420Y-70804477D01*
X90060979Y-70802833D01*
X90087332Y-70800000D01*
X92730808Y-70800000D01*
X92765740Y-70805021D01*
G37*
%TD.AperFunction*%
%TD*%
%TA.AperFunction,Conductor*%
%TO.N,GND*%
G36*
X158693039Y-114024685D02*
G01*
X158738794Y-114077489D01*
X158750000Y-114129000D01*
X158750000Y-116381000D01*
X158730315Y-116448039D01*
X158677511Y-116493794D01*
X158626000Y-116505000D01*
X154624000Y-116505000D01*
X154556961Y-116485315D01*
X154511206Y-116432511D01*
X154500000Y-116381000D01*
X154500000Y-114129000D01*
X154519685Y-114061961D01*
X154572489Y-114016206D01*
X154624000Y-114005000D01*
X158626000Y-114005000D01*
X158693039Y-114024685D01*
G37*
%TD.AperFunction*%
%TD*%
%TA.AperFunction,Conductor*%
%TO.N,GND*%
G36*
X92443039Y-89345185D02*
G01*
X92488794Y-89397989D01*
X92500000Y-89449500D01*
X92500000Y-91126000D01*
X92480315Y-91193039D01*
X92427511Y-91238794D01*
X92376000Y-91250000D01*
X90124000Y-91250000D01*
X90056961Y-91230315D01*
X90011206Y-91177511D01*
X90000000Y-91126000D01*
X90000000Y-89449500D01*
X90019685Y-89382461D01*
X90072489Y-89336706D01*
X90124000Y-89325500D01*
X92376000Y-89325500D01*
X92443039Y-89345185D01*
G37*
%TD.AperFunction*%
%TD*%
%TA.AperFunction,Conductor*%
%TO.N,+3.3V_MCU*%
G36*
X99943106Y-115805023D02*
G01*
X99958104Y-115809427D01*
X100016855Y-115847172D01*
X100018042Y-115848541D01*
X100045518Y-115903402D01*
X100047163Y-115910960D01*
X100050000Y-115937331D01*
X100050000Y-118558170D01*
X100044975Y-118593114D01*
X100040570Y-118608112D01*
X100002827Y-118666855D01*
X100001458Y-118668042D01*
X99946597Y-118695518D01*
X99939039Y-118697163D01*
X99912668Y-118700000D01*
X97419192Y-118700000D01*
X97384256Y-118694977D01*
X97359014Y-118687565D01*
X97306269Y-118656269D01*
X96100000Y-117450000D01*
X96033963Y-117450000D01*
X96027886Y-117449851D01*
X96025179Y-117449718D01*
X96020738Y-117449500D01*
X96020733Y-117449500D01*
X95967330Y-117449500D01*
X95932389Y-117444475D01*
X95917390Y-117440070D01*
X95858644Y-117402327D01*
X95857457Y-117400958D01*
X95829981Y-117346097D01*
X95829543Y-117344087D01*
X95828335Y-117338533D01*
X95825499Y-117312177D01*
X95825499Y-116660600D01*
X95825149Y-116653470D01*
X95825000Y-116647394D01*
X95825000Y-116539902D01*
X95830022Y-116504969D01*
X95837434Y-116479724D01*
X95868728Y-116426982D01*
X96021787Y-116273923D01*
X96050037Y-116252775D01*
X96073129Y-116240167D01*
X96132554Y-116225000D01*
X96775000Y-116225000D01*
X97151076Y-115848923D01*
X97179326Y-115827775D01*
X97202418Y-115815167D01*
X97261843Y-115800000D01*
X99908170Y-115800000D01*
X99943106Y-115805023D01*
G37*
%TD.AperFunction*%
%TD*%
%TA.AperFunction,Conductor*%
%TO.N,Net-(U14-LX1)*%
G36*
X94393106Y-82005023D02*
G01*
X94408104Y-82009427D01*
X94466855Y-82047172D01*
X94468042Y-82048541D01*
X94495518Y-82103402D01*
X94497163Y-82110960D01*
X94500000Y-82137331D01*
X94500000Y-84668124D01*
X94499735Y-84676223D01*
X94499500Y-84679813D01*
X94499500Y-85570186D01*
X94499735Y-85573776D01*
X94500000Y-85581876D01*
X94500000Y-85750000D01*
X94625573Y-85875573D01*
X94646723Y-85903825D01*
X94659331Y-85926914D01*
X94674500Y-85986343D01*
X94674500Y-87307670D01*
X94669475Y-87342614D01*
X94665070Y-87357612D01*
X94627327Y-87416355D01*
X94625958Y-87417542D01*
X94571097Y-87445018D01*
X94563539Y-87446663D01*
X94537168Y-87449500D01*
X94503042Y-87449500D01*
X94436003Y-87429815D01*
X94390248Y-87377011D01*
X94379358Y-87316656D01*
X94379999Y-87307680D01*
X94380000Y-87307670D01*
X94380000Y-86668630D01*
X94380084Y-86664074D01*
X94380104Y-86663532D01*
X94380289Y-86658497D01*
X94380438Y-86652420D01*
X94380500Y-86647383D01*
X94380500Y-86532554D01*
X94374116Y-86481730D01*
X94358947Y-86422301D01*
X94340193Y-86374637D01*
X94327585Y-86351548D01*
X94311732Y-86326881D01*
X94290582Y-86298629D01*
X94271383Y-86276474D01*
X94271370Y-86276461D01*
X94271359Y-86276449D01*
X94271040Y-86276130D01*
X94270983Y-86276045D01*
X94269865Y-86274844D01*
X94270059Y-86274662D01*
X94260789Y-86260789D01*
X94000000Y-86000000D01*
X93341982Y-86000000D01*
X93274943Y-85980315D01*
X93254301Y-85963681D01*
X93036319Y-85745699D01*
X93002834Y-85684376D01*
X93000000Y-85658018D01*
X93000000Y-82141829D01*
X93005023Y-82106893D01*
X93009427Y-82091895D01*
X93047172Y-82033144D01*
X93048541Y-82031957D01*
X93103420Y-82004477D01*
X93110979Y-82002833D01*
X93137332Y-82000000D01*
X94358170Y-82000000D01*
X94393106Y-82005023D01*
G37*
%TD.AperFunction*%
%TD*%
%TA.AperFunction,Conductor*%
%TO.N,GND*%
G36*
X92443039Y-98269685D02*
G01*
X92488794Y-98322489D01*
X92500000Y-98374000D01*
X92500000Y-100126000D01*
X92480315Y-100193039D01*
X92427511Y-100238794D01*
X92376000Y-100250000D01*
X90124000Y-100250000D01*
X90056961Y-100230315D01*
X90011206Y-100177511D01*
X90000000Y-100126000D01*
X90000000Y-98374000D01*
X90019685Y-98306961D01*
X90072489Y-98261206D01*
X90124000Y-98250000D01*
X92376000Y-98250000D01*
X92443039Y-98269685D01*
G37*
%TD.AperFunction*%
%TD*%
%TA.AperFunction,Conductor*%
%TO.N,+3.3V_PERIPH*%
G36*
X99943106Y-70805023D02*
G01*
X99958104Y-70809427D01*
X100016855Y-70847172D01*
X100018042Y-70848541D01*
X100045518Y-70903402D01*
X100047163Y-70910960D01*
X100050000Y-70937331D01*
X100050000Y-73558170D01*
X100044975Y-73593114D01*
X100040570Y-73608112D01*
X100002827Y-73666855D01*
X100001458Y-73668042D01*
X99946597Y-73695518D01*
X99939039Y-73697163D01*
X99912668Y-73700000D01*
X97419192Y-73700000D01*
X97384256Y-73694977D01*
X97359014Y-73687565D01*
X97306269Y-73656269D01*
X96100000Y-72450000D01*
X96033963Y-72450000D01*
X96027886Y-72449851D01*
X96025179Y-72449718D01*
X96020738Y-72449500D01*
X96020733Y-72449500D01*
X95967330Y-72449500D01*
X95932389Y-72444475D01*
X95917390Y-72440070D01*
X95858644Y-72402327D01*
X95857457Y-72400958D01*
X95829981Y-72346097D01*
X95829543Y-72344087D01*
X95828335Y-72338533D01*
X95825499Y-72312177D01*
X95825499Y-71660600D01*
X95825149Y-71653470D01*
X95825000Y-71647394D01*
X95825000Y-71539902D01*
X95830022Y-71504969D01*
X95837434Y-71479724D01*
X95868728Y-71426982D01*
X96021787Y-71273923D01*
X96050037Y-71252775D01*
X96073129Y-71240167D01*
X96132554Y-71225000D01*
X96775000Y-71225000D01*
X97151076Y-70848923D01*
X97179326Y-70827775D01*
X97202418Y-70815167D01*
X97261843Y-70800000D01*
X99908170Y-70800000D01*
X99943106Y-70805023D01*
G37*
%TD.AperFunction*%
%TD*%
%TA.AperFunction,Conductor*%
%TO.N,+3.3V_PERIPH*%
G36*
X99943106Y-85805023D02*
G01*
X99958104Y-85809427D01*
X100016855Y-85847172D01*
X100018042Y-85848541D01*
X100045518Y-85903402D01*
X100047163Y-85910960D01*
X100050000Y-85937331D01*
X100050000Y-88558170D01*
X100044975Y-88593114D01*
X100040570Y-88608112D01*
X100002827Y-88666855D01*
X100001458Y-88668042D01*
X99946597Y-88695518D01*
X99939039Y-88697163D01*
X99912668Y-88700000D01*
X97419192Y-88700000D01*
X97384256Y-88694977D01*
X97359014Y-88687565D01*
X97306269Y-88656269D01*
X96100000Y-87450000D01*
X96033963Y-87450000D01*
X96027886Y-87449851D01*
X96025179Y-87449718D01*
X96020738Y-87449500D01*
X96020733Y-87449500D01*
X95967330Y-87449500D01*
X95932389Y-87444475D01*
X95917390Y-87440070D01*
X95858644Y-87402327D01*
X95857457Y-87400958D01*
X95829981Y-87346097D01*
X95829543Y-87344087D01*
X95828335Y-87338533D01*
X95825499Y-87312177D01*
X95825499Y-86660600D01*
X95825149Y-86653470D01*
X95825000Y-86647394D01*
X95825000Y-86539902D01*
X95830022Y-86504969D01*
X95837434Y-86479724D01*
X95868728Y-86426982D01*
X96021787Y-86273923D01*
X96050037Y-86252775D01*
X96073129Y-86240167D01*
X96132554Y-86225000D01*
X96775000Y-86225000D01*
X97151076Y-85848923D01*
X97179326Y-85827775D01*
X97202418Y-85815167D01*
X97261843Y-85800000D01*
X99908170Y-85800000D01*
X99943106Y-85805023D01*
G37*
%TD.AperFunction*%
%TD*%
%TA.AperFunction,Conductor*%
%TO.N,GND*%
G36*
X114437539Y-59519685D02*
G01*
X114483294Y-59572489D01*
X114494500Y-59624000D01*
X114494500Y-59826621D01*
X114500948Y-59907103D01*
X114500951Y-59907126D01*
X114502221Y-59915005D01*
X114503159Y-59922131D01*
X114509357Y-59982793D01*
X114509999Y-59995397D01*
X114509999Y-60504609D01*
X114509357Y-60517212D01*
X114503163Y-60577840D01*
X114502224Y-60584972D01*
X114500956Y-60592834D01*
X114500953Y-60592862D01*
X114500079Y-60603756D01*
X114499443Y-60609533D01*
X114499420Y-60610242D01*
X114499091Y-60616075D01*
X114494500Y-60673374D01*
X114494500Y-61326621D01*
X114500948Y-61407103D01*
X114500951Y-61407126D01*
X114502221Y-61415005D01*
X114503159Y-61422131D01*
X114509357Y-61482793D01*
X114509999Y-61495397D01*
X114509999Y-62004609D01*
X114509357Y-62017212D01*
X114503163Y-62077840D01*
X114502224Y-62084972D01*
X114500956Y-62092834D01*
X114500953Y-62092862D01*
X114500079Y-62103756D01*
X114499443Y-62109533D01*
X114499420Y-62110242D01*
X114499091Y-62116075D01*
X114494500Y-62173374D01*
X114494500Y-62376000D01*
X114474815Y-62443039D01*
X114422011Y-62488794D01*
X114370500Y-62500000D01*
X105391830Y-62500000D01*
X105356889Y-62494975D01*
X105341890Y-62490570D01*
X105283144Y-62452827D01*
X105281957Y-62451458D01*
X105254477Y-62396583D01*
X105252832Y-62389021D01*
X105250000Y-62362668D01*
X105250000Y-60391829D01*
X105255023Y-60356893D01*
X105259427Y-60341895D01*
X105297172Y-60283144D01*
X105298541Y-60281957D01*
X105353420Y-60254477D01*
X105360979Y-60252833D01*
X105387332Y-60250000D01*
X111500000Y-60250000D01*
X112201076Y-59548923D01*
X112229326Y-59527775D01*
X112252418Y-59515167D01*
X112311843Y-59500000D01*
X114370500Y-59500000D01*
X114437539Y-59519685D01*
G37*
%TD.AperFunction*%
%TD*%
%TA.AperFunction,Conductor*%
%TO.N,GND*%
G36*
X96415677Y-73469685D02*
G01*
X96436319Y-73486319D01*
X97250000Y-74300000D01*
X100698638Y-74300000D01*
X100765677Y-74319685D01*
X100786319Y-74336319D01*
X100963681Y-74513681D01*
X100997166Y-74575004D01*
X101000000Y-74601362D01*
X101000000Y-75198638D01*
X100980315Y-75265677D01*
X100963681Y-75286319D01*
X100500000Y-75749999D01*
X100500000Y-78376000D01*
X100480315Y-78443039D01*
X100427511Y-78488794D01*
X100376000Y-78500000D01*
X98924000Y-78500000D01*
X98856961Y-78480315D01*
X98811206Y-78427511D01*
X98800000Y-78376000D01*
X98800000Y-76150000D01*
X98761827Y-76111827D01*
X98732466Y-76065100D01*
X98729116Y-76055525D01*
X98650711Y-75949289D01*
X98650710Y-75949288D01*
X98544476Y-75870884D01*
X98419848Y-75827274D01*
X98419849Y-75827274D01*
X98390260Y-75824500D01*
X98390256Y-75824500D01*
X97846572Y-75824500D01*
X97779533Y-75804815D01*
X97758891Y-75788181D01*
X97320710Y-75350000D01*
X95474000Y-75350000D01*
X95406961Y-75330315D01*
X95361206Y-75277511D01*
X95350000Y-75226000D01*
X95350000Y-73574000D01*
X95369685Y-73506961D01*
X95422489Y-73461206D01*
X95474000Y-73450000D01*
X96348638Y-73450000D01*
X96415677Y-73469685D01*
G37*
%TD.AperFunction*%
%TD*%
M02*
